  0
SECTION
  2
HEADER
  9
$ACADVER
  1
AC1015
  9
$ACADMAINTVER
 70
     6
  9
$DWGCODEPAGE
  3
ANSI_1252
  9
$INSBASE
 10
0.0
 20
0.0
 30
0.0
  9
$EXTMIN
 10
0.0
 20
0.0
 30
0.0
  9
$EXTMAX
 10
431.8
 20
431.8
 30
0.0
  9
$LIMMIN
 10
0.0
 20
0.0
  9
$LIMMAX
 10
420.0
 20
297.0
  9
$ORTHOMODE
 70
     0
  9
$REGENMODE
 70
     1
  9
$FILLMODE
 70
     1
  9
$QTEXTMODE
 70
     0
  9
$MIRRTEXT
 70
     1
  9
$LTSCALE
 40
1.0
  9
$ATTMODE
 70
     1
  9
$TEXTSIZE
 40
3.175
  9
$TRACEWID
 40
1.0
  9
$TEXTSTYLE
  7
Standard
  9
$CLAYER
  8
0
  9
$CELTYPE
  6
ByLayer
  9
$CECOLOR
 62
   256
  9
$CELTSCALE
 40
1.0
  9
$DISPSILH
 70
     0
  9
$DIMSCALE
 40
1.0
  9
$DIMASZ
 40
3.302
  9
$DIMEXO
 40
0.0
  9
$DIMDLI
 40
3.75
  9
$DIMRND
 40
0.0
  9
$DIMDLE
 40
0.0
  9
$DIMEXE
 40
3.175
  9
$DIMTP
 40
0.0
  9
$DIMTM
 40
0.0
  9
$DIMTXT
 40
3.175
  9
$DIMCEN
 40
2.5
  9
$DIMTSZ
 40
0.0
  9
$DIMTOL
 70
     0
  9
$DIMLIM
 70
     0
  9
$DIMTIH
 70
     1
  9
$DIMTOH
 70
     1
  9
$DIMSE1
 70
     0
  9
$DIMSE2
 70
     0
  9
$DIMTAD
 70
     0
  9
$DIMZIN
 70
     1
  9
$DIMBLK
  1

  9
$DIMASO
 70
     1
  9
$DIMSHO
 70
     1
  9
$DIMPOST
  1

  9
$DIMAPOST
  1

  9
$DIMALT
 70
     0
  9
$DIMALTD
 70
     3
  9
$DIMALTF
 40
0.0393700787
  9
$DIMLFAC
 40
1.0
  9
$DIMTOFL
 70
     1
  9
$DIMTVP
 40
0.0
  9
$DIMTIX
 70
     0
  9
$DIMSOXD
 70
     0
  9
$DIMSAH
 70
     0
  9
$DIMBLK1
  1

  9
$DIMBLK2
  1

  9
$DIMSTYLE
  2
ISO-25
  9
$DIMCLRD
 70
     0
  9
$DIMCLRE
 70
     0
  9
$DIMCLRT
 70
     0
  9
$DIMTFAC
 40
1.0
  9
$DIMGAP
 40
1.524
  9
$DIMJUST
 70
     0
  9
$DIMSD1
 70
     0
  9
$DIMSD2
 70
     0
  9
$DIMTOLJ
 70
     0
  9
$DIMTZIN
 70
     1
  9
$DIMALTZ
 70
     0
  9
$DIMALTTZ
 70
     0
  9
$DIMUPT
 70
     0
  9
$DIMDEC
 70
     2
  9
$DIMTDEC
 70
     2
  9
$DIMALTU
 70
     2
  9
$DIMALTTD
 70
     3
  9
$DIMTXSTY
  7
Standard
  9
$DIMAUNIT
 70
     0
  9
$DIMADEC
 70
     2
  9
$DIMALTRND
 40
0.0
  9
$DIMAZIN
 70
     0
  9
$DIMDSEP
 70
    44
  9
$DIMATFIT
 70
     3
  9
$DIMFRAC
 70
     0
  9
$DIMLDRBLK
  1

  9
$DIMLUNIT
 70
     2
  9
$DIMLWD
 70
    -2
  9
$DIMLWE
 70
    -2
  9
$DIMTMOVE
 70
     0
  9
$LUNITS
 70
     2
  9
$LUPREC
 70
     2
  9
$SKETCHINC
 40
1.0
  9
$FILLETRAD
 40
0.0
  9
$AUNITS
 70
     0
  9
$AUPREC
 70
     2
  9
$MENU
  1
.
  9
$ELEVATION
 40
0.0
  9
$PELEVATION
 40
0.0
  9
$THICKNESS
 40
0.0
  9
$LIMCHECK
 70
     0
  9
$CHAMFERA
 40
0.0
  9
$CHAMFERB
 40
0.0
  9
$CHAMFERC
 40
0.0
  9
$CHAMFERD
 40
0.0
  9
$SKPOLY
 70
     0
  9
$TDCREATE
 40
2459888.508357523
  9
$TDUCREATE
 40
2459888.67502419
  9
$TDUPDATE
 40
2459888.508456701
  9
$TDUUPDATE
 40
2459888.675123368
  9
$TDINDWG
 40
0.0000000116
  9
$TDUSRTIMER
 40
0.0000000116
  9
$USRTIMER
 70
     1
  9
$ANGBASE
 50
0.0
  9
$ANGDIR
 70
     0
  9
$PDMODE
 70
     0
  9
$PDSIZE
 40
-1.0
  9
$PLINEWID
 40
0.0
  9
$SPLFRAME
 70
     0
  9
$SPLINETYPE
 70
     6
  9
$SPLINESEGS
 70
     8
  9
$HANDSEED
  5
36F
  9
$SURFTAB1
 70
     6
  9
$SURFTAB2
 70
     6
  9
$SURFTYPE
 70
     6
  9
$SURFU
 70
     6
  9
$SURFV
 70
     6
  9
$UCSBASE
  2

  9
$UCSNAME
  2

  9
$UCSORG
 10
0.0
 20
0.0
 30
0.0
  9
$UCSXDIR
 10
1.0
 20
0.0
 30
0.0
  9
$UCSYDIR
 10
0.0
 20
1.0
 30
0.0
  9
$UCSORTHOREF
  2

  9
$UCSORTHOVIEW
 70
     0
  9
$UCSORGTOP
 10
0.0
 20
0.0
 30
0.0
  9
$UCSORGBOTTOM
 10
0.0
 20
0.0
 30
0.0
  9
$UCSORGLEFT
 10
0.0
 20
0.0
 30
0.0
  9
$UCSORGRIGHT
 10
0.0
 20
0.0
 30
0.0
  9
$UCSORGFRONT
 10
0.0
 20
0.0
 30
0.0
  9
$UCSORGBACK
 10
0.0
 20
0.0
 30
0.0
  9
$PUCSBASE
  2

  9
$PUCSNAME
  2

  9
$PUCSORG
 10
0.0
 20
0.0
 30
0.0
  9
$PUCSXDIR
 10
1.0
 20
0.0
 30
0.0
  9
$PUCSYDIR
 10
0.0
 20
1.0
 30
0.0
  9
$PUCSORTHOREF
  2

  9
$PUCSORTHOVIEW
 70
     0
  9
$PUCSORGTOP
 10
0.0
 20
0.0
 30
0.0
  9
$PUCSORGBOTTOM
 10
0.0
 20
0.0
 30
0.0
  9
$PUCSORGLEFT
 10
0.0
 20
0.0
 30
0.0
  9
$PUCSORGRIGHT
 10
0.0
 20
0.0
 30
0.0
  9
$PUCSORGFRONT
 10
0.0
 20
0.0
 30
0.0
  9
$PUCSORGBACK
 10
0.0
 20
0.0
 30
0.0
  9
$USERI1
 70
     0
  9
$USERI2
 70
     0
  9
$USERI3
 70
     0
  9
$USERI4
 70
     0
  9
$USERI5
 70
     0
  9
$USERR1
 40
0.0
  9
$USERR2
 40
0.0
  9
$USERR3
 40
0.0
  9
$USERR4
 40
0.0
  9
$USERR5
 40
0.0
  9
$WORLDVIEW
 70
     1
  9
$SHADEDGE
 70
     3
  9
$SHADEDIF
 70
    70
  9
$TILEMODE
 70
     1
  9
$MAXACTVP
 70
    64
  9
$PINSBASE
 10
0.0
 20
0.0
 30
0.0
  9
$PLIMCHECK
 70
     0
  9
$PEXTMIN
 10
1.0000000000E+20
 20
1.0000000000E+20
 30
1.0000000000E+20
  9
$PEXTMAX
 10
-1.0000000000E+20
 20
-1.0000000000E+20
 30
-1.0000000000E+20
  9
$PLIMMIN
 10
0.0
 20
0.0
  9
$PLIMMAX
 10
420.0
 20
297.0
  9
$UNITMODE
 70
     0
  9
$VISRETAIN
 70
     1
  9
$PLINEGEN
 70
     0
  9
$PSLTSCALE
 70
     1
  9
$TREEDEPTH
 70
  3020
  9
$CMLSTYLE
  2
Standard
  9
$CMLJUST
 70
     0
  9
$CMLSCALE
 40
20.0
  9
$PROXYGRAPHICS
 70
     1
  9
$MEASUREMENT
 70
     1
  9
$CELWEIGHT
370
    -1
  9
$ENDCAPS
280
     0
  9
$JOINSTYLE
280
     0
  9
$LWDISPLAY
290
     1
  9
$INSUNITS
 70
     4
  9
$HYPERLINKBASE
  1

  9
$STYLESHEET
  1

  9
$XEDIT
290
     1
  9
$CEPSNTYPE
380
     0
  9
$PSTYLEMODE
290
     1
  9
$FINGERPRINTGUID
  2
{4c691ce6-80ac-4427-a376-f159fb3bf34b}
  9
$VERSIONGUID
  2
{FAEB1C32-E019-11D5-929B-00C0DF256EC4}
  9
$EXTNAMES
290
     1
  9
$PSVPSCALE
 40
0.0
  9
$OLESTARTUP
290
     0
  0
ENDSEC
  0
SECTION
  2
CLASSES
  0
CLASS
  1
ACDBDICTIONARYWDFLT
  2
AcDbDictionaryWithDefault
  3
ObjectDBX Classes
 90
        0
280
     0
281
     0
  0
CLASS
  1
VISUALSTYLE
  2
AcDbVisualStyle
  3
ObjectDBX Classes
 90
     4095
280
     0
281
     0
  0
CLASS
  1
MATERIAL
  2
AcDbMaterial
  3
ObjectDBX Classes
 90
     1153
280
     0
281
     0
  0
CLASS
  1
SCALE
  2
AcDbScale
  3
ObjectDBX Classes
 90
     1153
280
     0
281
     0
  0
CLASS
  1
TABLESTYLE
  2
AcDbTableStyle
  3
ObjectDBX Classes
 90
     4095
280
     0
281
     0
  0
CLASS
  1
MLEADERSTYLE
  2
AcDbMLeaderStyle
  3
ACDB_MLEADERSTYLE_CLASS
 90
     4095
280
     0
281
     0
  0
CLASS
  1
SUN
  2
AcDbSun
  3
SCENEOE
 90
     1153
280
     0
281
     0
  0
CLASS
  1
ACDBPLACEHOLDER
  2
AcDbPlaceHolder
  3
ObjectDBX Classes
 90
        0
280
     0
281
     0
  0
CLASS
  1
LAYOUT
  2
AcDbLayout
  3
ObjectDBX Classes
 90
        0
280
     0
281
     0
  0
ENDSEC
  0
SECTION
  2
TABLES
  0
TABLE
  2
VPORT
  5
8
330
0
100
AcDbSymbolTable
 70
     1
  0
VPORT
  5
29
330
8
100
AcDbSymbolTableRecord
100
AcDbViewportTableRecord
  2
*Active
 70
     0
 10
0.0
 20
0.0
 11
1.0
 21
1.0
 12
215.9
 22
215.9
 13
0.0
 23
0.0
 14
10.0
 24
10.0
 15
10.0
 25
10.0
 16
0.0
 26
0.0
 36
1.0
 17
0.0
 27
0.0
 37
0.0
 40
440.436
 41
1.0
 42
50.0
 43
0.0
 44
0.0
 50
0.0
 51
0.0
 71
     0
 72
   100
 73
     1
 74
     3
 75
     0
 76
     0
 77
     0
 78
     0
281
     0
 65
     1
110
0.0
120
0.0
130
0.0
111
1.0
121
0.0
131
0.0
112
0.0
122
1.0
132
0.0
 79
     0
146
0.0
  0
ENDTAB
  0
TABLE
  2
LTYPE
  5
5
330
0
100
AcDbSymbolTable
 70
     6
  0
LTYPE
  5
14
330
5
100
AcDbSymbolTableRecord
100
AcDbLinetypeTableRecord
  2
ByBlock
 70
     0
  3

 72
    65
 73
     0
 40
0.0
  0
LTYPE
  5
15
330
5
100
AcDbSymbolTableRecord
100
AcDbLinetypeTableRecord
  2
ByLayer
 70
     0
  3

 72
    65
 73
     0
 40
0.0
  0
LTYPE
  5
16
330
5
100
AcDbSymbolTableRecord
100
AcDbLinetypeTableRecord
  2
Continuous
 70
     0
  3
Solid line
 72
    65
 73
     0
 40
0.0
  0
LTYPE
  5
5E
330
5
100
AcDbSymbolTableRecord
100
AcDbLinetypeTableRecord
  2
HIDDEN
 70
     0
  3
Hidden __ __ __ __ __ __ __ __ __ __ __ __ __ __
 72
    65
 73
     2
 40
1.905
 49
1.27
 74
     0
 49
-0.635
 74
     0
  0
LTYPE
  5
5F
330
5
100
AcDbSymbolTableRecord
100
AcDbLinetypeTableRecord
  2
PHANTOM
 70
     0
  3
Phantom ______  __  __  ______  __  __  ______
 72
    65
 73
     6
 40
12.7
 49
6.35
 74
     0
 49
-1.27
 74
     0
 49
1.27
 74
     0
 49
-1.27
 74
     0
 49
1.27
 74
     0
 49
-1.27
 74
     0
  0
LTYPE
  5
60
330
5
100
AcDbSymbolTableRecord
100
AcDbLinetypeTableRecord
  2
CENTER
 70
     0
  3
Center ____ _ ____ _ ____ _ ____ _ ____ _ ____
 72
    65
 73
     4
 40
10.16
 49
6.35
 74
     0
 49
-1.27
 74
     0
 49
1.27
 74
     0
 49
-1.27
 74
     0
  0
LTYPE
  5
61
330
5
100
AcDbSymbolTableRecord
100
AcDbLinetypeTableRecord
  2
CENTERX2
 70
     0
  3
Center (2x) ________  __  ________  __  _____
 72
    65
 73
     4
 40
20.32
 49
12.7
 74
     0
 49
-2.54
 74
     0
 49
2.54
 74
     0
 49
-2.54
 74
     0
  0
LTYPE
  5
62
330
5
100
AcDbSymbolTableRecord
100
AcDbLinetypeTableRecord
  2
DOT2
 70
     0
  3
Dot (.5x) ........................................
 72
    65
 73
     2
 40
0.635
 49
0.0
 74
     0
 49
-0.635
 74
     0
  0
ENDTAB
  0
TABLE
  2
LAYER
  5
2
330
0
100
AcDbSymbolTable
 70
     1
  0
LAYER
  5
10
330
2
100
AcDbSymbolTableRecord
100
AcDbLayerTableRecord
  2
0
 70
     0
 62
     7
  6
Continuous
370
    -3
390
F
  0
ENDTAB
  0
TABLE
  2
STYLE
  5
3
330
0
100
AcDbSymbolTable
 70
     2
  0
STYLE
  5
11
330
3
100
AcDbSymbolTableRecord
100
AcDbTextStyleTableRecord
  2
Standard
 70
     0
 40
0.0
 41
1.0
 50
0.0
 71
     0
 42
3.175
  3
txt
  4

  0
STYLE
  5
36B
330
3
100
AcDbSymbolTableRecord
100
AcDbTextStyleTableRecord
  2
SLDTEXTSTYLE0
 70
     0
 40
0.0
 41
0.7
 50
0.0
 71
     0
 42
3.175
  3
TXT
  4

  0
ENDTAB
  0
TABLE
  2
VIEW
  5
6
330
0
100
AcDbSymbolTable
 70
     0
  0
ENDTAB
  0
TABLE
  2
UCS
  5
7
330
0
100
AcDbSymbolTable
 70
     0
  0
ENDTAB
  0
TABLE
  2
APPID
  5
9
330
0
100
AcDbSymbolTable
 70
     1
  0
APPID
  5
12
330
9
100
AcDbSymbolTableRecord
100
AcDbRegAppTableRecord
  2
ACAD
 70
     0
  0
ENDTAB
  0
TABLE
  2
DIMSTYLE
  5
A
330
0
100
AcDbSymbolTable
 70
     1
100
AcDbDimStyleTable
  0
DIMSTYLE
105
27
330
A
100
AcDbSymbolTableRecord
100
AcDbDimStyleTableRecord
  2
ISO-25
 70
     0
 41
2.5
 42
0.625
 43
3.75
 44
1.25
 73
     0
 74
     0
 77
     1
 78
     8
140
2.5
141
2.5
143
0.0393700787
147
0.625
171
     3
172
     1
178
     0
271
     2
272
     2
274
     3
278
    44
283
     0
284
     8
340
11
  0
ENDTAB
  0
TABLE
  2
BLOCK_RECORD
  5
1
330
0
100
AcDbSymbolTable
 70
     1
  0
BLOCK_RECORD
  5
1F
330
1
100
AcDbSymbolTableRecord
100
AcDbBlockTableRecord
  2
*Model_Space
340
22
  0
BLOCK_RECORD
  5
1B
330
1
100
AcDbSymbolTableRecord
100
AcDbBlockTableRecord
  2
*Paper_Space
340
1E
  0
BLOCK_RECORD
  5
23
330
1
100
AcDbSymbolTableRecord
100
AcDbBlockTableRecord
  2
*Paper_Space0
340
26
  0
ENDTAB
  0
ENDSEC
  0
SECTION
  2
BLOCKS
  0
BLOCK
  5
20
330
1F
100
AcDbEntity
  8
0
100
AcDbBlockBegin
  2
*Model_Space
 70
     0
 10
0.0
 20
0.0
 30
0.0
  3
*Model_Space
  1

  0
ENDBLK
  5
21
330
1F
100
AcDbEntity
  8
0
100
AcDbBlockEnd
  0
BLOCK
  5
1C
330
1B
100
AcDbEntity
 67
     1
  8
0
100
AcDbBlockBegin
  2
*Paper_Space
 70
     0
 10
0.0
 20
0.0
 30
0.0
  3
*Paper_Space
  1

  0
ENDBLK
  5
1D
330
1B
100
AcDbEntity
 67
     1
  8
0
100
AcDbBlockEnd
  0
BLOCK
  5
24
330
23
100
AcDbEntity
  8
0
100
AcDbBlockBegin
  2
*Paper_Space0
 70
     0
 10
0.0
 20
0.0
 30
0.0
  3
*Paper_Space0
  1

  0
ENDBLK
  5
25
330
23
100
AcDbEntity
  8
0
100
AcDbBlockEnd
  0
ENDSEC
  0
SECTION
  2
ENTITIES
  0
CIRCLE
  5
63
330
1F
100
AcDbEntity
  8
0
  6
Continuous
 62
     7
370
    25
100
AcDbCircle
 10
416.8
 20
416.8
 30
0.0
 40
2.650000000000034
  0
CIRCLE
  5
64
330
1F
100
AcDbEntity
  8
0
  6
Continuous
 62
     7
370
    25
100
AcDbCircle
 10
15.0
 20
416.8
 30
0.0
 40
2.649999999999977
  0
CIRCLE
  5
65
330
1F
100
AcDbEntity
  8
0
  6
Continuous
 62
     7
370
    25
100
AcDbCircle
 10
15.0
 20
15.0
 30
0.0
 40
2.649999999999984
  0
CIRCLE
  5
66
330
1F
100
AcDbEntity
  8
0
  6
Continuous
 62
     7
370
    25
100
AcDbCircle
 10
416.8
 20
15.0
 30
0.0
 40
2.649999999999984
  0
LINE
  5
67
330
1F
100
AcDbEntity
  8
0
  6
Continuous
 62
     7
370
    25
100
AcDbLine
 10
275.0156823162
 20
34.6206182859
 30
0.0
 11
282.086750128
 21
41.6916860977
 31
0.0
  0
ARC
  5
68
330
1F
100
AcDbEntity
  8
0
  6
Continuous
 62
     7
370
    25
100
AcDbCircle
 10
273.893150301
 20
35.743150301
 30
0.0
 40
1.587500000000069
100
AcDbArc
 50
135.0
 51
315.0000000012
  0
LINE
  5
69
330
1F
100
AcDbEntity
  8
0
  6
Continuous
 62
     7
370
    25
100
AcDbLine
 10
279.8416860978
 20
43.936750128
 30
0.0
 11
272.7706182859
 21
36.8656823161
 31
0.0
  0
LINE
  5
6A
330
1F
100
AcDbEntity
  8
0
  6
Continuous
 62
     7
370
    25
100
AcDbLine
 10
279.5500045505
 20
44.2284316752
 30
0.0
 11
279.8416860978
 21
43.936750128
 31
0.0
  0
LINE
  5
6B
330
1F
100
AcDbEntity
  8
0
  6
Continuous
 62
     7
370
    25
100
AcDbLine
 10
292.2779266119
 20
56.9563537366
 30
0.0
 11
279.5500045505
 21
44.2284316752
 31
0.0
  0
LINE
  5
6C
330
1F
100
AcDbEntity
  8
0
  6
Continuous
 62
     7
370
    25
100
AcDbLine
 10
292.5696081591
 20
56.6646721894
 30
0.0
 11
292.2779266119
 21
56.9563537366
 31
0.0
  0
LINE
  5
6D
330
1F
100
AcDbEntity
  8
0
  6
Continuous
 62
     7
370
    25
100
AcDbLine
 10
299.640675971
 20
63.7357400012
 30
0.0
 11
292.5696081591
 21
56.6646721894
 31
0.0
  0
ARC
  5
6E
330
1F
100
AcDbEntity
  8
0
  6
Continuous
 62
     7
370
    25
100
AcDbCircle
 10
300.7632079861
 20
62.6132079861
 30
0.0
 40
1.587500000030838
100
AcDbArc
 50
315.0
 51
134.9999999988
  0
LINE
  5
6F
330
1F
100
AcDbEntity
  8
0
  6
Continuous
 62
     7
370
    25
100
AcDbLine
 10
294.8146721894
 20
54.4196081591
 30
0.0
 11
301.8857400012
 21
61.4906759709
 31
0.0
  0
LINE
  5
70
330
1F
100
AcDbEntity
  8
0
  6
Continuous
 62
     7
370
    25
100
AcDbLine
 10
295.1063537366
 20
54.1279266119
 30
0.0
 11
294.8146721894
 21
54.4196081591
 31
0.0
  0
LINE
  5
71
330
1F
100
AcDbEntity
  8
0
  6
Continuous
 62
     7
370
    25
100
AcDbLine
 10
282.3784316753
 20
41.4000045505
 30
0.0
 11
295.1063537366
 21
54.1279266119
 31
0.0
  0
LINE
  5
72
330
1F
100
AcDbEntity
  8
0
  6
Continuous
 62
     7
370
    25
100
AcDbLine
 10
282.086750128
 20
41.6916860977
 30
0.0
 11
282.3784316753
 21
41.4000045505
 31
0.0
  0
LINE
  5
73
330
1F
100
AcDbEntity
  8
0
  6
Continuous
 62
     7
370
    25
100
AcDbLine
 10
252.010675971
 20
349.5157400013
 30
0.0
 11
244.9396081592
 21
342.4446721894
 31
0.0
  0
ARC
  5
74
330
1F
100
AcDbEntity
  8
0
  6
Continuous
 62
     7
370
    25
100
AcDbCircle
 10
253.1332079861
 20
348.3932079861
 30
0.0
 40
1.587500000048634
100
AcDbArc
 50
315.0
 51
134.9999999982
  0
LINE
  5
75
330
1F
100
AcDbEntity
  8
0
  6
Continuous
 62
     7
370
    25
100
AcDbLine
 10
247.1846721894
 20
340.1996081591
 30
0.0
 11
254.2557400013
 21
347.2706759709
 31
0.0
  0
LINE
  5
76
330
1F
100
AcDbEntity
  8
0
  6
Continuous
 62
     7
370
    25
100
AcDbLine
 10
247.4763537367
 20
339.9079266118
 30
0.0
 11
247.1846721894
 21
340.1996081591
 31
0.0
  0
LINE
  5
77
330
1F
100
AcDbEntity
  8
0
  6
Continuous
 62
     7
370
    25
100
AcDbLine
 10
234.7484316753
 20
327.1800045505
 30
0.0
 11
247.4763537367
 21
339.9079266118
 31
0.0
  0
LINE
  5
78
330
1F
100
AcDbEntity
  8
0
  6
Continuous
 62
     7
370
    25
100
AcDbLine
 10
234.4567501281
 20
327.4716860977
 30
0.0
 11
234.7484316753
 21
327.1800045505
 31
0.0
  0
LINE
  5
79
330
1F
100
AcDbEntity
  8
0
  6
Continuous
 62
     7
370
    25
100
AcDbLine
 10
227.3856823162
 20
320.4006182859
 30
0.0
 11
234.4567501281
 21
327.4716860977
 31
0.0
  0
ARC
  5
7A
330
1F
100
AcDbEntity
  8
0
  6
Continuous
 62
     7
370
    25
100
AcDbCircle
 10
226.263150301
 20
321.523150301
 30
0.0
 40
1.587500000000019
100
AcDbArc
 50
135.0
 51
315.0000000018
  0
LINE
  5
7B
330
1F
100
AcDbEntity
  8
0
  6
Continuous
 62
     7
370
    25
100
AcDbLine
 10
232.2116860978
 20
329.716750128
 30
0.0
 11
225.1406182859
 21
322.6456823161
 31
0.0
  0
LINE
  5
7C
330
1F
100
AcDbEntity
  8
0
  6
Continuous
 62
     7
370
    25
100
AcDbLine
 10
231.9200045506
 20
330.0084316752
 30
0.0
 11
232.2116860978
 21
329.716750128
 31
0.0
  0
LINE
  5
7D
330
1F
100
AcDbEntity
  8
0
  6
Continuous
 62
     7
370
    25
100
AcDbLine
 10
244.6479266119
 20
342.7363537366
 30
0.0
 11
231.9200045506
 21
330.0084316752
 31
0.0
  0
LINE
  5
7E
330
1F
100
AcDbEntity
  8
0
  6
Continuous
 62
     7
370
    25
100
AcDbLine
 10
244.9396081592
 20
342.4446721894
 30
0.0
 11
244.6479266119
 21
342.7363537366
 31
0.0
  0
LINE
  5
7F
330
1F
100
AcDbEntity
  8
0
  6
Continuous
 62
     7
370
    25
100
AcDbLine
 10
252.010675971
 20
301.8857400013
 30
0.0
 11
244.9396081592
 21
294.8146721894
 31
0.0
  0
ARC
  5
80
330
1F
100
AcDbEntity
  8
0
  6
Continuous
 62
     7
370
    25
100
AcDbCircle
 10
253.1332079861
 20
300.7632079861
 30
0.0
 40
1.587500000048433
100
AcDbArc
 50
315.0
 51
134.9999999982
  0
LINE
  5
81
330
1F
100
AcDbEntity
  8
0
  6
Continuous
 62
     7
370
    25
100
AcDbLine
 10
247.1846721894
 20
292.5696081591
 30
0.0
 11
254.2557400013
 21
299.6406759709
 31
0.0
  0
LINE
  5
82
330
1F
100
AcDbEntity
  8
0
  6
Continuous
 62
     7
370
    25
100
AcDbLine
 10
247.4763537367
 20
292.2779266118
 30
0.0
 11
247.1846721894
 21
292.5696081591
 31
0.0
  0
LINE
  5
83
330
1F
100
AcDbEntity
  8
0
  6
Continuous
 62
     7
370
    25
100
AcDbLine
 10
234.7484316753
 20
279.5500045505
 30
0.0
 11
247.4763537367
 21
292.2779266118
 31
0.0
  0
LINE
  5
84
330
1F
100
AcDbEntity
  8
0
  6
Continuous
 62
     7
370
    25
100
AcDbLine
 10
234.4567501281
 20
279.8416860977
 30
0.0
 11
234.7484316753
 21
279.5500045505
 31
0.0
  0
LINE
  5
85
330
1F
100
AcDbEntity
  8
0
  6
Continuous
 62
     7
370
    25
100
AcDbLine
 10
227.3856823162
 20
272.7706182859
 30
0.0
 11
234.4567501281
 21
279.8416860977
 31
0.0
  0
ARC
  5
86
330
1F
100
AcDbEntity
  8
0
  6
Continuous
 62
     7
370
    25
100
AcDbCircle
 10
226.263150301
 20
273.893150301
 30
0.0
 40
1.587500000000019
100
AcDbArc
 50
135.0
 51
315.0000000018
  0
LINE
  5
87
330
1F
100
AcDbEntity
  8
0
  6
Continuous
 62
     7
370
    25
100
AcDbLine
 10
232.2116860978
 20
282.086750128
 30
0.0
 11
225.1406182859
 21
275.0156823161
 31
0.0
  0
LINE
  5
88
330
1F
100
AcDbEntity
  8
0
  6
Continuous
 62
     7
370
    25
100
AcDbLine
 10
231.9200045506
 20
282.3784316752
 30
0.0
 11
232.2116860978
 21
282.086750128
 31
0.0
  0
LINE
  5
89
330
1F
100
AcDbEntity
  8
0
  6
Continuous
 62
     7
370
    25
100
AcDbLine
 10
244.6479266119
 20
295.1063537366
 30
0.0
 11
231.9200045506
 21
282.3784316752
 31
0.0
  0
LINE
  5
8A
330
1F
100
AcDbEntity
  8
0
  6
Continuous
 62
     7
370
    25
100
AcDbLine
 10
244.9396081592
 20
294.8146721894
 30
0.0
 11
244.6479266119
 21
295.1063537366
 31
0.0
  0
LINE
  5
8B
330
1F
100
AcDbEntity
  8
0
  6
Continuous
 62
     7
370
    25
100
AcDbLine
 10
252.010675971
 20
254.2557400013
 30
0.0
 11
244.9396081592
 21
247.1846721894
 31
0.0
  0
ARC
  5
8C
330
1F
100
AcDbEntity
  8
0
  6
Continuous
 62
     7
370
    25
100
AcDbCircle
 10
253.1332079861
 20
253.1332079861
 30
0.0
 40
1.587500000048132
100
AcDbArc
 50
315.0
 51
134.9999999982
  0
LINE
  5
8D
330
1F
100
AcDbEntity
  8
0
  6
Continuous
 62
     7
370
    25
100
AcDbLine
 10
247.1846721894
 20
244.9396081591
 30
0.0
 11
254.2557400013
 21
252.0106759709
 31
0.0
  0
LINE
  5
8E
330
1F
100
AcDbEntity
  8
0
  6
Continuous
 62
     7
370
    25
100
AcDbLine
 10
247.4763537367
 20
244.6479266118
 30
0.0
 11
247.1846721894
 21
244.9396081591
 31
0.0
  0
LINE
  5
8F
330
1F
100
AcDbEntity
  8
0
  6
Continuous
 62
     7
370
    25
100
AcDbLine
 10
234.7484316753
 20
231.9200045505
 30
0.0
 11
247.4763537367
 21
244.6479266118
 31
0.0
  0
LINE
  5
90
330
1F
100
AcDbEntity
  8
0
  6
Continuous
 62
     7
370
    25
100
AcDbLine
 10
234.4567501281
 20
232.2116860977
 30
0.0
 11
234.7484316753
 21
231.9200045505
 31
0.0
  0
LINE
  5
91
330
1F
100
AcDbEntity
  8
0
  6
Continuous
 62
     7
370
    25
100
AcDbLine
 10
227.3856823162
 20
225.1406182859
 30
0.0
 11
234.4567501281
 21
232.2116860977
 31
0.0
  0
ARC
  5
92
330
1F
100
AcDbEntity
  8
0
  6
Continuous
 62
     7
370
    25
100
AcDbCircle
 10
226.263150301
 20
226.263150301
 30
0.0
 40
1.587499999999999
100
AcDbArc
 50
135.0
 51
315.0000000018
  0
LINE
  5
93
330
1F
100
AcDbEntity
  8
0
  6
Continuous
 62
     7
370
    25
100
AcDbLine
 10
232.2116860978
 20
234.456750128
 30
0.0
 11
225.1406182859
 21
227.3856823161
 31
0.0
  0
LINE
  5
94
330
1F
100
AcDbEntity
  8
0
  6
Continuous
 62
     7
370
    25
100
AcDbLine
 10
231.9200045506
 20
234.7484316752
 30
0.0
 11
232.2116860978
 21
234.456750128
 31
0.0
  0
LINE
  5
95
330
1F
100
AcDbEntity
  8
0
  6
Continuous
 62
     7
370
    25
100
AcDbLine
 10
244.6479266119
 20
247.4763537366
 30
0.0
 11
231.9200045506
 21
234.7484316752
 31
0.0
  0
LINE
  5
96
330
1F
100
AcDbEntity
  8
0
  6
Continuous
 62
     7
370
    25
100
AcDbLine
 10
244.9396081592
 20
247.1846721894
 30
0.0
 11
244.6479266119
 21
247.4763537366
 31
0.0
  0
LINE
  5
97
330
1F
100
AcDbEntity
  8
0
  6
Continuous
 62
     7
370
    25
100
AcDbLine
 10
275.0156823162
 20
82.2506182859
 30
0.0
 11
282.086750128
 21
89.3216860977
 31
0.0
  0
ARC
  5
98
330
1F
100
AcDbEntity
  8
0
  6
Continuous
 62
     7
370
    25
100
AcDbCircle
 10
273.893150301
 20
83.373150301
 30
0.0
 40
1.587499999999989
100
AcDbArc
 50
135.0
 51
315.0000000012
  0
LINE
  5
99
330
1F
100
AcDbEntity
  8
0
  6
Continuous
 62
     7
370
    25
100
AcDbLine
 10
279.8416860978
 20
91.566750128
 30
0.0
 11
272.7706182859
 21
84.4956823161
 31
0.0
  0
LINE
  5
9A
330
1F
100
AcDbEntity
  8
0
  6
Continuous
 62
     7
370
    25
100
AcDbLine
 10
279.5500045505
 20
91.8584316752
 30
0.0
 11
279.8416860978
 21
91.566750128
 31
0.0
  0
LINE
  5
9B
330
1F
100
AcDbEntity
  8
0
  6
Continuous
 62
     7
370
    25
100
AcDbLine
 10
292.2779266119
 20
104.5863537366
 30
0.0
 11
279.5500045505
 21
91.8584316752
 31
0.0
  0
LINE
  5
9C
330
1F
100
AcDbEntity
  8
0
  6
Continuous
 62
     7
370
    25
100
AcDbLine
 10
292.5696081591
 20
104.2946721894
 30
0.0
 11
292.2779266119
 21
104.5863537366
 31
0.0
  0
LINE
  5
9D
330
1F
100
AcDbEntity
  8
0
  6
Continuous
 62
     7
370
    25
100
AcDbLine
 10
299.640675971
 20
111.3657400012
 30
0.0
 11
292.5696081591
 21
104.2946721894
 31
0.0
  0
ARC
  5
9E
330
1F
100
AcDbEntity
  8
0
  6
Continuous
 62
     7
370
    25
100
AcDbCircle
 10
300.7632079861
 20
110.2432079861
 30
0.0
 40
1.587500000031069
100
AcDbArc
 50
315.0
 51
134.9999999988
  0
LINE
  5
9F
330
1F
100
AcDbEntity
  8
0
  6
Continuous
 62
     7
370
    25
100
AcDbLine
 10
294.8146721894
 20
102.0496081591
 30
0.0
 11
301.8857400012
 21
109.1206759709
 31
0.0
  0
LINE
  5
A0
330
1F
100
AcDbEntity
  8
0
  6
Continuous
 62
     7
370
    25
100
AcDbLine
 10
295.1063537366
 20
101.7579266119
 30
0.0
 11
294.8146721894
 21
102.0496081591
 31
0.0
  0
LINE
  5
A1
330
1F
100
AcDbEntity
  8
0
  6
Continuous
 62
     7
370
    25
100
AcDbLine
 10
282.3784316753
 20
89.0300045505
 30
0.0
 11
295.1063537366
 21
101.7579266119
 31
0.0
  0
LINE
  5
A2
330
1F
100
AcDbEntity
  8
0
  6
Continuous
 62
     7
370
    25
100
AcDbLine
 10
282.086750128
 20
89.3216860977
 30
0.0
 11
282.3784316753
 21
89.0300045505
 31
0.0
  0
LINE
  5
A3
330
1F
100
AcDbEntity
  8
0
  6
Continuous
 62
     7
370
    25
100
AcDbLine
 10
275.0156823162
 20
129.8806182859
 30
0.0
 11
282.086750128
 21
136.9516860977
 31
0.0
  0
ARC
  5
A4
330
1F
100
AcDbEntity
  8
0
  6
Continuous
 62
     7
370
    25
100
AcDbCircle
 10
273.893150301
 20
131.003150301
 30
0.0
 40
1.587500000000019
100
AcDbArc
 50
135.0
 51
315.0000000012
  0
LINE
  5
A5
330
1F
100
AcDbEntity
  8
0
  6
Continuous
 62
     7
370
    25
100
AcDbLine
 10
279.8416860978
 20
139.196750128
 30
0.0
 11
272.7706182859
 21
132.1256823161
 31
0.0
  0
LINE
  5
A6
330
1F
100
AcDbEntity
  8
0
  6
Continuous
 62
     7
370
    25
100
AcDbLine
 10
279.5500045505
 20
139.4884316752
 30
0.0
 11
279.8416860978
 21
139.196750128
 31
0.0
  0
LINE
  5
A7
330
1F
100
AcDbEntity
  8
0
  6
Continuous
 62
     7
370
    25
100
AcDbLine
 10
292.2779266119
 20
152.2163537366
 30
0.0
 11
279.5500045505
 21
139.4884316752
 31
0.0
  0
LINE
  5
A8
330
1F
100
AcDbEntity
  8
0
  6
Continuous
 62
     7
370
    25
100
AcDbLine
 10
292.5696081591
 20
151.9246721894
 30
0.0
 11
292.2779266119
 21
152.2163537366
 31
0.0
  0
LINE
  5
A9
330
1F
100
AcDbEntity
  8
0
  6
Continuous
 62
     7
370
    25
100
AcDbLine
 10
299.640675971
 20
158.9957400012
 30
0.0
 11
292.5696081591
 21
151.9246721894
 31
0.0
  0
ARC
  5
AA
330
1F
100
AcDbEntity
  8
0
  6
Continuous
 62
     7
370
    25
100
AcDbCircle
 10
300.7632079861
 20
157.8732079861
 30
0.0
 40
1.58750000003129
100
AcDbArc
 50
315.0
 51
134.9999999988
  0
LINE
  5
AB
330
1F
100
AcDbEntity
  8
0
  6
Continuous
 62
     7
370
    25
100
AcDbLine
 10
294.8146721894
 20
149.6796081591
 30
0.0
 11
301.8857400012
 21
156.7506759709
 31
0.0
  0
LINE
  5
AC
330
1F
100
AcDbEntity
  8
0
  6
Continuous
 62
     7
370
    25
100
AcDbLine
 10
295.1063537366
 20
149.3879266119
 30
0.0
 11
294.8146721894
 21
149.6796081591
 31
0.0
  0
LINE
  5
AD
330
1F
100
AcDbEntity
  8
0
  6
Continuous
 62
     7
370
    25
100
AcDbLine
 10
282.3784316753
 20
136.6600045505
 30
0.0
 11
295.1063537366
 21
149.3879266119
 31
0.0
  0
LINE
  5
AE
330
1F
100
AcDbEntity
  8
0
  6
Continuous
 62
     7
370
    25
100
AcDbLine
 10
282.086750128
 20
136.9516860977
 30
0.0
 11
282.3784316753
 21
136.6600045505
 31
0.0
  0
LINE
  5
AF
330
1F
100
AcDbEntity
  8
0
  6
Continuous
 62
     7
370
    25
100
AcDbLine
 10
275.0156823162
 20
177.5106182859
 30
0.0
 11
282.086750128
 21
184.5816860977
 31
0.0
  0
ARC
  5
B0
330
1F
100
AcDbEntity
  8
0
  6
Continuous
 62
     7
370
    25
100
AcDbCircle
 10
273.893150301
 20
178.633150301
 30
0.0
 40
1.587500000000059
100
AcDbArc
 50
135.0
 51
315.0000000012
  0
LINE
  5
B1
330
1F
100
AcDbEntity
  8
0
  6
Continuous
 62
     7
370
    25
100
AcDbLine
 10
279.8416860978
 20
186.826750128
 30
0.0
 11
272.7706182859
 21
179.7556823161
 31
0.0
  0
LINE
  5
B2
330
1F
100
AcDbEntity
  8
0
  6
Continuous
 62
     7
370
    25
100
AcDbLine
 10
279.5500045505
 20
187.1184316752
 30
0.0
 11
279.8416860978
 21
186.826750128
 31
0.0
  0
LINE
  5
B3
330
1F
100
AcDbEntity
  8
0
  6
Continuous
 62
     7
370
    25
100
AcDbLine
 10
292.2779266119
 20
199.8463537366
 30
0.0
 11
279.5500045505
 21
187.1184316752
 31
0.0
  0
LINE
  5
B4
330
1F
100
AcDbEntity
  8
0
  6
Continuous
 62
     7
370
    25
100
AcDbLine
 10
292.5696081591
 20
199.5546721894
 30
0.0
 11
292.2779266119
 21
199.8463537366
 31
0.0
  0
LINE
  5
B5
330
1F
100
AcDbEntity
  8
0
  6
Continuous
 62
     7
370
    25
100
AcDbLine
 10
299.640675971
 20
206.6257400012
 30
0.0
 11
292.5696081591
 21
199.5546721894
 31
0.0
  0
ARC
  5
B6
330
1F
100
AcDbEntity
  8
0
  6
Continuous
 62
     7
370
    25
100
AcDbCircle
 10
300.7632079861
 20
205.5032079861
 30
0.0
 40
1.587500000031571
100
AcDbArc
 50
315.0
 51
134.9999999988
  0
LINE
  5
B7
330
1F
100
AcDbEntity
  8
0
  6
Continuous
 62
     7
370
    25
100
AcDbLine
 10
294.8146721894
 20
197.3096081591
 30
0.0
 11
301.8857400012
 21
204.3806759709
 31
0.0
  0
LINE
  5
B8
330
1F
100
AcDbEntity
  8
0
  6
Continuous
 62
     7
370
    25
100
AcDbLine
 10
295.1063537366
 20
197.0179266119
 30
0.0
 11
294.8146721894
 21
197.3096081591
 31
0.0
  0
LINE
  5
B9
330
1F
100
AcDbEntity
  8
0
  6
Continuous
 62
     7
370
    25
100
AcDbLine
 10
282.3784316753
 20
184.2900045505
 30
0.0
 11
295.1063537366
 21
197.0179266119
 31
0.0
  0
LINE
  5
BA
330
1F
100
AcDbEntity
  8
0
  6
Continuous
 62
     7
370
    25
100
AcDbLine
 10
282.086750128
 20
184.5816860977
 30
0.0
 11
282.3784316753
 21
184.2900045505
 31
0.0
  0
LINE
  5
BB
330
1F
100
AcDbEntity
  8
0
  6
Continuous
 62
     7
370
    25
100
AcDbLine
 10
275.0156823162
 20
225.1406182859
 30
0.0
 11
282.086750128
 21
232.2116860977
 31
0.0
  0
ARC
  5
BC
330
1F
100
AcDbEntity
  8
0
  6
Continuous
 62
     7
370
    25
100
AcDbCircle
 10
273.893150301
 20
226.263150301
 30
0.0
 40
1.587500000000019
100
AcDbArc
 50
135.0
 51
315.0000000012
  0
LINE
  5
BD
330
1F
100
AcDbEntity
  8
0
  6
Continuous
 62
     7
370
    25
100
AcDbLine
 10
279.8416860978
 20
234.456750128
 30
0.0
 11
272.7706182859
 21
227.3856823161
 31
0.0
  0
LINE
  5
BE
330
1F
100
AcDbEntity
  8
0
  6
Continuous
 62
     7
370
    25
100
AcDbLine
 10
279.5500045505
 20
234.7484316752
 30
0.0
 11
279.8416860978
 21
234.456750128
 31
0.0
  0
LINE
  5
BF
330
1F
100
AcDbEntity
  8
0
  6
Continuous
 62
     7
370
    25
100
AcDbLine
 10
292.2779266119
 20
247.4763537366
 30
0.0
 11
279.5500045505
 21
234.7484316752
 31
0.0
  0
LINE
  5
C0
330
1F
100
AcDbEntity
  8
0
  6
Continuous
 62
     7
370
    25
100
AcDbLine
 10
292.5696081591
 20
247.1846721894
 30
0.0
 11
292.2779266119
 21
247.4763537366
 31
0.0
  0
LINE
  5
C1
330
1F
100
AcDbEntity
  8
0
  6
Continuous
 62
     7
370
    25
100
AcDbLine
 10
299.640675971
 20
254.2557400012
 30
0.0
 11
292.5696081591
 21
247.1846721894
 31
0.0
  0
ARC
  5
C2
330
1F
100
AcDbEntity
  8
0
  6
Continuous
 62
     7
370
    25
100
AcDbCircle
 10
300.7632079861
 20
253.1332079861
 30
0.0
 40
1.587500000031873
100
AcDbArc
 50
315.0
 51
134.9999999988
  0
LINE
  5
C3
330
1F
100
AcDbEntity
  8
0
  6
Continuous
 62
     7
370
    25
100
AcDbLine
 10
294.8146721894
 20
244.9396081591
 30
0.0
 11
301.8857400012
 21
252.0106759709
 31
0.0
  0
LINE
  5
C4
330
1F
100
AcDbEntity
  8
0
  6
Continuous
 62
     7
370
    25
100
AcDbLine
 10
295.1063537366
 20
244.6479266118
 30
0.0
 11
294.8146721894
 21
244.9396081591
 31
0.0
  0
LINE
  5
C5
330
1F
100
AcDbEntity
  8
0
  6
Continuous
 62
     7
370
    25
100
AcDbLine
 10
282.3784316753
 20
231.9200045505
 30
0.0
 11
295.1063537366
 21
244.6479266118
 31
0.0
  0
LINE
  5
C6
330
1F
100
AcDbEntity
  8
0
  6
Continuous
 62
     7
370
    25
100
AcDbLine
 10
282.086750128
 20
232.2116860977
 30
0.0
 11
282.3784316753
 21
231.9200045505
 31
0.0
  0
LINE
  5
C7
330
1F
100
AcDbEntity
  8
0
  6
Continuous
 62
     7
370
    25
100
AcDbLine
 10
227.3856823162
 20
177.5106182859
 30
0.0
 11
234.4567501281
 21
184.5816860977
 31
0.0
  0
ARC
  5
C8
330
1F
100
AcDbEntity
  8
0
  6
Continuous
 62
     7
370
    25
100
AcDbCircle
 10
226.263150301
 20
178.633150301
 30
0.0
 40
1.587500000000019
100
AcDbArc
 50
135.0
 51
315.0000000018
  0
LINE
  5
C9
330
1F
100
AcDbEntity
  8
0
  6
Continuous
 62
     7
370
    25
100
AcDbLine
 10
232.2116860978
 20
186.826750128
 30
0.0
 11
225.1406182859
 21
179.7556823161
 31
0.0
  0
LINE
  5
CA
330
1F
100
AcDbEntity
  8
0
  6
Continuous
 62
     7
370
    25
100
AcDbLine
 10
231.9200045506
 20
187.1184316752
 30
0.0
 11
232.2116860978
 21
186.826750128
 31
0.0
  0
LINE
  5
CB
330
1F
100
AcDbEntity
  8
0
  6
Continuous
 62
     7
370
    25
100
AcDbLine
 10
244.6479266119
 20
199.8463537366
 30
0.0
 11
231.9200045506
 21
187.1184316752
 31
0.0
  0
LINE
  5
CC
330
1F
100
AcDbEntity
  8
0
  6
Continuous
 62
     7
370
    25
100
AcDbLine
 10
244.9396081592
 20
199.5546721894
 30
0.0
 11
244.6479266119
 21
199.8463537366
 31
0.0
  0
LINE
  5
CD
330
1F
100
AcDbEntity
  8
0
  6
Continuous
 62
     7
370
    25
100
AcDbLine
 10
252.010675971
 20
206.6257400013
 30
0.0
 11
244.9396081592
 21
199.5546721894
 31
0.0
  0
ARC
  5
CE
330
1F
100
AcDbEntity
  8
0
  6
Continuous
 62
     7
370
    25
100
AcDbCircle
 10
253.1332079861
 20
205.5032079861
 30
0.0
 40
1.58750000004783
100
AcDbArc
 50
315.0
 51
134.9999999982
  0
LINE
  5
CF
330
1F
100
AcDbEntity
  8
0
  6
Continuous
 62
     7
370
    25
100
AcDbLine
 10
247.1846721894
 20
197.3096081591
 30
0.0
 11
254.2557400013
 21
204.3806759709
 31
0.0
  0
LINE
  5
D0
330
1F
100
AcDbEntity
  8
0
  6
Continuous
 62
     7
370
    25
100
AcDbLine
 10
247.4763537367
 20
197.0179266119
 30
0.0
 11
247.1846721894
 21
197.3096081591
 31
0.0
  0
LINE
  5
D1
330
1F
100
AcDbEntity
  8
0
  6
Continuous
 62
     7
370
    25
100
AcDbLine
 10
234.7484316753
 20
184.2900045505
 30
0.0
 11
247.4763537367
 21
197.0179266119
 31
0.0
  0
LINE
  5
D2
330
1F
100
AcDbEntity
  8
0
  6
Continuous
 62
     7
370
    25
100
AcDbLine
 10
234.4567501281
 20
184.5816860977
 30
0.0
 11
234.7484316753
 21
184.2900045505
 31
0.0
  0
LINE
  5
D3
330
1F
100
AcDbEntity
  8
0
  6
Continuous
 62
     7
370
    25
100
AcDbLine
 10
227.3856823162
 20
129.8806182859
 30
0.0
 11
234.4567501281
 21
136.9516860977
 31
0.0
  0
ARC
  5
D4
330
1F
100
AcDbEntity
  8
0
  6
Continuous
 62
     7
370
    25
100
AcDbCircle
 10
226.263150301
 20
131.003150301
 30
0.0
 40
1.587499999999979
100
AcDbArc
 50
135.0
 51
315.0000000018
  0
LINE
  5
D5
330
1F
100
AcDbEntity
  8
0
  6
Continuous
 62
     7
370
    25
100
AcDbLine
 10
232.2116860978
 20
139.196750128
 30
0.0
 11
225.1406182859
 21
132.1256823161
 31
0.0
  0
LINE
  5
D6
330
1F
100
AcDbEntity
  8
0
  6
Continuous
 62
     7
370
    25
100
AcDbLine
 10
231.9200045506
 20
139.4884316752
 30
0.0
 11
232.2116860978
 21
139.196750128
 31
0.0
  0
LINE
  5
D7
330
1F
100
AcDbEntity
  8
0
  6
Continuous
 62
     7
370
    25
100
AcDbLine
 10
244.6479266119
 20
152.2163537366
 30
0.0
 11
231.9200045506
 21
139.4884316752
 31
0.0
  0
LINE
  5
D8
330
1F
100
AcDbEntity
  8
0
  6
Continuous
 62
     7
370
    25
100
AcDbLine
 10
244.9396081592
 20
151.9246721894
 30
0.0
 11
244.6479266119
 21
152.2163537366
 31
0.0
  0
LINE
  5
D9
330
1F
100
AcDbEntity
  8
0
  6
Continuous
 62
     7
370
    25
100
AcDbLine
 10
252.010675971
 20
158.9957400013
 30
0.0
 11
244.9396081592
 21
151.9246721894
 31
0.0
  0
ARC
  5
DA
330
1F
100
AcDbEntity
  8
0
  6
Continuous
 62
     7
370
    25
100
AcDbCircle
 10
253.1332079861
 20
157.8732079861
 30
0.0
 40
1.587500000047569
100
AcDbArc
 50
315.0
 51
134.9999999982
  0
LINE
  5
DB
330
1F
100
AcDbEntity
  8
0
  6
Continuous
 62
     7
370
    25
100
AcDbLine
 10
247.1846721894
 20
149.6796081591
 30
0.0
 11
254.2557400013
 21
156.7506759709
 31
0.0
  0
LINE
  5
DC
330
1F
100
AcDbEntity
  8
0
  6
Continuous
 62
     7
370
    25
100
AcDbLine
 10
247.4763537367
 20
149.3879266119
 30
0.0
 11
247.1846721894
 21
149.6796081591
 31
0.0
  0
LINE
  5
DD
330
1F
100
AcDbEntity
  8
0
  6
Continuous
 62
     7
370
    25
100
AcDbLine
 10
234.7484316753
 20
136.6600045505
 30
0.0
 11
247.4763537367
 21
149.3879266119
 31
0.0
  0
LINE
  5
DE
330
1F
100
AcDbEntity
  8
0
  6
Continuous
 62
     7
370
    25
100
AcDbLine
 10
234.4567501281
 20
136.9516860977
 30
0.0
 11
234.7484316753
 21
136.6600045505
 31
0.0
  0
LINE
  5
DF
330
1F
100
AcDbEntity
  8
0
  6
Continuous
 62
     7
370
    25
100
AcDbLine
 10
227.3856823162
 20
82.2506182859
 30
0.0
 11
234.4567501281
 21
89.3216860977
 31
0.0
  0
ARC
  5
E0
330
1F
100
AcDbEntity
  8
0
  6
Continuous
 62
     7
370
    25
100
AcDbCircle
 10
226.263150301
 20
83.373150301
 30
0.0
 40
1.587499999999999
100
AcDbArc
 50
135.0
 51
315.0000000018
  0
LINE
  5
E1
330
1F
100
AcDbEntity
  8
0
  6
Continuous
 62
     7
370
    25
100
AcDbLine
 10
232.2116860978
 20
91.566750128
 30
0.0
 11
225.1406182859
 21
84.4956823161
 31
0.0
  0
LINE
  5
E2
330
1F
100
AcDbEntity
  8
0
  6
Continuous
 62
     7
370
    25
100
AcDbLine
 10
231.9200045506
 20
91.8584316752
 30
0.0
 11
232.2116860978
 21
91.566750128
 31
0.0
  0
LINE
  5
E3
330
1F
100
AcDbEntity
  8
0
  6
Continuous
 62
     7
370
    25
100
AcDbLine
 10
244.6479266119
 20
104.5863537366
 30
0.0
 11
231.9200045506
 21
91.8584316752
 31
0.0
  0
LINE
  5
E4
330
1F
100
AcDbEntity
  8
0
  6
Continuous
 62
     7
370
    25
100
AcDbLine
 10
244.9396081592
 20
104.2946721894
 30
0.0
 11
244.6479266119
 21
104.5863537366
 31
0.0
  0
LINE
  5
E5
330
1F
100
AcDbEntity
  8
0
  6
Continuous
 62
     7
370
    25
100
AcDbLine
 10
252.010675971
 20
111.3657400013
 30
0.0
 11
244.9396081592
 21
104.2946721894
 31
0.0
  0
ARC
  5
E6
330
1F
100
AcDbEntity
  8
0
  6
Continuous
 62
     7
370
    25
100
AcDbCircle
 10
253.1332079861
 20
110.2432079861
 30
0.0
 40
1.587500000047317
100
AcDbArc
 50
315.0
 51
134.9999999982
  0
LINE
  5
E7
330
1F
100
AcDbEntity
  8
0
  6
Continuous
 62
     7
370
    25
100
AcDbLine
 10
247.1846721894
 20
102.0496081591
 30
0.0
 11
254.2557400013
 21
109.1206759709
 31
0.0
  0
LINE
  5
E8
330
1F
100
AcDbEntity
  8
0
  6
Continuous
 62
     7
370
    25
100
AcDbLine
 10
247.4763537367
 20
101.7579266119
 30
0.0
 11
247.1846721894
 21
102.0496081591
 31
0.0
  0
LINE
  5
E9
330
1F
100
AcDbEntity
  8
0
  6
Continuous
 62
     7
370
    25
100
AcDbLine
 10
234.7484316753
 20
89.0300045505
 30
0.0
 11
247.4763537367
 21
101.7579266119
 31
0.0
  0
LINE
  5
EA
330
1F
100
AcDbEntity
  8
0
  6
Continuous
 62
     7
370
    25
100
AcDbLine
 10
234.4567501281
 20
89.3216860977
 30
0.0
 11
234.7484316753
 21
89.0300045505
 31
0.0
  0
LINE
  5
EB
330
1F
100
AcDbEntity
  8
0
  6
Continuous
 62
     7
370
    25
100
AcDbLine
 10
227.3856823162
 20
34.6206182859
 30
0.0
 11
234.4567501281
 21
41.6916860977
 31
0.0
  0
ARC
  5
EC
330
1F
100
AcDbEntity
  8
0
  6
Continuous
 62
     7
370
    25
100
AcDbCircle
 10
226.263150301
 20
35.743150301
 30
0.0
 40
1.587500000000004
100
AcDbArc
 50
135.0
 51
315.0000000018
  0
LINE
  5
ED
330
1F
100
AcDbEntity
  8
0
  6
Continuous
 62
     7
370
    25
100
AcDbLine
 10
232.2116860978
 20
43.936750128
 30
0.0
 11
225.1406182859
 21
36.8656823161
 31
0.0
  0
LINE
  5
EE
330
1F
100
AcDbEntity
  8
0
  6
Continuous
 62
     7
370
    25
100
AcDbLine
 10
231.9200045506
 20
44.2284316752
 30
0.0
 11
232.2116860978
 21
43.936750128
 31
0.0
  0
LINE
  5
EF
330
1F
100
AcDbEntity
  8
0
  6
Continuous
 62
     7
370
    25
100
AcDbLine
 10
244.6479266119
 20
56.9563537366
 30
0.0
 11
231.9200045506
 21
44.2284316752
 31
0.0
  0
LINE
  5
F0
330
1F
100
AcDbEntity
  8
0
  6
Continuous
 62
     7
370
    25
100
AcDbLine
 10
244.9396081592
 20
56.6646721894
 30
0.0
 11
244.6479266119
 21
56.9563537366
 31
0.0
  0
LINE
  5
F1
330
1F
100
AcDbEntity
  8
0
  6
Continuous
 62
     7
370
    25
100
AcDbLine
 10
252.010675971
 20
63.7357400013
 30
0.0
 11
244.9396081592
 21
56.6646721894
 31
0.0
  0
ARC
  5
F2
330
1F
100
AcDbEntity
  8
0
  6
Continuous
 62
     7
370
    25
100
AcDbCircle
 10
253.1332079861
 20
62.6132079861
 30
0.0
 40
1.587500000047122
100
AcDbArc
 50
315.0
 51
134.9999999982
  0
LINE
  5
F3
330
1F
100
AcDbEntity
  8
0
  6
Continuous
 62
     7
370
    25
100
AcDbLine
 10
247.1846721894
 20
54.4196081591
 30
0.0
 11
254.2557400013
 21
61.4906759709
 31
0.0
  0
LINE
  5
F4
330
1F
100
AcDbEntity
  8
0
  6
Continuous
 62
     7
370
    25
100
AcDbLine
 10
247.4763537367
 20
54.1279266119
 30
0.0
 11
247.1846721894
 21
54.4196081591
 31
0.0
  0
LINE
  5
F5
330
1F
100
AcDbEntity
  8
0
  6
Continuous
 62
     7
370
    25
100
AcDbLine
 10
234.7484316753
 20
41.4000045505
 30
0.0
 11
247.4763537367
 21
54.1279266119
 31
0.0
  0
LINE
  5
F6
330
1F
100
AcDbEntity
  8
0
  6
Continuous
 62
     7
370
    25
100
AcDbLine
 10
234.4567501281
 20
41.6916860977
 30
0.0
 11
234.7484316753
 21
41.4000045505
 31
0.0
  0
LINE
  5
F7
330
1F
100
AcDbEntity
  8
0
  6
Continuous
 62
     7
370
    25
100
AcDbLine
 10
179.7556823162
 20
320.4006182859
 30
0.0
 11
186.8267501281
 21
327.4716860977
 31
0.0
  0
ARC
  5
F8
330
1F
100
AcDbEntity
  8
0
  6
Continuous
 62
     7
370
    25
100
AcDbCircle
 10
178.633150301
 20
321.523150301
 30
0.0
 40
1.587500000000079
100
AcDbArc
 50
135.0
 51
315.0000000024
  0
LINE
  5
F9
330
1F
100
AcDbEntity
  8
0
  6
Continuous
 62
     7
370
    25
100
AcDbLine
 10
184.5816860978
 20
329.716750128
 30
0.0
 11
177.5106182859
 21
322.6456823161
 31
0.0
  0
LINE
  5
FA
330
1F
100
AcDbEntity
  8
0
  6
Continuous
 62
     7
370
    25
100
AcDbLine
 10
184.2900045506
 20
330.0084316752
 30
0.0
 11
184.5816860978
 21
329.716750128
 31
0.0
  0
LINE
  5
FB
330
1F
100
AcDbEntity
  8
0
  6
Continuous
 62
     7
370
    25
100
AcDbLine
 10
197.0179266119
 20
342.7363537366
 30
0.0
 11
184.2900045506
 21
330.0084316752
 31
0.0
  0
LINE
  5
FC
330
1F
100
AcDbEntity
  8
0
  6
Continuous
 62
     7
370
    25
100
AcDbLine
 10
197.3096081592
 20
342.4446721894
 30
0.0
 11
197.0179266119
 21
342.7363537366
 31
0.0
  0
LINE
  5
FD
330
1F
100
AcDbEntity
  8
0
  6
Continuous
 62
     7
370
    25
100
AcDbLine
 10
204.380675971
 20
349.5157400013
 30
0.0
 11
197.3096081592
 21
342.4446721894
 31
0.0
  0
ARC
  5
FE
330
1F
100
AcDbEntity
  8
0
  6
Continuous
 62
     7
370
    25
100
AcDbCircle
 10
205.5032079861
 20
348.3932079861
 30
0.0
 40
1.587500000064993
100
AcDbArc
 50
315.0
 51
134.9999999976
  0
LINE
  5
FF
330
1F
100
AcDbEntity
  8
0
  6
Continuous
 62
     7
370
    25
100
AcDbLine
 10
199.5546721894
 20
340.1996081591
 30
0.0
 11
206.6257400013
 21
347.2706759709
 31
0.0
  0
LINE
  5
100
330
1F
100
AcDbEntity
  8
0
  6
Continuous
 62
     7
370
    25
100
AcDbLine
 10
199.8463537367
 20
339.9079266118
 30
0.0
 11
199.5546721894
 21
340.1996081591
 31
0.0
  0
LINE
  5
101
330
1F
100
AcDbEntity
  8
0
  6
Continuous
 62
     7
370
    25
100
AcDbLine
 10
187.1184316753
 20
327.1800045505
 30
0.0
 11
199.8463537367
 21
339.9079266118
 31
0.0
  0
LINE
  5
102
330
1F
100
AcDbEntity
  8
0
  6
Continuous
 62
     7
370
    25
100
AcDbLine
 10
186.8267501281
 20
327.4716860977
 30
0.0
 11
187.1184316753
 21
327.1800045505
 31
0.0
  0
LINE
  5
103
330
1F
100
AcDbEntity
  8
0
  6
Continuous
 62
     7
370
    25
100
AcDbLine
 10
204.380675971
 20
301.8857400013
 30
0.0
 11
197.3096081592
 21
294.8146721894
 31
0.0
  0
ARC
  5
104
330
1F
100
AcDbEntity
  8
0
  6
Continuous
 62
     7
370
    25
100
AcDbCircle
 10
205.5032079861
 20
300.7632079861
 30
0.0
 40
1.587500000064732
100
AcDbArc
 50
315.0
 51
134.9999999976
  0
LINE
  5
105
330
1F
100
AcDbEntity
  8
0
  6
Continuous
 62
     7
370
    25
100
AcDbLine
 10
199.5546721894
 20
292.5696081591
 30
0.0
 11
206.6257400013
 21
299.6406759709
 31
0.0
  0
LINE
  5
106
330
1F
100
AcDbEntity
  8
0
  6
Continuous
 62
     7
370
    25
100
AcDbLine
 10
199.8463537367
 20
292.2779266118
 30
0.0
 11
199.5546721894
 21
292.5696081591
 31
0.0
  0
LINE
  5
107
330
1F
100
AcDbEntity
  8
0
  6
Continuous
 62
     7
370
    25
100
AcDbLine
 10
187.1184316753
 20
279.5500045505
 30
0.0
 11
199.8463537367
 21
292.2779266118
 31
0.0
  0
LINE
  5
108
330
1F
100
AcDbEntity
  8
0
  6
Continuous
 62
     7
370
    25
100
AcDbLine
 10
186.8267501281
 20
279.8416860977
 30
0.0
 11
187.1184316753
 21
279.5500045505
 31
0.0
  0
LINE
  5
109
330
1F
100
AcDbEntity
  8
0
  6
Continuous
 62
     7
370
    25
100
AcDbLine
 10
179.7556823162
 20
272.7706182859
 30
0.0
 11
186.8267501281
 21
279.8416860977
 31
0.0
  0
ARC
  5
10A
330
1F
100
AcDbEntity
  8
0
  6
Continuous
 62
     7
370
    25
100
AcDbCircle
 10
178.633150301
 20
273.893150301
 30
0.0
 40
1.587500000000059
100
AcDbArc
 50
135.0
 51
315.0000000024
  0
LINE
  5
10B
330
1F
100
AcDbEntity
  8
0
  6
Continuous
 62
     7
370
    25
100
AcDbLine
 10
184.5816860978
 20
282.086750128
 30
0.0
 11
177.5106182859
 21
275.0156823161
 31
0.0
  0
LINE
  5
10C
330
1F
100
AcDbEntity
  8
0
  6
Continuous
 62
     7
370
    25
100
AcDbLine
 10
184.2900045506
 20
282.3784316752
 30
0.0
 11
184.5816860978
 21
282.086750128
 31
0.0
  0
LINE
  5
10D
330
1F
100
AcDbEntity
  8
0
  6
Continuous
 62
     7
370
    25
100
AcDbLine
 10
197.0179266119
 20
295.1063537366
 30
0.0
 11
184.2900045506
 21
282.3784316752
 31
0.0
  0
LINE
  5
10E
330
1F
100
AcDbEntity
  8
0
  6
Continuous
 62
     7
370
    25
100
AcDbLine
 10
197.3096081592
 20
294.8146721894
 30
0.0
 11
197.0179266119
 21
295.1063537366
 31
0.0
  0
LINE
  5
10F
330
1F
100
AcDbEntity
  8
0
  6
Continuous
 62
     7
370
    25
100
AcDbLine
 10
204.380675971
 20
254.2557400013
 30
0.0
 11
197.3096081592
 21
247.1846721894
 31
0.0
  0
ARC
  5
110
330
1F
100
AcDbEntity
  8
0
  6
Continuous
 62
     7
370
    25
100
AcDbCircle
 10
205.5032079861
 20
253.1332079861
 30
0.0
 40
1.587500000064471
100
AcDbArc
 50
315.0
 51
134.9999999976
  0
LINE
  5
111
330
1F
100
AcDbEntity
  8
0
  6
Continuous
 62
     7
370
    25
100
AcDbLine
 10
199.5546721894
 20
244.9396081591
 30
0.0
 11
206.6257400013
 21
252.0106759709
 31
0.0
  0
LINE
  5
112
330
1F
100
AcDbEntity
  8
0
  6
Continuous
 62
     7
370
    25
100
AcDbLine
 10
199.8463537367
 20
244.6479266118
 30
0.0
 11
199.5546721894
 21
244.9396081591
 31
0.0
  0
LINE
  5
113
330
1F
100
AcDbEntity
  8
0
  6
Continuous
 62
     7
370
    25
100
AcDbLine
 10
187.1184316753
 20
231.9200045505
 30
0.0
 11
199.8463537367
 21
244.6479266118
 31
0.0
  0
LINE
  5
114
330
1F
100
AcDbEntity
  8
0
  6
Continuous
 62
     7
370
    25
100
AcDbLine
 10
186.8267501281
 20
232.2116860977
 30
0.0
 11
187.1184316753
 21
231.9200045505
 31
0.0
  0
LINE
  5
115
330
1F
100
AcDbEntity
  8
0
  6
Continuous
 62
     7
370
    25
100
AcDbLine
 10
179.7556823162
 20
225.1406182859
 30
0.0
 11
186.8267501281
 21
232.2116860977
 31
0.0
  0
ARC
  5
116
330
1F
100
AcDbEntity
  8
0
  6
Continuous
 62
     7
370
    25
100
AcDbCircle
 10
178.633150301
 20
226.263150301
 30
0.0
 40
1.587500000000039
100
AcDbArc
 50
135.0
 51
315.0000000024
  0
LINE
  5
117
330
1F
100
AcDbEntity
  8
0
  6
Continuous
 62
     7
370
    25
100
AcDbLine
 10
184.5816860978
 20
234.456750128
 30
0.0
 11
177.5106182859
 21
227.3856823161
 31
0.0
  0
LINE
  5
118
330
1F
100
AcDbEntity
  8
0
  6
Continuous
 62
     7
370
    25
100
AcDbLine
 10
184.2900045506
 20
234.7484316752
 30
0.0
 11
184.5816860978
 21
234.456750128
 31
0.0
  0
LINE
  5
119
330
1F
100
AcDbEntity
  8
0
  6
Continuous
 62
     7
370
    25
100
AcDbLine
 10
197.0179266119
 20
247.4763537366
 30
0.0
 11
184.2900045506
 21
234.7484316752
 31
0.0
  0
LINE
  5
11A
330
1F
100
AcDbEntity
  8
0
  6
Continuous
 62
     7
370
    25
100
AcDbLine
 10
197.3096081592
 20
247.1846721894
 30
0.0
 11
197.0179266119
 21
247.4763537366
 31
0.0
  0
LINE
  5
11B
330
1F
100
AcDbEntity
  8
0
  6
Continuous
 62
     7
370
    25
100
AcDbLine
 10
204.380675971
 20
206.6257400013
 30
0.0
 11
197.3096081592
 21
199.5546721894
 31
0.0
  0
ARC
  5
11C
330
1F
100
AcDbEntity
  8
0
  6
Continuous
 62
     7
370
    25
100
AcDbCircle
 10
205.5032079861
 20
205.5032079861
 30
0.0
 40
1.587500000064209
100
AcDbArc
 50
315.0
 51
134.9999999976
  0
LINE
  5
11D
330
1F
100
AcDbEntity
  8
0
  6
Continuous
 62
     7
370
    25
100
AcDbLine
 10
199.5546721894
 20
197.3096081591
 30
0.0
 11
206.6257400013
 21
204.3806759709
 31
0.0
  0
LINE
  5
11E
330
1F
100
AcDbEntity
  8
0
  6
Continuous
 62
     7
370
    25
100
AcDbLine
 10
199.8463537367
 20
197.0179266119
 30
0.0
 11
199.5546721894
 21
197.3096081591
 31
0.0
  0
LINE
  5
11F
330
1F
100
AcDbEntity
  8
0
  6
Continuous
 62
     7
370
    25
100
AcDbLine
 10
187.1184316753
 20
184.2900045505
 30
0.0
 11
199.8463537367
 21
197.0179266119
 31
0.0
  0
LINE
  5
120
330
1F
100
AcDbEntity
  8
0
  6
Continuous
 62
     7
370
    25
100
AcDbLine
 10
186.8267501281
 20
184.5816860977
 30
0.0
 11
187.1184316753
 21
184.2900045505
 31
0.0
  0
LINE
  5
121
330
1F
100
AcDbEntity
  8
0
  6
Continuous
 62
     7
370
    25
100
AcDbLine
 10
179.7556823162
 20
177.5106182859
 30
0.0
 11
186.8267501281
 21
184.5816860977
 31
0.0
  0
ARC
  5
122
330
1F
100
AcDbEntity
  8
0
  6
Continuous
 62
     7
370
    25
100
AcDbCircle
 10
178.633150301
 20
178.633150301
 30
0.0
 40
1.587500000000039
100
AcDbArc
 50
135.0
 51
315.0000000024
  0
LINE
  5
123
330
1F
100
AcDbEntity
  8
0
  6
Continuous
 62
     7
370
    25
100
AcDbLine
 10
184.5816860978
 20
186.826750128
 30
0.0
 11
177.5106182859
 21
179.7556823161
 31
0.0
  0
LINE
  5
124
330
1F
100
AcDbEntity
  8
0
  6
Continuous
 62
     7
370
    25
100
AcDbLine
 10
184.2900045506
 20
187.1184316752
 30
0.0
 11
184.5816860978
 21
186.826750128
 31
0.0
  0
LINE
  5
125
330
1F
100
AcDbEntity
  8
0
  6
Continuous
 62
     7
370
    25
100
AcDbLine
 10
197.0179266119
 20
199.8463537366
 30
0.0
 11
184.2900045506
 21
187.1184316752
 31
0.0
  0
LINE
  5
126
330
1F
100
AcDbEntity
  8
0
  6
Continuous
 62
     7
370
    25
100
AcDbLine
 10
197.3096081592
 20
199.5546721894
 30
0.0
 11
197.0179266119
 21
199.8463537366
 31
0.0
  0
LINE
  5
127
330
1F
100
AcDbEntity
  8
0
  6
Continuous
 62
     7
370
    25
100
AcDbLine
 10
394.900675971
 20
158.9957400012
 30
0.0
 11
387.8296081591
 21
151.9246721894
 31
0.0
  0
ARC
  5
128
330
1F
100
AcDbEntity
  8
0
  6
Continuous
 62
     7
370
    25
100
AcDbCircle
 10
396.0232079861
 20
157.8732079861
 30
0.0
 40
1.587499999999979
100
AcDbArc
 50
315.0
 51
135.0
  0
LINE
  5
129
330
1F
100
AcDbEntity
  8
0
  6
Continuous
 62
     7
370
    25
100
AcDbLine
 10
390.0746721894
 20
149.6796081591
 30
0.0
 11
397.1457400012
 21
156.750675971
 31
0.0
  0
LINE
  5
12A
330
1F
100
AcDbEntity
  8
0
  6
Continuous
 62
     7
370
    25
100
AcDbLine
 10
390.3663537366
 20
149.3879266119
 30
0.0
 11
390.0746721894
 21
149.6796081591
 31
0.0
  0
LINE
  5
12B
330
1F
100
AcDbEntity
  8
0
  6
Continuous
 62
     7
370
    25
100
AcDbLine
 10
377.6384316752
 20
136.6600045505
 30
0.0
 11
390.3663537366
 21
149.3879266119
 31
0.0
  0
LINE
  5
12C
330
1F
100
AcDbEntity
  8
0
  6
Continuous
 62
     7
370
    25
100
AcDbLine
 10
377.346750128
 20
136.9516860977
 30
0.0
 11
377.6384316752
 21
136.6600045505
 31
0.0
  0
LINE
  5
12D
330
1F
100
AcDbEntity
  8
0
  6
Continuous
 62
     7
370
    25
100
AcDbLine
 10
370.2756823161
 20
129.8806182859
 30
0.0
 11
377.346750128
 21
136.9516860977
 31
0.0
  0
ARC
  5
12E
330
1F
100
AcDbEntity
  8
0
  6
Continuous
 62
     7
370
    25
100
AcDbCircle
 10
369.153150301
 20
131.003150301
 30
0.0
 40
1.587500000000019
100
AcDbArc
 50
135.0
 51
315.0
  0
LINE
  5
12F
330
1F
100
AcDbEntity
  8
0
  6
Continuous
 62
     7
370
    25
100
AcDbLine
 10
375.1016860977
 20
139.196750128
 30
0.0
 11
368.0306182859
 21
132.1256823161
 31
0.0
  0
LINE
  5
130
330
1F
100
AcDbEntity
  8
0
  6
Continuous
 62
     7
370
    25
100
AcDbLine
 10
374.8100045505
 20
139.4884316752
 30
0.0
 11
375.1016860977
 21
139.196750128
 31
0.0
  0
LINE
  5
131
330
1F
100
AcDbEntity
  8
0
  6
Continuous
 62
     7
370
    25
100
AcDbLine
 10
387.5379266118
 20
152.2163537366
 30
0.0
 11
374.8100045505
 21
139.4884316752
 31
0.0
  0
LINE
  5
132
330
1F
100
AcDbEntity
  8
0
  6
Continuous
 62
     7
370
    25
100
AcDbLine
 10
387.8296081591
 20
151.9246721894
 30
0.0
 11
387.5379266118
 21
152.2163537366
 31
0.0
  0
LINE
  5
133
330
1F
100
AcDbEntity
  8
0
  6
Continuous
 62
     7
370
    25
100
AcDbLine
 10
394.900675971
 20
111.3657400012
 30
0.0
 11
387.8296081591
 21
104.2946721894
 31
0.0
  0
ARC
  5
134
330
1F
100
AcDbEntity
  8
0
  6
Continuous
 62
     7
370
    25
100
AcDbCircle
 10
396.0232079861
 20
110.2432079861
 30
0.0
 40
1.587499999999979
100
AcDbArc
 50
315.0
 51
135.0
  0
LINE
  5
135
330
1F
100
AcDbEntity
  8
0
  6
Continuous
 62
     7
370
    25
100
AcDbLine
 10
390.0746721894
 20
102.0496081591
 30
0.0
 11
397.1457400012
 21
109.120675971
 31
0.0
  0
LINE
  5
136
330
1F
100
AcDbEntity
  8
0
  6
Continuous
 62
     7
370
    25
100
AcDbLine
 10
390.3663537366
 20
101.7579266119
 30
0.0
 11
390.0746721894
 21
102.0496081591
 31
0.0
  0
LINE
  5
137
330
1F
100
AcDbEntity
  8
0
  6
Continuous
 62
     7
370
    25
100
AcDbLine
 10
377.6384316752
 20
89.0300045505
 30
0.0
 11
390.3663537366
 21
101.7579266119
 31
0.0
  0
LINE
  5
138
330
1F
100
AcDbEntity
  8
0
  6
Continuous
 62
     7
370
    25
100
AcDbLine
 10
377.346750128
 20
89.3216860977
 30
0.0
 11
377.6384316752
 21
89.0300045505
 31
0.0
  0
LINE
  5
139
330
1F
100
AcDbEntity
  8
0
  6
Continuous
 62
     7
370
    25
100
AcDbLine
 10
370.2756823161
 20
82.2506182859
 30
0.0
 11
377.346750128
 21
89.3216860977
 31
0.0
  0
ARC
  5
13A
330
1F
100
AcDbEntity
  8
0
  6
Continuous
 62
     7
370
    25
100
AcDbCircle
 10
369.153150301
 20
83.373150301
 30
0.0
 40
1.587500000000049
100
AcDbArc
 50
135.0
 51
315.0
  0
LINE
  5
13B
330
1F
100
AcDbEntity
  8
0
  6
Continuous
 62
     7
370
    25
100
AcDbLine
 10
375.1016860977
 20
91.566750128
 30
0.0
 11
368.0306182859
 21
84.4956823161
 31
0.0
  0
LINE
  5
13C
330
1F
100
AcDbEntity
  8
0
  6
Continuous
 62
     7
370
    25
100
AcDbLine
 10
374.8100045505
 20
91.8584316752
 30
0.0
 11
375.1016860977
 21
91.566750128
 31
0.0
  0
LINE
  5
13D
330
1F
100
AcDbEntity
  8
0
  6
Continuous
 62
     7
370
    25
100
AcDbLine
 10
387.5379266118
 20
104.5863537366
 30
0.0
 11
374.8100045505
 21
91.8584316752
 31
0.0
  0
LINE
  5
13E
330
1F
100
AcDbEntity
  8
0
  6
Continuous
 62
     7
370
    25
100
AcDbLine
 10
387.8296081591
 20
104.2946721894
 30
0.0
 11
387.5379266118
 21
104.5863537366
 31
0.0
  0
LINE
  5
13F
330
1F
100
AcDbEntity
  8
0
  6
Continuous
 62
     7
370
    25
100
AcDbLine
 10
370.2756823161
 20
34.6206182859
 30
0.0
 11
377.346750128
 21
41.6916860977
 31
0.0
  0
ARC
  5
140
330
1F
100
AcDbEntity
  8
0
  6
Continuous
 62
     7
370
    25
100
AcDbCircle
 10
369.153150301
 20
35.743150301
 30
0.0
 40
1.587500000000054
100
AcDbArc
 50
135.0
 51
315.0
  0
LINE
  5
141
330
1F
100
AcDbEntity
  8
0
  6
Continuous
 62
     7
370
    25
100
AcDbLine
 10
375.1016860977
 20
43.936750128
 30
0.0
 11
368.0306182859
 21
36.8656823161
 31
0.0
  0
LINE
  5
142
330
1F
100
AcDbEntity
  8
0
  6
Continuous
 62
     7
370
    25
100
AcDbLine
 10
374.8100045505
 20
44.2284316752
 30
0.0
 11
375.1016860977
 21
43.936750128
 31
0.0
  0
LINE
  5
143
330
1F
100
AcDbEntity
  8
0
  6
Continuous
 62
     7
370
    25
100
AcDbLine
 10
387.5379266118
 20
56.9563537366
 30
0.0
 11
374.8100045505
 21
44.2284316752
 31
0.0
  0
LINE
  5
144
330
1F
100
AcDbEntity
  8
0
  6
Continuous
 62
     7
370
    25
100
AcDbLine
 10
387.8296081591
 20
56.6646721894
 30
0.0
 11
387.5379266118
 21
56.9563537366
 31
0.0
  0
LINE
  5
145
330
1F
100
AcDbEntity
  8
0
  6
Continuous
 62
     7
370
    25
100
AcDbLine
 10
394.900675971
 20
63.7357400012
 30
0.0
 11
387.8296081591
 21
56.6646721894
 31
0.0
  0
ARC
  5
146
330
1F
100
AcDbEntity
  8
0
  6
Continuous
 62
     7
370
    25
100
AcDbCircle
 10
396.0232079861
 20
62.6132079861
 30
0.0
 40
1.587499999999979
100
AcDbArc
 50
315.0
 51
135.0
  0
LINE
  5
147
330
1F
100
AcDbEntity
  8
0
  6
Continuous
 62
     7
370
    25
100
AcDbLine
 10
390.0746721894
 20
54.4196081591
 30
0.0
 11
397.1457400012
 21
61.490675971
 31
0.0
  0
LINE
  5
148
330
1F
100
AcDbEntity
  8
0
  6
Continuous
 62
     7
370
    25
100
AcDbLine
 10
390.3663537366
 20
54.1279266119
 30
0.0
 11
390.0746721894
 21
54.4196081591
 31
0.0
  0
LINE
  5
149
330
1F
100
AcDbEntity
  8
0
  6
Continuous
 62
     7
370
    25
100
AcDbLine
 10
377.6384316752
 20
41.4000045505
 30
0.0
 11
390.3663537366
 21
54.1279266119
 31
0.0
  0
LINE
  5
14A
330
1F
100
AcDbEntity
  8
0
  6
Continuous
 62
     7
370
    25
100
AcDbLine
 10
377.346750128
 20
41.6916860977
 30
0.0
 11
377.6384316752
 21
41.4000045505
 31
0.0
  0
LINE
  5
14B
330
1F
100
AcDbEntity
  8
0
  6
Continuous
 62
     7
370
    25
100
AcDbLine
 10
347.270675971
 20
349.5157400012
 30
0.0
 11
340.1996081591
 21
342.4446721894
 31
0.0
  0
ARC
  5
14C
330
1F
100
AcDbEntity
  8
0
  6
Continuous
 62
     7
370
    25
100
AcDbCircle
 10
348.3932079861
 20
348.3932079861
 30
0.0
 40
1.587500000016056
100
AcDbArc
 50
315.0
 51
134.9999999994
  0
LINE
  5
14D
330
1F
100
AcDbEntity
  8
0
  6
Continuous
 62
     7
370
    25
100
AcDbLine
 10
342.4446721894
 20
340.1996081591
 30
0.0
 11
349.5157400012
 21
347.2706759709
 31
0.0
  0
LINE
  5
14E
330
1F
100
AcDbEntity
  8
0
  6
Continuous
 62
     7
370
    25
100
AcDbLine
 10
342.7363537366
 20
339.9079266118
 30
0.0
 11
342.4446721894
 21
340.1996081591
 31
0.0
  0
LINE
  5
14F
330
1F
100
AcDbEntity
  8
0
  6
Continuous
 62
     7
370
    25
100
AcDbLine
 10
330.0084316753
 20
327.1800045505
 30
0.0
 11
342.7363537366
 21
339.9079266118
 31
0.0
  0
LINE
  5
150
330
1F
100
AcDbEntity
  8
0
  6
Continuous
 62
     7
370
    25
100
AcDbLine
 10
329.716750128
 20
327.4716860977
 30
0.0
 11
330.0084316753
 21
327.1800045505
 31
0.0
  0
LINE
  5
151
330
1F
100
AcDbEntity
  8
0
  6
Continuous
 62
     7
370
    25
100
AcDbLine
 10
322.6456823161
 20
320.4006182859
 30
0.0
 11
329.716750128
 21
327.4716860977
 31
0.0
  0
ARC
  5
152
330
1F
100
AcDbEntity
  8
0
  6
Continuous
 62
     7
370
    25
100
AcDbCircle
 10
321.523150301
 20
321.523150301
 30
0.0
 40
1.587500000000019
100
AcDbArc
 50
135.0
 51
315.0000000006
  0
LINE
  5
153
330
1F
100
AcDbEntity
  8
0
  6
Continuous
 62
     7
370
    25
100
AcDbLine
 10
327.4716860978
 20
329.716750128
 30
0.0
 11
320.4006182859
 21
322.6456823161
 31
0.0
  0
LINE
  5
154
330
1F
100
AcDbEntity
  8
0
  6
Continuous
 62
     7
370
    25
100
AcDbLine
 10
327.1800045505
 20
330.0084316752
 30
0.0
 11
327.4716860978
 21
329.716750128
 31
0.0
  0
LINE
  5
155
330
1F
100
AcDbEntity
  8
0
  6
Continuous
 62
     7
370
    25
100
AcDbLine
 10
339.9079266119
 20
342.7363537366
 30
0.0
 11
327.1800045505
 21
330.0084316752
 31
0.0
  0
LINE
  5
156
330
1F
100
AcDbEntity
  8
0
  6
Continuous
 62
     7
370
    25
100
AcDbLine
 10
340.1996081591
 20
342.4446721894
 30
0.0
 11
339.9079266119
 21
342.7363537366
 31
0.0
  0
LINE
  5
157
330
1F
100
AcDbEntity
  8
0
  6
Continuous
 62
     7
370
    25
100
AcDbLine
 10
370.2756823161
 20
177.5106182859
 30
0.0
 11
377.346750128
 21
184.5816860977
 31
0.0
  0
ARC
  5
158
330
1F
100
AcDbEntity
  8
0
  6
Continuous
 62
     7
370
    25
100
AcDbCircle
 10
369.153150301
 20
178.633150301
 30
0.0
 40
1.587500000000059
100
AcDbArc
 50
135.0
 51
315.0
  0
LINE
  5
159
330
1F
100
AcDbEntity
  8
0
  6
Continuous
 62
     7
370
    25
100
AcDbLine
 10
375.1016860977
 20
186.826750128
 30
0.0
 11
368.0306182859
 21
179.7556823161
 31
0.0
  0
LINE
  5
15A
330
1F
100
AcDbEntity
  8
0
  6
Continuous
 62
     7
370
    25
100
AcDbLine
 10
374.8100045505
 20
187.1184316752
 30
0.0
 11
375.1016860977
 21
186.826750128
 31
0.0
  0
LINE
  5
15B
330
1F
100
AcDbEntity
  8
0
  6
Continuous
 62
     7
370
    25
100
AcDbLine
 10
387.5379266118
 20
199.8463537366
 30
0.0
 11
374.8100045505
 21
187.1184316752
 31
0.0
  0
LINE
  5
15C
330
1F
100
AcDbEntity
  8
0
  6
Continuous
 62
     7
370
    25
100
AcDbLine
 10
387.8296081591
 20
199.5546721894
 30
0.0
 11
387.5379266118
 21
199.8463537366
 31
0.0
  0
LINE
  5
15D
330
1F
100
AcDbEntity
  8
0
  6
Continuous
 62
     7
370
    25
100
AcDbLine
 10
394.900675971
 20
206.6257400012
 30
0.0
 11
387.8296081591
 21
199.5546721894
 31
0.0
  0
ARC
  5
15E
330
1F
100
AcDbEntity
  8
0
  6
Continuous
 62
     7
370
    25
100
AcDbCircle
 10
396.0232079861
 20
205.5032079861
 30
0.0
 40
1.587500000000019
100
AcDbArc
 50
315.0
 51
135.0
  0
LINE
  5
15F
330
1F
100
AcDbEntity
  8
0
  6
Continuous
 62
     7
370
    25
100
AcDbLine
 10
390.0746721894
 20
197.3096081591
 30
0.0
 11
397.1457400012
 21
204.380675971
 31
0.0
  0
LINE
  5
160
330
1F
100
AcDbEntity
  8
0
  6
Continuous
 62
     7
370
    25
100
AcDbLine
 10
390.3663537366
 20
197.0179266119
 30
0.0
 11
390.0746721894
 21
197.3096081591
 31
0.0
  0
LINE
  5
161
330
1F
100
AcDbEntity
  8
0
  6
Continuous
 62
     7
370
    25
100
AcDbLine
 10
377.6384316752
 20
184.2900045505
 30
0.0
 11
390.3663537366
 21
197.0179266119
 31
0.0
  0
LINE
  5
162
330
1F
100
AcDbEntity
  8
0
  6
Continuous
 62
     7
370
    25
100
AcDbLine
 10
377.346750128
 20
184.5816860977
 30
0.0
 11
377.6384316752
 21
184.2900045505
 31
0.0
  0
LINE
  5
163
330
1F
100
AcDbEntity
  8
0
  6
Continuous
 62
     7
370
    25
100
AcDbLine
 10
370.2756823161
 20
225.1406182859
 30
0.0
 11
377.346750128
 21
232.2116860977
 31
0.0
  0
ARC
  5
164
330
1F
100
AcDbEntity
  8
0
  6
Continuous
 62
     7
370
    25
100
AcDbCircle
 10
369.153150301
 20
226.263150301
 30
0.0
 40
1.587500000000059
100
AcDbArc
 50
135.0
 51
315.0
  0
LINE
  5
165
330
1F
100
AcDbEntity
  8
0
  6
Continuous
 62
     7
370
    25
100
AcDbLine
 10
375.1016860977
 20
234.456750128
 30
0.0
 11
368.0306182859
 21
227.3856823161
 31
0.0
  0
LINE
  5
166
330
1F
100
AcDbEntity
  8
0
  6
Continuous
 62
     7
370
    25
100
AcDbLine
 10
374.8100045505
 20
234.7484316752
 30
0.0
 11
375.1016860977
 21
234.456750128
 31
0.0
  0
LINE
  5
167
330
1F
100
AcDbEntity
  8
0
  6
Continuous
 62
     7
370
    25
100
AcDbLine
 10
387.5379266118
 20
247.4763537366
 30
0.0
 11
374.8100045505
 21
234.7484316752
 31
0.0
  0
LINE
  5
168
330
1F
100
AcDbEntity
  8
0
  6
Continuous
 62
     7
370
    25
100
AcDbLine
 10
387.8296081591
 20
247.1846721894
 30
0.0
 11
387.5379266118
 21
247.4763537366
 31
0.0
  0
LINE
  5
169
330
1F
100
AcDbEntity
  8
0
  6
Continuous
 62
     7
370
    25
100
AcDbLine
 10
394.900675971
 20
254.2557400012
 30
0.0
 11
387.8296081591
 21
247.1846721894
 31
0.0
  0
ARC
  5
16A
330
1F
100
AcDbEntity
  8
0
  6
Continuous
 62
     7
370
    25
100
AcDbCircle
 10
396.0232079861
 20
253.1332079861
 30
0.0
 40
1.587500000000019
100
AcDbArc
 50
315.0
 51
135.0
  0
LINE
  5
16B
330
1F
100
AcDbEntity
  8
0
  6
Continuous
 62
     7
370
    25
100
AcDbLine
 10
390.0746721894
 20
244.9396081591
 30
0.0
 11
397.1457400012
 21
252.010675971
 31
0.0
  0
LINE
  5
16C
330
1F
100
AcDbEntity
  8
0
  6
Continuous
 62
     7
370
    25
100
AcDbLine
 10
390.3663537366
 20
244.6479266118
 30
0.0
 11
390.0746721894
 21
244.9396081591
 31
0.0
  0
LINE
  5
16D
330
1F
100
AcDbEntity
  8
0
  6
Continuous
 62
     7
370
    25
100
AcDbLine
 10
377.6384316752
 20
231.9200045505
 30
0.0
 11
390.3663537366
 21
244.6479266118
 31
0.0
  0
LINE
  5
16E
330
1F
100
AcDbEntity
  8
0
  6
Continuous
 62
     7
370
    25
100
AcDbLine
 10
377.346750128
 20
232.2116860977
 30
0.0
 11
377.6384316752
 21
231.9200045505
 31
0.0
  0
LINE
  5
16F
330
1F
100
AcDbEntity
  8
0
  6
Continuous
 62
     7
370
    25
100
AcDbLine
 10
370.2756823161
 20
272.7706182859
 30
0.0
 11
377.346750128
 21
279.8416860977
 31
0.0
  0
ARC
  5
170
330
1F
100
AcDbEntity
  8
0
  6
Continuous
 62
     7
370
    25
100
AcDbCircle
 10
369.153150301
 20
273.893150301
 30
0.0
 40
1.587500000000019
100
AcDbArc
 50
135.0
 51
315.0
  0
LINE
  5
171
330
1F
100
AcDbEntity
  8
0
  6
Continuous
 62
     7
370
    25
100
AcDbLine
 10
375.1016860977
 20
282.086750128
 30
0.0
 11
368.0306182859
 21
275.0156823161
 31
0.0
  0
LINE
  5
172
330
1F
100
AcDbEntity
  8
0
  6
Continuous
 62
     7
370
    25
100
AcDbLine
 10
374.8100045505
 20
282.3784316752
 30
0.0
 11
375.1016860977
 21
282.086750128
 31
0.0
  0
LINE
  5
173
330
1F
100
AcDbEntity
  8
0
  6
Continuous
 62
     7
370
    25
100
AcDbLine
 10
387.5379266118
 20
295.1063537366
 30
0.0
 11
374.8100045505
 21
282.3784316752
 31
0.0
  0
LINE
  5
174
330
1F
100
AcDbEntity
  8
0
  6
Continuous
 62
     7
370
    25
100
AcDbLine
 10
387.8296081591
 20
294.8146721894
 30
0.0
 11
387.5379266118
 21
295.1063537366
 31
0.0
  0
LINE
  5
175
330
1F
100
AcDbEntity
  8
0
  6
Continuous
 62
     7
370
    25
100
AcDbLine
 10
394.900675971
 20
301.8857400012
 30
0.0
 11
387.8296081591
 21
294.8146721894
 31
0.0
  0
ARC
  5
176
330
1F
100
AcDbEntity
  8
0
  6
Continuous
 62
     7
370
    25
100
AcDbCircle
 10
396.0232079861
 20
300.7632079861
 30
0.0
 40
1.587500000000019
100
AcDbArc
 50
315.0
 51
135.0
  0
LINE
  5
177
330
1F
100
AcDbEntity
  8
0
  6
Continuous
 62
     7
370
    25
100
AcDbLine
 10
390.0746721894
 20
292.5696081591
 30
0.0
 11
397.1457400012
 21
299.640675971
 31
0.0
  0
LINE
  5
178
330
1F
100
AcDbEntity
  8
0
  6
Continuous
 62
     7
370
    25
100
AcDbLine
 10
390.3663537366
 20
292.2779266118
 30
0.0
 11
390.0746721894
 21
292.5696081591
 31
0.0
  0
LINE
  5
179
330
1F
100
AcDbEntity
  8
0
  6
Continuous
 62
     7
370
    25
100
AcDbLine
 10
377.6384316752
 20
279.5500045505
 30
0.0
 11
390.3663537366
 21
292.2779266118
 31
0.0
  0
LINE
  5
17A
330
1F
100
AcDbEntity
  8
0
  6
Continuous
 62
     7
370
    25
100
AcDbLine
 10
377.346750128
 20
279.8416860977
 30
0.0
 11
377.6384316752
 21
279.5500045505
 31
0.0
  0
LINE
  5
17B
330
1F
100
AcDbEntity
  8
0
  6
Continuous
 62
     7
370
    25
100
AcDbLine
 10
370.2756823161
 20
320.4006182859
 30
0.0
 11
377.346750128
 21
327.4716860977
 31
0.0
  0
ARC
  5
17C
330
1F
100
AcDbEntity
  8
0
  6
Continuous
 62
     7
370
    25
100
AcDbCircle
 10
369.153150301
 20
321.523150301
 30
0.0
 40
1.587500000000059
100
AcDbArc
 50
135.0
 51
315.0
  0
LINE
  5
17D
330
1F
100
AcDbEntity
  8
0
  6
Continuous
 62
     7
370
    25
100
AcDbLine
 10
375.1016860977
 20
329.716750128
 30
0.0
 11
368.0306182859
 21
322.6456823161
 31
0.0
  0
LINE
  5
17E
330
1F
100
AcDbEntity
  8
0
  6
Continuous
 62
     7
370
    25
100
AcDbLine
 10
374.8100045505
 20
330.0084316752
 30
0.0
 11
375.1016860977
 21
329.716750128
 31
0.0
  0
LINE
  5
17F
330
1F
100
AcDbEntity
  8
0
  6
Continuous
 62
     7
370
    25
100
AcDbLine
 10
387.5379266118
 20
342.7363537366
 30
0.0
 11
374.8100045505
 21
330.0084316752
 31
0.0
  0
LINE
  5
180
330
1F
100
AcDbEntity
  8
0
  6
Continuous
 62
     7
370
    25
100
AcDbLine
 10
387.8296081591
 20
342.4446721894
 30
0.0
 11
387.5379266118
 21
342.7363537366
 31
0.0
  0
LINE
  5
181
330
1F
100
AcDbEntity
  8
0
  6
Continuous
 62
     7
370
    25
100
AcDbLine
 10
394.900675971
 20
349.5157400012
 30
0.0
 11
387.8296081591
 21
342.4446721894
 31
0.0
  0
ARC
  5
182
330
1F
100
AcDbEntity
  8
0
  6
Continuous
 62
     7
370
    25
100
AcDbCircle
 10
396.0232079861
 20
348.3932079861
 30
0.0
 40
1.587500000000019
100
AcDbArc
 50
315.0
 51
135.0
  0
LINE
  5
183
330
1F
100
AcDbEntity
  8
0
  6
Continuous
 62
     7
370
    25
100
AcDbLine
 10
390.0746721894
 20
340.1996081591
 30
0.0
 11
397.1457400012
 21
347.270675971
 31
0.0
  0
LINE
  5
184
330
1F
100
AcDbEntity
  8
0
  6
Continuous
 62
     7
370
    25
100
AcDbLine
 10
390.3663537366
 20
339.9079266118
 30
0.0
 11
390.0746721894
 21
340.1996081591
 31
0.0
  0
LINE
  5
185
330
1F
100
AcDbEntity
  8
0
  6
Continuous
 62
     7
370
    25
100
AcDbLine
 10
377.6384316752
 20
327.1800045505
 30
0.0
 11
390.3663537366
 21
339.9079266118
 31
0.0
  0
LINE
  5
186
330
1F
100
AcDbEntity
  8
0
  6
Continuous
 62
     7
370
    25
100
AcDbLine
 10
377.346750128
 20
327.4716860977
 30
0.0
 11
377.6384316752
 21
327.1800045505
 31
0.0
  0
LINE
  5
187
330
1F
100
AcDbEntity
  8
0
  6
Continuous
 62
     7
370
    25
100
AcDbLine
 10
275.0156823162
 20
272.7706182859
 30
0.0
 11
282.086750128
 21
279.8416860977
 31
0.0
  0
ARC
  5
188
330
1F
100
AcDbEntity
  8
0
  6
Continuous
 62
     7
370
    25
100
AcDbCircle
 10
273.893150301
 20
273.893150301
 30
0.0
 40
1.587500000000019
100
AcDbArc
 50
135.0
 51
315.0000000012
  0
LINE
  5
189
330
1F
100
AcDbEntity
  8
0
  6
Continuous
 62
     7
370
    25
100
AcDbLine
 10
279.8416860978
 20
282.086750128
 30
0.0
 11
272.7706182859
 21
275.0156823161
 31
0.0
  0
LINE
  5
18A
330
1F
100
AcDbEntity
  8
0
  6
Continuous
 62
     7
370
    25
100
AcDbLine
 10
279.5500045505
 20
282.3784316752
 30
0.0
 11
279.8416860978
 21
282.086750128
 31
0.0
  0
LINE
  5
18B
330
1F
100
AcDbEntity
  8
0
  6
Continuous
 62
     7
370
    25
100
AcDbLine
 10
292.2779266119
 20
295.1063537366
 30
0.0
 11
279.5500045505
 21
282.3784316752
 31
0.0
  0
LINE
  5
18C
330
1F
100
AcDbEntity
  8
0
  6
Continuous
 62
     7
370
    25
100
AcDbLine
 10
292.5696081591
 20
294.8146721894
 30
0.0
 11
292.2779266119
 21
295.1063537366
 31
0.0
  0
LINE
  5
18D
330
1F
100
AcDbEntity
  8
0
  6
Continuous
 62
     7
370
    25
100
AcDbLine
 10
299.640675971
 20
301.8857400012
 30
0.0
 11
292.5696081591
 21
294.8146721894
 31
0.0
  0
ARC
  5
18E
330
1F
100
AcDbEntity
  8
0
  6
Continuous
 62
     7
370
    25
100
AcDbCircle
 10
300.7632079861
 20
300.7632079861
 30
0.0
 40
1.587500000032094
100
AcDbArc
 50
315.0
 51
134.9999999988
  0
LINE
  5
18F
330
1F
100
AcDbEntity
  8
0
  6
Continuous
 62
     7
370
    25
100
AcDbLine
 10
294.8146721894
 20
292.5696081591
 30
0.0
 11
301.8857400012
 21
299.6406759709
 31
0.0
  0
LINE
  5
190
330
1F
100
AcDbEntity
  8
0
  6
Continuous
 62
     7
370
    25
100
AcDbLine
 10
295.1063537366
 20
292.2779266118
 30
0.0
 11
294.8146721894
 21
292.5696081591
 31
0.0
  0
LINE
  5
191
330
1F
100
AcDbEntity
  8
0
  6
Continuous
 62
     7
370
    25
100
AcDbLine
 10
282.3784316753
 20
279.5500045505
 30
0.0
 11
295.1063537366
 21
292.2779266118
 31
0.0
  0
LINE
  5
192
330
1F
100
AcDbEntity
  8
0
  6
Continuous
 62
     7
370
    25
100
AcDbLine
 10
282.086750128
 20
279.8416860977
 30
0.0
 11
282.3784316753
 21
279.5500045505
 31
0.0
  0
LINE
  5
193
330
1F
100
AcDbEntity
  8
0
  6
Continuous
 62
     7
370
    25
100
AcDbLine
 10
275.0156823162
 20
320.4006182859
 30
0.0
 11
282.086750128
 21
327.4716860977
 31
0.0
  0
ARC
  5
194
330
1F
100
AcDbEntity
  8
0
  6
Continuous
 62
     7
370
    25
100
AcDbCircle
 10
273.893150301
 20
321.523150301
 30
0.0
 40
1.587500000000019
100
AcDbArc
 50
135.0
 51
315.0000000012
  0
LINE
  5
195
330
1F
100
AcDbEntity
  8
0
  6
Continuous
 62
     7
370
    25
100
AcDbLine
 10
279.8416860978
 20
329.716750128
 30
0.0
 11
272.7706182859
 21
322.6456823161
 31
0.0
  0
LINE
  5
196
330
1F
100
AcDbEntity
  8
0
  6
Continuous
 62
     7
370
    25
100
AcDbLine
 10
279.5500045505
 20
330.0084316752
 30
0.0
 11
279.8416860978
 21
329.716750128
 31
0.0
  0
LINE
  5
197
330
1F
100
AcDbEntity
  8
0
  6
Continuous
 62
     7
370
    25
100
AcDbLine
 10
292.2779266119
 20
342.7363537366
 30
0.0
 11
279.5500045505
 21
330.0084316752
 31
0.0
  0
LINE
  5
198
330
1F
100
AcDbEntity
  8
0
  6
Continuous
 62
     7
370
    25
100
AcDbLine
 10
292.5696081591
 20
342.4446721894
 30
0.0
 11
292.2779266119
 21
342.7363537366
 31
0.0
  0
LINE
  5
199
330
1F
100
AcDbEntity
  8
0
  6
Continuous
 62
     7
370
    25
100
AcDbLine
 10
299.640675971
 20
349.5157400012
 30
0.0
 11
292.5696081591
 21
342.4446721894
 31
0.0
  0
ARC
  5
19A
330
1F
100
AcDbEntity
  8
0
  6
Continuous
 62
     7
370
    25
100
AcDbCircle
 10
300.7632079861
 20
348.3932079861
 30
0.0
 40
1.587500000032335
100
AcDbArc
 50
315.0
 51
134.9999999988
  0
LINE
  5
19B
330
1F
100
AcDbEntity
  8
0
  6
Continuous
 62
     7
370
    25
100
AcDbLine
 10
294.8146721894
 20
340.1996081591
 30
0.0
 11
301.8857400012
 21
347.2706759709
 31
0.0
  0
LINE
  5
19C
330
1F
100
AcDbEntity
  8
0
  6
Continuous
 62
     7
370
    25
100
AcDbLine
 10
295.1063537366
 20
339.9079266118
 30
0.0
 11
294.8146721894
 21
340.1996081591
 31
0.0
  0
LINE
  5
19D
330
1F
100
AcDbEntity
  8
0
  6
Continuous
 62
     7
370
    25
100
AcDbLine
 10
282.3784316753
 20
327.1800045505
 30
0.0
 11
295.1063537366
 21
339.9079266118
 31
0.0
  0
LINE
  5
19E
330
1F
100
AcDbEntity
  8
0
  6
Continuous
 62
     7
370
    25
100
AcDbLine
 10
282.086750128
 20
327.4716860977
 30
0.0
 11
282.3784316753
 21
327.1800045505
 31
0.0
  0
LINE
  5
19F
330
1F
100
AcDbEntity
  8
0
  6
Continuous
 62
     7
370
    25
100
AcDbLine
 10
347.270675971
 20
63.7357400012
 30
0.0
 11
340.1996081591
 21
56.6646721894
 31
0.0
  0
ARC
  5
1A0
330
1F
100
AcDbEntity
  8
0
  6
Continuous
 62
     7
370
    25
100
AcDbCircle
 10
348.3932079861
 20
62.6132079861
 30
0.0
 40
1.587500000014554
100
AcDbArc
 50
315.0
 51
134.9999999993
  0
LINE
  5
1A1
330
1F
100
AcDbEntity
  8
0
  6
Continuous
 62
     7
370
    25
100
AcDbLine
 10
342.4446721894
 20
54.4196081591
 30
0.0
 11
349.5157400012
 21
61.4906759709
 31
0.0
  0
LINE
  5
1A2
330
1F
100
AcDbEntity
  8
0
  6
Continuous
 62
     7
370
    25
100
AcDbLine
 10
342.7363537366
 20
54.1279266119
 30
0.0
 11
342.4446721894
 21
54.4196081591
 31
0.0
  0
LINE
  5
1A3
330
1F
100
AcDbEntity
  8
0
  6
Continuous
 62
     7
370
    25
100
AcDbLine
 10
330.0084316753
 20
41.4000045505
 30
0.0
 11
342.7363537366
 21
54.1279266119
 31
0.0
  0
LINE
  5
1A4
330
1F
100
AcDbEntity
  8
0
  6
Continuous
 62
     7
370
    25
100
AcDbLine
 10
329.716750128
 20
41.6916860977
 30
0.0
 11
330.0084316753
 21
41.4000045505
 31
0.0
  0
LINE
  5
1A5
330
1F
100
AcDbEntity
  8
0
  6
Continuous
 62
     7
370
    25
100
AcDbLine
 10
322.6456823161
 20
34.6206182859
 30
0.0
 11
329.716750128
 21
41.6916860977
 31
0.0
  0
ARC
  5
1A6
330
1F
100
AcDbEntity
  8
0
  6
Continuous
 62
     7
370
    25
100
AcDbCircle
 10
321.523150301
 20
35.743150301
 30
0.0
 40
1.587499999999994
100
AcDbArc
 50
135.0
 51
315.0000000007
  0
LINE
  5
1A7
330
1F
100
AcDbEntity
  8
0
  6
Continuous
 62
     7
370
    25
100
AcDbLine
 10
327.4716860978
 20
43.936750128
 30
0.0
 11
320.4006182859
 21
36.8656823161
 31
0.0
  0
LINE
  5
1A8
330
1F
100
AcDbEntity
  8
0
  6
Continuous
 62
     7
370
    25
100
AcDbLine
 10
327.1800045505
 20
44.2284316752
 30
0.0
 11
327.4716860978
 21
43.936750128
 31
0.0
  0
LINE
  5
1A9
330
1F
100
AcDbEntity
  8
0
  6
Continuous
 62
     7
370
    25
100
AcDbLine
 10
339.9079266119
 20
56.9563537366
 30
0.0
 11
327.1800045505
 21
44.2284316752
 31
0.0
  0
LINE
  5
1AA
330
1F
100
AcDbEntity
  8
0
  6
Continuous
 62
     7
370
    25
100
AcDbLine
 10
340.1996081591
 20
56.6646721894
 30
0.0
 11
339.9079266119
 21
56.9563537366
 31
0.0
  0
LINE
  5
1AB
330
1F
100
AcDbEntity
  8
0
  6
Continuous
 62
     7
370
    25
100
AcDbLine
 10
347.270675971
 20
111.3657400012
 30
0.0
 11
340.1996081591
 21
104.2946721894
 31
0.0
  0
ARC
  5
1AC
330
1F
100
AcDbEntity
  8
0
  6
Continuous
 62
     7
370
    25
100
AcDbCircle
 10
348.3932079861
 20
110.2432079861
 30
0.0
 40
1.58750000001475
100
AcDbArc
 50
315.0
 51
134.9999999994
  0
LINE
  5
1AD
330
1F
100
AcDbEntity
  8
0
  6
Continuous
 62
     7
370
    25
100
AcDbLine
 10
342.4446721894
 20
102.0496081591
 30
0.0
 11
349.5157400012
 21
109.1206759709
 31
0.0
  0
LINE
  5
1AE
330
1F
100
AcDbEntity
  8
0
  6
Continuous
 62
     7
370
    25
100
AcDbLine
 10
342.7363537366
 20
101.7579266119
 30
0.0
 11
342.4446721894
 21
102.0496081591
 31
0.0
  0
LINE
  5
1AF
330
1F
100
AcDbEntity
  8
0
  6
Continuous
 62
     7
370
    25
100
AcDbLine
 10
330.0084316753
 20
89.0300045505
 30
0.0
 11
342.7363537366
 21
101.7579266119
 31
0.0
  0
LINE
  5
1B0
330
1F
100
AcDbEntity
  8
0
  6
Continuous
 62
     7
370
    25
100
AcDbLine
 10
329.716750128
 20
89.3216860977
 30
0.0
 11
330.0084316753
 21
89.0300045505
 31
0.0
  0
LINE
  5
1B1
330
1F
100
AcDbEntity
  8
0
  6
Continuous
 62
     7
370
    25
100
AcDbLine
 10
322.6456823161
 20
82.2506182859
 30
0.0
 11
329.716750128
 21
89.3216860977
 31
0.0
  0
ARC
  5
1B2
330
1F
100
AcDbEntity
  8
0
  6
Continuous
 62
     7
370
    25
100
AcDbCircle
 10
321.523150301
 20
83.373150301
 30
0.0
 40
1.587499999999999
100
AcDbArc
 50
135.0
 51
315.0000000006
  0
LINE
  5
1B3
330
1F
100
AcDbEntity
  8
0
  6
Continuous
 62
     7
370
    25
100
AcDbLine
 10
327.4716860978
 20
91.566750128
 30
0.0
 11
320.4006182859
 21
84.4956823161
 31
0.0
  0
LINE
  5
1B4
330
1F
100
AcDbEntity
  8
0
  6
Continuous
 62
     7
370
    25
100
AcDbLine
 10
327.1800045505
 20
91.8584316752
 30
0.0
 11
327.4716860978
 21
91.566750128
 31
0.0
  0
LINE
  5
1B5
330
1F
100
AcDbEntity
  8
0
  6
Continuous
 62
     7
370
    25
100
AcDbLine
 10
339.9079266119
 20
104.5863537366
 30
0.0
 11
327.1800045505
 21
91.8584316752
 31
0.0
  0
LINE
  5
1B6
330
1F
100
AcDbEntity
  8
0
  6
Continuous
 62
     7
370
    25
100
AcDbLine
 10
340.1996081591
 20
104.2946721894
 30
0.0
 11
339.9079266119
 21
104.5863537366
 31
0.0
  0
LINE
  5
1B7
330
1F
100
AcDbEntity
  8
0
  6
Continuous
 62
     7
370
    25
100
AcDbLine
 10
322.6456823161
 20
129.8806182859
 30
0.0
 11
329.716750128
 21
136.9516860977
 31
0.0
  0
ARC
  5
1B8
330
1F
100
AcDbEntity
  8
0
  6
Continuous
 62
     7
370
    25
100
AcDbCircle
 10
321.523150301
 20
131.003150301
 30
0.0
 40
1.587499999999999
100
AcDbArc
 50
135.0
 51
315.0000000006
  0
LINE
  5
1B9
330
1F
100
AcDbEntity
  8
0
  6
Continuous
 62
     7
370
    25
100
AcDbLine
 10
327.4716860978
 20
139.196750128
 30
0.0
 11
320.4006182859
 21
132.1256823161
 31
0.0
  0
LINE
  5
1BA
330
1F
100
AcDbEntity
  8
0
  6
Continuous
 62
     7
370
    25
100
AcDbLine
 10
327.1800045505
 20
139.4884316752
 30
0.0
 11
327.4716860978
 21
139.196750128
 31
0.0
  0
LINE
  5
1BB
330
1F
100
AcDbEntity
  8
0
  6
Continuous
 62
     7
370
    25
100
AcDbLine
 10
339.9079266119
 20
152.2163537366
 30
0.0
 11
327.1800045505
 21
139.4884316752
 31
0.0
  0
LINE
  5
1BC
330
1F
100
AcDbEntity
  8
0
  6
Continuous
 62
     7
370
    25
100
AcDbLine
 10
340.1996081591
 20
151.9246721894
 30
0.0
 11
339.9079266119
 21
152.2163537366
 31
0.0
  0
LINE
  5
1BD
330
1F
100
AcDbEntity
  8
0
  6
Continuous
 62
     7
370
    25
100
AcDbLine
 10
347.270675971
 20
158.9957400012
 30
0.0
 11
340.1996081591
 21
151.9246721894
 31
0.0
  0
ARC
  5
1BE
330
1F
100
AcDbEntity
  8
0
  6
Continuous
 62
     7
370
    25
100
AcDbCircle
 10
348.3932079861
 20
157.8732079861
 30
0.0
 40
1.587500000014951
100
AcDbArc
 50
315.0
 51
134.9999999994
  0
LINE
  5
1BF
330
1F
100
AcDbEntity
  8
0
  6
Continuous
 62
     7
370
    25
100
AcDbLine
 10
342.4446721894
 20
149.6796081591
 30
0.0
 11
349.5157400012
 21
156.7506759709
 31
0.0
  0
LINE
  5
1C0
330
1F
100
AcDbEntity
  8
0
  6
Continuous
 62
     7
370
    25
100
AcDbLine
 10
342.7363537366
 20
149.3879266119
 30
0.0
 11
342.4446721894
 21
149.6796081591
 31
0.0
  0
LINE
  5
1C1
330
1F
100
AcDbEntity
  8
0
  6
Continuous
 62
     7
370
    25
100
AcDbLine
 10
330.0084316753
 20
136.6600045505
 30
0.0
 11
342.7363537366
 21
149.3879266119
 31
0.0
  0
LINE
  5
1C2
330
1F
100
AcDbEntity
  8
0
  6
Continuous
 62
     7
370
    25
100
AcDbLine
 10
329.716750128
 20
136.9516860977
 30
0.0
 11
330.0084316753
 21
136.6600045505
 31
0.0
  0
LINE
  5
1C3
330
1F
100
AcDbEntity
  8
0
  6
Continuous
 62
     7
370
    25
100
AcDbLine
 10
322.6456823161
 20
177.5106182859
 30
0.0
 11
329.716750128
 21
184.5816860977
 31
0.0
  0
ARC
  5
1C4
330
1F
100
AcDbEntity
  8
0
  6
Continuous
 62
     7
370
    25
100
AcDbCircle
 10
321.523150301
 20
178.633150301
 30
0.0
 40
1.587500000000019
100
AcDbArc
 50
135.0
 51
315.0000000006
  0
LINE
  5
1C5
330
1F
100
AcDbEntity
  8
0
  6
Continuous
 62
     7
370
    25
100
AcDbLine
 10
327.4716860978
 20
186.826750128
 30
0.0
 11
320.4006182859
 21
179.7556823161
 31
0.0
  0
LINE
  5
1C6
330
1F
100
AcDbEntity
  8
0
  6
Continuous
 62
     7
370
    25
100
AcDbLine
 10
327.1800045505
 20
187.1184316752
 30
0.0
 11
327.4716860978
 21
186.826750128
 31
0.0
  0
LINE
  5
1C7
330
1F
100
AcDbEntity
  8
0
  6
Continuous
 62
     7
370
    25
100
AcDbLine
 10
339.9079266119
 20
199.8463537366
 30
0.0
 11
327.1800045505
 21
187.1184316752
 31
0.0
  0
LINE
  5
1C8
330
1F
100
AcDbEntity
  8
0
  6
Continuous
 62
     7
370
    25
100
AcDbLine
 10
340.1996081591
 20
199.5546721894
 30
0.0
 11
339.9079266119
 21
199.8463537366
 31
0.0
  0
LINE
  5
1C9
330
1F
100
AcDbEntity
  8
0
  6
Continuous
 62
     7
370
    25
100
AcDbLine
 10
347.270675971
 20
206.6257400012
 30
0.0
 11
340.1996081591
 21
199.5546721894
 31
0.0
  0
ARC
  5
1CA
330
1F
100
AcDbEntity
  8
0
  6
Continuous
 62
     7
370
    25
100
AcDbCircle
 10
348.3932079861
 20
205.5032079861
 30
0.0
 40
1.587500000015273
100
AcDbArc
 50
315.0
 51
134.9999999994
  0
LINE
  5
1CB
330
1F
100
AcDbEntity
  8
0
  6
Continuous
 62
     7
370
    25
100
AcDbLine
 10
342.4446721894
 20
197.3096081591
 30
0.0
 11
349.5157400012
 21
204.3806759709
 31
0.0
  0
LINE
  5
1CC
330
1F
100
AcDbEntity
  8
0
  6
Continuous
 62
     7
370
    25
100
AcDbLine
 10
342.7363537366
 20
197.0179266119
 30
0.0
 11
342.4446721894
 21
197.3096081591
 31
0.0
  0
LINE
  5
1CD
330
1F
100
AcDbEntity
  8
0
  6
Continuous
 62
     7
370
    25
100
AcDbLine
 10
330.0084316753
 20
184.2900045505
 30
0.0
 11
342.7363537366
 21
197.0179266119
 31
0.0
  0
LINE
  5
1CE
330
1F
100
AcDbEntity
  8
0
  6
Continuous
 62
     7
370
    25
100
AcDbLine
 10
329.716750128
 20
184.5816860977
 30
0.0
 11
330.0084316753
 21
184.2900045505
 31
0.0
  0
LINE
  5
1CF
330
1F
100
AcDbEntity
  8
0
  6
Continuous
 62
     7
370
    25
100
AcDbLine
 10
322.6456823161
 20
225.1406182859
 30
0.0
 11
329.716750128
 21
232.2116860977
 31
0.0
  0
ARC
  5
1D0
330
1F
100
AcDbEntity
  8
0
  6
Continuous
 62
     7
370
    25
100
AcDbCircle
 10
321.523150301
 20
226.263150301
 30
0.0
 40
1.587499999999999
100
AcDbArc
 50
135.0
 51
315.0000000006
  0
LINE
  5
1D1
330
1F
100
AcDbEntity
  8
0
  6
Continuous
 62
     7
370
    25
100
AcDbLine
 10
327.4716860978
 20
234.456750128
 30
0.0
 11
320.4006182859
 21
227.3856823161
 31
0.0
  0
LINE
  5
1D2
330
1F
100
AcDbEntity
  8
0
  6
Continuous
 62
     7
370
    25
100
AcDbLine
 10
327.1800045505
 20
234.7484316752
 30
0.0
 11
327.4716860978
 21
234.456750128
 31
0.0
  0
LINE
  5
1D3
330
1F
100
AcDbEntity
  8
0
  6
Continuous
 62
     7
370
    25
100
AcDbLine
 10
339.9079266119
 20
247.4763537366
 30
0.0
 11
327.1800045505
 21
234.7484316752
 31
0.0
  0
LINE
  5
1D4
330
1F
100
AcDbEntity
  8
0
  6
Continuous
 62
     7
370
    25
100
AcDbLine
 10
340.1996081591
 20
247.1846721894
 30
0.0
 11
339.9079266119
 21
247.4763537366
 31
0.0
  0
LINE
  5
1D5
330
1F
100
AcDbEntity
  8
0
  6
Continuous
 62
     7
370
    25
100
AcDbLine
 10
347.270675971
 20
254.2557400012
 30
0.0
 11
340.1996081591
 21
247.1846721894
 31
0.0
  0
ARC
  5
1D6
330
1F
100
AcDbEntity
  8
0
  6
Continuous
 62
     7
370
    25
100
AcDbCircle
 10
348.3932079861
 20
253.1332079861
 30
0.0
 40
1.587500000015494
100
AcDbArc
 50
315.0
 51
134.9999999994
  0
LINE
  5
1D7
330
1F
100
AcDbEntity
  8
0
  6
Continuous
 62
     7
370
    25
100
AcDbLine
 10
342.4446721894
 20
244.9396081591
 30
0.0
 11
349.5157400012
 21
252.0106759709
 31
0.0
  0
LINE
  5
1D8
330
1F
100
AcDbEntity
  8
0
  6
Continuous
 62
     7
370
    25
100
AcDbLine
 10
342.7363537366
 20
244.6479266118
 30
0.0
 11
342.4446721894
 21
244.9396081591
 31
0.0
  0
LINE
  5
1D9
330
1F
100
AcDbEntity
  8
0
  6
Continuous
 62
     7
370
    25
100
AcDbLine
 10
330.0084316753
 20
231.9200045505
 30
0.0
 11
342.7363537366
 21
244.6479266118
 31
0.0
  0
LINE
  5
1DA
330
1F
100
AcDbEntity
  8
0
  6
Continuous
 62
     7
370
    25
100
AcDbLine
 10
329.716750128
 20
232.2116860977
 30
0.0
 11
330.0084316753
 21
231.9200045505
 31
0.0
  0
LINE
  5
1DB
330
1F
100
AcDbEntity
  8
0
  6
Continuous
 62
     7
370
    25
100
AcDbLine
 10
322.6456823161
 20
272.7706182859
 30
0.0
 11
329.716750128
 21
279.8416860977
 31
0.0
  0
ARC
  5
1DC
330
1F
100
AcDbEntity
  8
0
  6
Continuous
 62
     7
370
    25
100
AcDbCircle
 10
321.523150301
 20
273.893150301
 30
0.0
 40
1.587499999999979
100
AcDbArc
 50
135.0
 51
315.0000000006
  0
LINE
  5
1DD
330
1F
100
AcDbEntity
  8
0
  6
Continuous
 62
     7
370
    25
100
AcDbLine
 10
327.4716860978
 20
282.086750128
 30
0.0
 11
320.4006182859
 21
275.0156823161
 31
0.0
  0
LINE
  5
1DE
330
1F
100
AcDbEntity
  8
0
  6
Continuous
 62
     7
370
    25
100
AcDbLine
 10
327.1800045505
 20
282.3784316752
 30
0.0
 11
327.4716860978
 21
282.086750128
 31
0.0
  0
LINE
  5
1DF
330
1F
100
AcDbEntity
  8
0
  6
Continuous
 62
     7
370
    25
100
AcDbLine
 10
339.9079266119
 20
295.1063537366
 30
0.0
 11
327.1800045505
 21
282.3784316752
 31
0.0
  0
LINE
  5
1E0
330
1F
100
AcDbEntity
  8
0
  6
Continuous
 62
     7
370
    25
100
AcDbLine
 10
340.1996081591
 20
294.8146721894
 30
0.0
 11
339.9079266119
 21
295.1063537366
 31
0.0
  0
LINE
  5
1E1
330
1F
100
AcDbEntity
  8
0
  6
Continuous
 62
     7
370
    25
100
AcDbLine
 10
347.270675971
 20
301.8857400012
 30
0.0
 11
340.1996081591
 21
294.8146721894
 31
0.0
  0
ARC
  5
1E2
330
1F
100
AcDbEntity
  8
0
  6
Continuous
 62
     7
370
    25
100
AcDbCircle
 10
348.3932079861
 20
300.7632079861
 30
0.0
 40
1.587500000015775
100
AcDbArc
 50
315.0
 51
134.9999999994
  0
LINE
  5
1E3
330
1F
100
AcDbEntity
  8
0
  6
Continuous
 62
     7
370
    25
100
AcDbLine
 10
342.4446721894
 20
292.5696081591
 30
0.0
 11
349.5157400012
 21
299.6406759709
 31
0.0
  0
LINE
  5
1E4
330
1F
100
AcDbEntity
  8
0
  6
Continuous
 62
     7
370
    25
100
AcDbLine
 10
342.7363537366
 20
292.2779266118
 30
0.0
 11
342.4446721894
 21
292.5696081591
 31
0.0
  0
LINE
  5
1E5
330
1F
100
AcDbEntity
  8
0
  6
Continuous
 62
     7
370
    25
100
AcDbLine
 10
330.0084316753
 20
279.5500045505
 30
0.0
 11
342.7363537366
 21
292.2779266118
 31
0.0
  0
LINE
  5
1E6
330
1F
100
AcDbEntity
  8
0
  6
Continuous
 62
     7
370
    25
100
AcDbLine
 10
329.716750128
 20
279.8416860977
 30
0.0
 11
330.0084316753
 21
279.5500045505
 31
0.0
  0
LINE
  5
1E7
330
1F
100
AcDbEntity
  8
0
  6
Continuous
 62
     7
370
    25
100
AcDbLine
 10
36.8656823162
 20
368.0306182859
 30
0.0
 11
43.9367501282
 21
375.1016860977
 31
0.0
  0
ARC
  5
1E8
330
1F
100
AcDbEntity
  8
0
  6
Continuous
 62
     7
370
    25
100
AcDbCircle
 10
35.743150301
 20
369.153150301
 30
0.0
 40
1.587500000000054
100
AcDbArc
 50
135.0
 51
315.0000000041
  0
LINE
  5
1E9
330
1F
100
AcDbEntity
  8
0
  6
Continuous
 62
     7
370
    25
100
AcDbLine
 10
41.6916860979
 20
377.346750128
 30
0.0
 11
34.6206182859
 21
370.2756823161
 31
0.0
  0
LINE
  5
1EA
330
1F
100
AcDbEntity
  8
0
  6
Continuous
 62
     7
370
    25
100
AcDbLine
 10
41.4000045507
 20
377.6384316752
 30
0.0
 11
41.6916860979
 21
377.346750128
 31
0.0
  0
LINE
  5
1EB
330
1F
100
AcDbEntity
  8
0
  6
Continuous
 62
     7
370
    25
100
AcDbLine
 10
54.127926612
 20
390.3663537366
 30
0.0
 11
41.4000045507
 21
377.6384316752
 31
0.0
  0
LINE
  5
1EC
330
1F
100
AcDbEntity
  8
0
  6
Continuous
 62
     7
370
    25
100
AcDbLine
 10
54.4196081592
 20
390.0746721894
 30
0.0
 11
54.127926612
 21
390.3663537366
 31
0.0
  0
LINE
  5
1ED
330
1F
100
AcDbEntity
  8
0
  6
Continuous
 62
     7
370
    25
100
AcDbLine
 10
61.490675971
 20
397.1457400013
 30
0.0
 11
54.4196081592
 21
390.0746721894
 31
0.0
  0
ARC
  5
1EE
330
1F
100
AcDbEntity
  8
0
  6
Continuous
 62
     7
370
    25
100
AcDbCircle
 10
62.6132079861
 20
396.0232079861
 30
0.0
 40
1.587500000114126
100
AcDbArc
 50
315.0
 51
134.9999999959
  0
LINE
  5
1EF
330
1F
100
AcDbEntity
  8
0
  6
Continuous
 62
     7
370
    25
100
AcDbLine
 10
56.6646721895
 20
387.8296081591
 30
0.0
 11
63.7357400013
 21
394.9006759709
 31
0.0
  0
LINE
  5
1F0
330
1F
100
AcDbEntity
  8
0
  6
Continuous
 62
     7
370
    25
100
AcDbLine
 10
56.9563537368
 20
387.5379266118
 30
0.0
 11
56.6646721895
 21
387.8296081591
 31
0.0
  0
LINE
  5
1F1
330
1F
100
AcDbEntity
  8
0
  6
Continuous
 62
     7
370
    25
100
AcDbLine
 10
44.2284316754
 20
374.8100045505
 30
0.0
 11
56.9563537368
 21
387.5379266118
 31
0.0
  0
LINE
  5
1F2
330
1F
100
AcDbEntity
  8
0
  6
Continuous
 62
     7
370
    25
100
AcDbLine
 10
43.9367501282
 20
375.1016860977
 30
0.0
 11
44.2284316754
 21
374.8100045505
 31
0.0
  0
LINE
  5
1F3
330
1F
100
AcDbEntity
  8
0
  6
Continuous
 62
     7
370
    25
100
AcDbLine
 10
84.4956823162
 20
368.0306182859
 30
0.0
 11
91.5667501281
 21
375.1016860977
 31
0.0
  0
ARC
  5
1F4
330
1F
100
AcDbEntity
  8
0
  6
Continuous
 62
     7
370
    25
100
AcDbCircle
 10
83.373150301
 20
369.153150301
 30
0.0
 40
1.587500000000049
100
AcDbArc
 50
135.0
 51
315.0000000035
  0
LINE
  5
1F5
330
1F
100
AcDbEntity
  8
0
  6
Continuous
 62
     7
370
    25
100
AcDbLine
 10
89.3216860979
 20
377.346750128
 30
0.0
 11
82.2506182859
 21
370.2756823161
 31
0.0
  0
LINE
  5
1F6
330
1F
100
AcDbEntity
  8
0
  6
Continuous
 62
     7
370
    25
100
AcDbLine
 10
89.0300045506
 20
377.6384316752
 30
0.0
 11
89.3216860979
 21
377.346750128
 31
0.0
  0
LINE
  5
1F7
330
1F
100
AcDbEntity
  8
0
  6
Continuous
 62
     7
370
    25
100
AcDbLine
 10
101.757926612
 20
390.3663537366
 30
0.0
 11
89.0300045506
 21
377.6384316752
 31
0.0
  0
LINE
  5
1F8
330
1F
100
AcDbEntity
  8
0
  6
Continuous
 62
     7
370
    25
100
AcDbLine
 10
102.0496081592
 20
390.0746721894
 30
0.0
 11
101.757926612
 21
390.3663537366
 31
0.0
  0
LINE
  5
1F9
330
1F
100
AcDbEntity
  8
0
  6
Continuous
 62
     7
370
    25
100
AcDbLine
 10
109.120675971
 20
397.1457400013
 30
0.0
 11
102.0496081592
 21
390.0746721894
 31
0.0
  0
ARC
  5
1FA
330
1F
100
AcDbEntity
  8
0
  6
Continuous
 62
     7
370
    25
100
AcDbCircle
 10
110.2432079861
 20
396.0232079861
 30
0.0
 40
1.587500000097802
100
AcDbArc
 50
315.0
 51
134.9999999965
  0
LINE
  5
1FB
330
1F
100
AcDbEntity
  8
0
  6
Continuous
 62
     7
370
    25
100
AcDbLine
 10
104.2946721895
 20
387.8296081591
 30
0.0
 11
111.3657400013
 21
394.9006759709
 31
0.0
  0
LINE
  5
1FC
330
1F
100
AcDbEntity
  8
0
  6
Continuous
 62
     7
370
    25
100
AcDbLine
 10
104.5863537367
 20
387.5379266118
 30
0.0
 11
104.2946721895
 21
387.8296081591
 31
0.0
  0
LINE
  5
1FD
330
1F
100
AcDbEntity
  8
0
  6
Continuous
 62
     7
370
    25
100
AcDbLine
 10
91.8584316754
 20
374.8100045505
 30
0.0
 11
104.5863537367
 21
387.5379266118
 31
0.0
  0
LINE
  5
1FE
330
1F
100
AcDbEntity
  8
0
  6
Continuous
 62
     7
370
    25
100
AcDbLine
 10
91.5667501281
 20
375.1016860977
 30
0.0
 11
91.8584316754
 21
374.8100045505
 31
0.0
  0
LINE
  5
1FF
330
1F
100
AcDbEntity
  8
0
  6
Continuous
 62
     7
370
    25
100
AcDbLine
 10
132.1256823162
 20
368.0306182859
 30
0.0
 11
139.1967501281
 21
375.1016860977
 31
0.0
  0
ARC
  5
200
330
1F
100
AcDbEntity
  8
0
  6
Continuous
 62
     7
370
    25
100
AcDbCircle
 10
131.003150301
 20
369.153150301
 30
0.0
 40
1.587500000000079
100
AcDbArc
 50
135.0
 51
315.0000000029
  0
LINE
  5
201
330
1F
100
AcDbEntity
  8
0
  6
Continuous
 62
     7
370
    25
100
AcDbLine
 10
136.9516860978
 20
377.346750128
 30
0.0
 11
129.8806182859
 21
370.2756823161
 31
0.0
  0
LINE
  5
202
330
1F
100
AcDbEntity
  8
0
  6
Continuous
 62
     7
370
    25
100
AcDbLine
 10
136.6600045506
 20
377.6384316752
 30
0.0
 11
136.9516860978
 21
377.346750128
 31
0.0
  0
LINE
  5
203
330
1F
100
AcDbEntity
  8
0
  6
Continuous
 62
     7
370
    25
100
AcDbLine
 10
149.387926612
 20
390.3663537366
 30
0.0
 11
136.6600045506
 21
377.6384316752
 31
0.0
  0
LINE
  5
204
330
1F
100
AcDbEntity
  8
0
  6
Continuous
 62
     7
370
    25
100
AcDbLine
 10
149.6796081592
 20
390.0746721894
 30
0.0
 11
149.387926612
 21
390.3663537366
 31
0.0
  0
LINE
  5
205
330
1F
100
AcDbEntity
  8
0
  6
Continuous
 62
     7
370
    25
100
AcDbLine
 10
156.750675971
 20
397.1457400013
 30
0.0
 11
149.6796081592
 21
390.0746721894
 31
0.0
  0
ARC
  5
206
330
1F
100
AcDbEntity
  8
0
  6
Continuous
 62
     7
370
    25
100
AcDbCircle
 10
157.8732079861
 20
396.0232079861
 30
0.0
 40
1.587500000081533
100
AcDbArc
 50
315.0
 51
134.9999999971
  0
LINE
  5
207
330
1F
100
AcDbEntity
  8
0
  6
Continuous
 62
     7
370
    25
100
AcDbLine
 10
151.9246721895
 20
387.8296081591
 30
0.0
 11
158.9957400013
 21
394.9006759709
 31
0.0
  0
LINE
  5
208
330
1F
100
AcDbEntity
  8
0
  6
Continuous
 62
     7
370
    25
100
AcDbLine
 10
152.2163537367
 20
387.5379266118
 30
0.0
 11
151.9246721895
 21
387.8296081591
 31
0.0
  0
LINE
  5
209
330
1F
100
AcDbEntity
  8
0
  6
Continuous
 62
     7
370
    25
100
AcDbLine
 10
139.4884316754
 20
374.8100045505
 30
0.0
 11
152.2163537367
 21
387.5379266118
 31
0.0
  0
LINE
  5
20A
330
1F
100
AcDbEntity
  8
0
  6
Continuous
 62
     7
370
    25
100
AcDbLine
 10
139.1967501281
 20
375.1016860977
 30
0.0
 11
139.4884316754
 21
374.8100045505
 31
0.0
  0
LINE
  5
20B
330
1F
100
AcDbEntity
  8
0
  6
Continuous
 62
     7
370
    25
100
AcDbLine
 10
179.7556823162
 20
368.0306182859
 30
0.0
 11
186.8267501281
 21
375.1016860977
 31
0.0
  0
ARC
  5
20C
330
1F
100
AcDbEntity
  8
0
  6
Continuous
 62
     7
370
    25
100
AcDbCircle
 10
178.633150301
 20
369.153150301
 30
0.0
 40
1.587500000000039
100
AcDbArc
 50
135.0
 51
315.0000000024
  0
LINE
  5
20D
330
1F
100
AcDbEntity
  8
0
  6
Continuous
 62
     7
370
    25
100
AcDbLine
 10
184.5816860978
 20
377.346750128
 30
0.0
 11
177.5106182859
 21
370.2756823161
 31
0.0
  0
LINE
  5
20E
330
1F
100
AcDbEntity
  8
0
  6
Continuous
 62
     7
370
    25
100
AcDbLine
 10
184.2900045506
 20
377.6384316752
 30
0.0
 11
184.5816860978
 21
377.346750128
 31
0.0
  0
LINE
  5
20F
330
1F
100
AcDbEntity
  8
0
  6
Continuous
 62
     7
370
    25
100
AcDbLine
 10
197.0179266119
 20
390.3663537366
 30
0.0
 11
184.2900045506
 21
377.6384316752
 31
0.0
  0
LINE
  5
210
330
1F
100
AcDbEntity
  8
0
  6
Continuous
 62
     7
370
    25
100
AcDbLine
 10
197.3096081592
 20
390.0746721894
 30
0.0
 11
197.0179266119
 21
390.3663537366
 31
0.0
  0
LINE
  5
211
330
1F
100
AcDbEntity
  8
0
  6
Continuous
 62
     7
370
    25
100
AcDbLine
 10
204.380675971
 20
397.1457400013
 30
0.0
 11
197.3096081592
 21
390.0746721894
 31
0.0
  0
ARC
  5
212
330
1F
100
AcDbEntity
  8
0
  6
Continuous
 62
     7
370
    25
100
AcDbCircle
 10
205.5032079861
 20
396.0232079861
 30
0.0
 40
1.587500000065194
100
AcDbArc
 50
315.0
 51
134.9999999976
  0
LINE
  5
213
330
1F
100
AcDbEntity
  8
0
  6
Continuous
 62
     7
370
    25
100
AcDbLine
 10
199.5546721894
 20
387.8296081591
 30
0.0
 11
206.6257400013
 21
394.9006759709
 31
0.0
  0
LINE
  5
214
330
1F
100
AcDbEntity
  8
0
  6
Continuous
 62
     7
370
    25
100
AcDbLine
 10
199.8463537367
 20
387.5379266118
 30
0.0
 11
199.5546721894
 21
387.8296081591
 31
0.0
  0
LINE
  5
215
330
1F
100
AcDbEntity
  8
0
  6
Continuous
 62
     7
370
    25
100
AcDbLine
 10
187.1184316753
 20
374.8100045505
 30
0.0
 11
199.8463537367
 21
387.5379266118
 31
0.0
  0
LINE
  5
216
330
1F
100
AcDbEntity
  8
0
  6
Continuous
 62
     7
370
    25
100
AcDbLine
 10
186.8267501281
 20
375.1016860977
 30
0.0
 11
187.1184316753
 21
374.8100045505
 31
0.0
  0
LINE
  5
217
330
1F
100
AcDbEntity
  8
0
  6
Continuous
 62
     7
370
    25
100
AcDbLine
 10
252.010675971
 20
397.1457400013
 30
0.0
 11
244.9396081592
 21
390.0746721894
 31
0.0
  0
ARC
  5
218
330
1F
100
AcDbEntity
  8
0
  6
Continuous
 62
     7
370
    25
100
AcDbCircle
 10
253.1332079861
 20
396.0232079861
 30
0.0
 40
1.587500000048875
100
AcDbArc
 50
315.0
 51
134.9999999982
  0
LINE
  5
219
330
1F
100
AcDbEntity
  8
0
  6
Continuous
 62
     7
370
    25
100
AcDbLine
 10
247.1846721894
 20
387.8296081591
 30
0.0
 11
254.2557400013
 21
394.9006759709
 31
0.0
  0
LINE
  5
21A
330
1F
100
AcDbEntity
  8
0
  6
Continuous
 62
     7
370
    25
100
AcDbLine
 10
247.4763537367
 20
387.5379266118
 30
0.0
 11
247.1846721894
 21
387.8296081591
 31
0.0
  0
LINE
  5
21B
330
1F
100
AcDbEntity
  8
0
  6
Continuous
 62
     7
370
    25
100
AcDbLine
 10
234.7484316753
 20
374.8100045505
 30
0.0
 11
247.4763537367
 21
387.5379266118
 31
0.0
  0
LINE
  5
21C
330
1F
100
AcDbEntity
  8
0
  6
Continuous
 62
     7
370
    25
100
AcDbLine
 10
234.4567501281
 20
375.1016860977
 30
0.0
 11
234.7484316753
 21
374.8100045505
 31
0.0
  0
LINE
  5
21D
330
1F
100
AcDbEntity
  8
0
  6
Continuous
 62
     7
370
    25
100
AcDbLine
 10
227.3856823162
 20
368.0306182859
 30
0.0
 11
234.4567501281
 21
375.1016860977
 31
0.0
  0
ARC
  5
21E
330
1F
100
AcDbEntity
  8
0
  6
Continuous
 62
     7
370
    25
100
AcDbCircle
 10
226.263150301
 20
369.153150301
 30
0.0
 40
1.587500000000039
100
AcDbArc
 50
135.0
 51
315.0000000018
  0
LINE
  5
21F
330
1F
100
AcDbEntity
  8
0
  6
Continuous
 62
     7
370
    25
100
AcDbLine
 10
232.2116860978
 20
377.346750128
 30
0.0
 11
225.1406182859
 21
370.2756823161
 31
0.0
  0
LINE
  5
220
330
1F
100
AcDbEntity
  8
0
  6
Continuous
 62
     7
370
    25
100
AcDbLine
 10
231.9200045506
 20
377.6384316752
 30
0.0
 11
232.2116860978
 21
377.346750128
 31
0.0
  0
LINE
  5
221
330
1F
100
AcDbEntity
  8
0
  6
Continuous
 62
     7
370
    25
100
AcDbLine
 10
244.6479266119
 20
390.3663537366
 30
0.0
 11
231.9200045506
 21
377.6384316752
 31
0.0
  0
LINE
  5
222
330
1F
100
AcDbEntity
  8
0
  6
Continuous
 62
     7
370
    25
100
AcDbLine
 10
244.9396081592
 20
390.0746721894
 30
0.0
 11
244.6479266119
 21
390.3663537366
 31
0.0
  0
LINE
  5
223
330
1F
100
AcDbEntity
  8
0
  6
Continuous
 62
     7
370
    25
100
AcDbLine
 10
299.640675971
 20
397.1457400012
 30
0.0
 11
292.5696081591
 21
390.0746721894
 31
0.0
  0
ARC
  5
224
330
1F
100
AcDbEntity
  8
0
  6
Continuous
 62
     7
370
    25
100
AcDbCircle
 10
300.7632079861
 20
396.0232079861
 30
0.0
 40
1.587500000032616
100
AcDbArc
 50
315.0
 51
134.9999999988
  0
LINE
  5
225
330
1F
100
AcDbEntity
  8
0
  6
Continuous
 62
     7
370
    25
100
AcDbLine
 10
294.8146721894
 20
387.8296081591
 30
0.0
 11
301.8857400012
 21
394.9006759709
 31
0.0
  0
LINE
  5
226
330
1F
100
AcDbEntity
  8
0
  6
Continuous
 62
     7
370
    25
100
AcDbLine
 10
295.1063537366
 20
387.5379266118
 30
0.0
 11
294.8146721894
 21
387.8296081591
 31
0.0
  0
LINE
  5
227
330
1F
100
AcDbEntity
  8
0
  6
Continuous
 62
     7
370
    25
100
AcDbLine
 10
282.3784316753
 20
374.8100045505
 30
0.0
 11
295.1063537366
 21
387.5379266118
 31
0.0
  0
LINE
  5
228
330
1F
100
AcDbEntity
  8
0
  6
Continuous
 62
     7
370
    25
100
AcDbLine
 10
282.086750128
 20
375.1016860977
 30
0.0
 11
282.3784316753
 21
374.8100045505
 31
0.0
  0
LINE
  5
229
330
1F
100
AcDbEntity
  8
0
  6
Continuous
 62
     7
370
    25
100
AcDbLine
 10
275.0156823162
 20
368.0306182859
 30
0.0
 11
282.086750128
 21
375.1016860977
 31
0.0
  0
ARC
  5
22A
330
1F
100
AcDbEntity
  8
0
  6
Continuous
 62
     7
370
    25
100
AcDbCircle
 10
273.893150301
 20
369.153150301
 30
0.0
 40
1.587500000000059
100
AcDbArc
 50
135.0
 51
315.0000000012
  0
LINE
  5
22B
330
1F
100
AcDbEntity
  8
0
  6
Continuous
 62
     7
370
    25
100
AcDbLine
 10
279.8416860978
 20
377.346750128
 30
0.0
 11
272.7706182859
 21
370.2756823161
 31
0.0
  0
LINE
  5
22C
330
1F
100
AcDbEntity
  8
0
  6
Continuous
 62
     7
370
    25
100
AcDbLine
 10
279.5500045505
 20
377.6384316752
 30
0.0
 11
279.8416860978
 21
377.346750128
 31
0.0
  0
LINE
  5
22D
330
1F
100
AcDbEntity
  8
0
  6
Continuous
 62
     7
370
    25
100
AcDbLine
 10
292.2779266119
 20
390.3663537366
 30
0.0
 11
279.5500045505
 21
377.6384316752
 31
0.0
  0
LINE
  5
22E
330
1F
100
AcDbEntity
  8
0
  6
Continuous
 62
     7
370
    25
100
AcDbLine
 10
292.5696081591
 20
390.0746721894
 30
0.0
 11
292.2779266119
 21
390.3663537366
 31
0.0
  0
LINE
  5
22F
330
1F
100
AcDbEntity
  8
0
  6
Continuous
 62
     7
370
    25
100
AcDbLine
 10
322.6456823161
 20
368.0306182859
 30
0.0
 11
329.716750128
 21
375.1016860977
 31
0.0
  0
ARC
  5
230
330
1F
100
AcDbEntity
  8
0
  6
Continuous
 62
     7
370
    25
100
AcDbCircle
 10
321.523150301
 20
369.153150301
 30
0.0
 40
1.587500000000019
100
AcDbArc
 50
135.0
 51
315.0000000006
  0
LINE
  5
231
330
1F
100
AcDbEntity
  8
0
  6
Continuous
 62
     7
370
    25
100
AcDbLine
 10
327.4716860978
 20
377.346750128
 30
0.0
 11
320.4006182859
 21
370.2756823161
 31
0.0
  0
LINE
  5
232
330
1F
100
AcDbEntity
  8
0
  6
Continuous
 62
     7
370
    25
100
AcDbLine
 10
327.1800045505
 20
377.6384316752
 30
0.0
 11
327.4716860978
 21
377.346750128
 31
0.0
  0
LINE
  5
233
330
1F
100
AcDbEntity
  8
0
  6
Continuous
 62
     7
370
    25
100
AcDbLine
 10
339.9079266119
 20
390.3663537366
 30
0.0
 11
327.1800045505
 21
377.6384316752
 31
0.0
  0
LINE
  5
234
330
1F
100
AcDbEntity
  8
0
  6
Continuous
 62
     7
370
    25
100
AcDbLine
 10
340.1996081591
 20
390.0746721894
 30
0.0
 11
339.9079266119
 21
390.3663537366
 31
0.0
  0
LINE
  5
235
330
1F
100
AcDbEntity
  8
0
  6
Continuous
 62
     7
370
    25
100
AcDbLine
 10
347.270675971
 20
397.1457400012
 30
0.0
 11
340.1996081591
 21
390.0746721894
 31
0.0
  0
ARC
  5
236
330
1F
100
AcDbEntity
  8
0
  6
Continuous
 62
     7
370
    25
100
AcDbCircle
 10
348.3932079861
 20
396.0232079861
 30
0.0
 40
1.587500000016298
100
AcDbArc
 50
315.0
 51
134.9999999994
  0
LINE
  5
237
330
1F
100
AcDbEntity
  8
0
  6
Continuous
 62
     7
370
    25
100
AcDbLine
 10
342.4446721894
 20
387.8296081591
 30
0.0
 11
349.5157400012
 21
394.9006759709
 31
0.0
  0
LINE
  5
238
330
1F
100
AcDbEntity
  8
0
  6
Continuous
 62
     7
370
    25
100
AcDbLine
 10
342.7363537366
 20
387.5379266118
 30
0.0
 11
342.4446721894
 21
387.8296081591
 31
0.0
  0
LINE
  5
239
330
1F
100
AcDbEntity
  8
0
  6
Continuous
 62
     7
370
    25
100
AcDbLine
 10
330.0084316753
 20
374.8100045505
 30
0.0
 11
342.7363537366
 21
387.5379266118
 31
0.0
  0
LINE
  5
23A
330
1F
100
AcDbEntity
  8
0
  6
Continuous
 62
     7
370
    25
100
AcDbLine
 10
329.716750128
 20
375.1016860977
 30
0.0
 11
330.0084316753
 21
374.8100045505
 31
0.0
  0
LINE
  5
23B
330
1F
100
AcDbEntity
  8
0
  6
Continuous
 62
     7
370
    25
100
AcDbLine
 10
36.8656823162
 20
225.1406182859
 30
0.0
 11
43.9367501282
 21
232.2116860977
 31
0.0
  0
ARC
  5
23C
330
1F
100
AcDbEntity
  8
0
  6
Continuous
 62
     7
370
    25
100
AcDbCircle
 10
35.743150301
 20
226.263150301
 30
0.0
 40
1.587500000000004
100
AcDbArc
 50
135.0
 51
315.0000000041
  0
LINE
  5
23D
330
1F
100
AcDbEntity
  8
0
  6
Continuous
 62
     7
370
    25
100
AcDbLine
 10
41.6916860979
 20
234.456750128
 30
0.0
 11
34.6206182859
 21
227.3856823161
 31
0.0
  0
LINE
  5
23E
330
1F
100
AcDbEntity
  8
0
  6
Continuous
 62
     7
370
    25
100
AcDbLine
 10
41.4000045507
 20
234.7484316752
 30
0.0
 11
41.6916860979
 21
234.456750128
 31
0.0
  0
LINE
  5
23F
330
1F
100
AcDbEntity
  8
0
  6
Continuous
 62
     7
370
    25
100
AcDbLine
 10
54.127926612
 20
247.4763537366
 30
0.0
 11
41.4000045507
 21
234.7484316752
 31
0.0
  0
LINE
  5
240
330
1F
100
AcDbEntity
  8
0
  6
Continuous
 62
     7
370
    25
100
AcDbLine
 10
54.4196081592
 20
247.1846721894
 30
0.0
 11
54.127926612
 21
247.4763537366
 31
0.0
  0
LINE
  5
241
330
1F
100
AcDbEntity
  8
0
  6
Continuous
 62
     7
370
    25
100
AcDbLine
 10
61.490675971
 20
254.2557400013
 30
0.0
 11
54.4196081592
 21
247.1846721894
 31
0.0
  0
ARC
  5
242
330
1F
100
AcDbEntity
  8
0
  6
Continuous
 62
     7
370
    25
100
AcDbCircle
 10
62.6132079861
 20
253.1332079861
 30
0.0
 40
1.587500000113412
100
AcDbArc
 50
315.0
 51
134.9999999959
  0
LINE
  5
243
330
1F
100
AcDbEntity
  8
0
  6
Continuous
 62
     7
370
    25
100
AcDbLine
 10
56.6646721895
 20
244.9396081591
 30
0.0
 11
63.7357400013
 21
252.0106759709
 31
0.0
  0
LINE
  5
244
330
1F
100
AcDbEntity
  8
0
  6
Continuous
 62
     7
370
    25
100
AcDbLine
 10
56.9563537368
 20
244.6479266118
 30
0.0
 11
56.6646721895
 21
244.9396081591
 31
0.0
  0
LINE
  5
245
330
1F
100
AcDbEntity
  8
0
  6
Continuous
 62
     7
370
    25
100
AcDbLine
 10
44.2284316754
 20
231.9200045505
 30
0.0
 11
56.9563537368
 21
244.6479266118
 31
0.0
  0
LINE
  5
246
330
1F
100
AcDbEntity
  8
0
  6
Continuous
 62
     7
370
    25
100
AcDbLine
 10
43.9367501282
 20
232.2116860977
 30
0.0
 11
44.2284316754
 21
231.9200045505
 31
0.0
  0
LINE
  5
247
330
1F
100
AcDbEntity
  8
0
  6
Continuous
 62
     7
370
    25
100
AcDbLine
 10
61.490675971
 20
301.8857400013
 30
0.0
 11
54.4196081592
 21
294.8146721894
 31
0.0
  0
ARC
  5
248
330
1F
100
AcDbEntity
  8
0
  6
Continuous
 62
     7
370
    25
100
AcDbCircle
 10
62.6132079861
 20
300.7632079861
 30
0.0
 40
1.587500000113608
100
AcDbArc
 50
315.0
 51
134.9999999959
  0
LINE
  5
249
330
1F
100
AcDbEntity
  8
0
  6
Continuous
 62
     7
370
    25
100
AcDbLine
 10
56.6646721895
 20
292.5696081591
 30
0.0
 11
63.7357400013
 21
299.6406759709
 31
0.0
  0
LINE
  5
24A
330
1F
100
AcDbEntity
  8
0
  6
Continuous
 62
     7
370
    25
100
AcDbLine
 10
56.9563537368
 20
292.2779266118
 30
0.0
 11
56.6646721895
 21
292.5696081591
 31
0.0
  0
LINE
  5
24B
330
1F
100
AcDbEntity
  8
0
  6
Continuous
 62
     7
370
    25
100
AcDbLine
 10
44.2284316754
 20
279.5500045505
 30
0.0
 11
56.9563537368
 21
292.2779266118
 31
0.0
  0
LINE
  5
24C
330
1F
100
AcDbEntity
  8
0
  6
Continuous
 62
     7
370
    25
100
AcDbLine
 10
43.9367501282
 20
279.8416860977
 30
0.0
 11
44.2284316754
 21
279.5500045505
 31
0.0
  0
LINE
  5
24D
330
1F
100
AcDbEntity
  8
0
  6
Continuous
 62
     7
370
    25
100
AcDbLine
 10
36.8656823162
 20
272.7706182859
 30
0.0
 11
43.9367501282
 21
279.8416860977
 31
0.0
  0
ARC
  5
24E
330
1F
100
AcDbEntity
  8
0
  6
Continuous
 62
     7
370
    25
100
AcDbCircle
 10
35.743150301
 20
273.893150301
 30
0.0
 40
1.587500000000049
100
AcDbArc
 50
135.0
 51
315.0000000041
  0
LINE
  5
24F
330
1F
100
AcDbEntity
  8
0
  6
Continuous
 62
     7
370
    25
100
AcDbLine
 10
41.6916860979
 20
282.086750128
 30
0.0
 11
34.6206182859
 21
275.0156823161
 31
0.0
  0
LINE
  5
250
330
1F
100
AcDbEntity
  8
0
  6
Continuous
 62
     7
370
    25
100
AcDbLine
 10
41.4000045507
 20
282.3784316752
 30
0.0
 11
41.6916860979
 21
282.086750128
 31
0.0
  0
LINE
  5
251
330
1F
100
AcDbEntity
  8
0
  6
Continuous
 62
     7
370
    25
100
AcDbLine
 10
54.127926612
 20
295.1063537366
 30
0.0
 11
41.4000045507
 21
282.3784316752
 31
0.0
  0
LINE
  5
252
330
1F
100
AcDbEntity
  8
0
  6
Continuous
 62
     7
370
    25
100
AcDbLine
 10
54.4196081592
 20
294.8146721894
 30
0.0
 11
54.127926612
 21
295.1063537366
 31
0.0
  0
LINE
  5
253
330
1F
100
AcDbEntity
  8
0
  6
Continuous
 62
     7
370
    25
100
AcDbLine
 10
61.490675971
 20
349.5157400013
 30
0.0
 11
54.4196081592
 21
342.4446721894
 31
0.0
  0
ARC
  5
254
330
1F
100
AcDbEntity
  8
0
  6
Continuous
 62
     7
370
    25
100
AcDbCircle
 10
62.6132079861
 20
348.3932079861
 30
0.0
 40
1.587500000113889
100
AcDbArc
 50
315.0
 51
134.9999999959
  0
LINE
  5
255
330
1F
100
AcDbEntity
  8
0
  6
Continuous
 62
     7
370
    25
100
AcDbLine
 10
56.6646721895
 20
340.1996081591
 30
0.0
 11
63.7357400013
 21
347.2706759709
 31
0.0
  0
LINE
  5
256
330
1F
100
AcDbEntity
  8
0
  6
Continuous
 62
     7
370
    25
100
AcDbLine
 10
56.9563537368
 20
339.9079266118
 30
0.0
 11
56.6646721895
 21
340.1996081591
 31
0.0
  0
LINE
  5
257
330
1F
100
AcDbEntity
  8
0
  6
Continuous
 62
     7
370
    25
100
AcDbLine
 10
44.2284316754
 20
327.1800045505
 30
0.0
 11
56.9563537368
 21
339.9079266118
 31
0.0
  0
LINE
  5
258
330
1F
100
AcDbEntity
  8
0
  6
Continuous
 62
     7
370
    25
100
AcDbLine
 10
43.9367501282
 20
327.4716860977
 30
0.0
 11
44.2284316754
 21
327.1800045505
 31
0.0
  0
LINE
  5
259
330
1F
100
AcDbEntity
  8
0
  6
Continuous
 62
     7
370
    25
100
AcDbLine
 10
36.8656823162
 20
320.4006182859
 30
0.0
 11
43.9367501282
 21
327.4716860977
 31
0.0
  0
ARC
  5
25A
330
1F
100
AcDbEntity
  8
0
  6
Continuous
 62
     7
370
    25
100
AcDbCircle
 10
35.743150301
 20
321.523150301
 30
0.0
 40
1.587500000000049
100
AcDbArc
 50
135.0
 51
315.0000000041
  0
LINE
  5
25B
330
1F
100
AcDbEntity
  8
0
  6
Continuous
 62
     7
370
    25
100
AcDbLine
 10
41.6916860979
 20
329.716750128
 30
0.0
 11
34.6206182859
 21
322.6456823161
 31
0.0
  0
LINE
  5
25C
330
1F
100
AcDbEntity
  8
0
  6
Continuous
 62
     7
370
    25
100
AcDbLine
 10
41.4000045507
 20
330.0084316752
 30
0.0
 11
41.6916860979
 21
329.716750128
 31
0.0
  0
LINE
  5
25D
330
1F
100
AcDbEntity
  8
0
  6
Continuous
 62
     7
370
    25
100
AcDbLine
 10
54.127926612
 20
342.7363537366
 30
0.0
 11
41.4000045507
 21
330.0084316752
 31
0.0
  0
LINE
  5
25E
330
1F
100
AcDbEntity
  8
0
  6
Continuous
 62
     7
370
    25
100
AcDbLine
 10
54.4196081592
 20
342.4446721894
 30
0.0
 11
54.127926612
 21
342.7363537366
 31
0.0
  0
LINE
  5
25F
330
1F
100
AcDbEntity
  8
0
  6
Continuous
 62
     7
370
    25
100
AcDbLine
 10
84.4956823162
 20
34.6206182859
 30
0.0
 11
91.5667501281
 21
41.6916860977
 31
0.0
  0
ARC
  5
260
330
1F
100
AcDbEntity
  8
0
  6
Continuous
 62
     7
370
    25
100
AcDbCircle
 10
83.373150301
 20
35.743150301
 30
0.0
 40
1.587500000000054
100
AcDbArc
 50
135.0
 51
315.0000000036
  0
LINE
  5
261
330
1F
100
AcDbEntity
  8
0
  6
Continuous
 62
     7
370
    25
100
AcDbLine
 10
89.3216860979
 20
43.936750128
 30
0.0
 11
82.2506182859
 21
36.8656823161
 31
0.0
  0
LINE
  5
262
330
1F
100
AcDbEntity
  8
0
  6
Continuous
 62
     7
370
    25
100
AcDbLine
 10
89.0300045506
 20
44.2284316752
 30
0.0
 11
89.3216860979
 21
43.936750128
 31
0.0
  0
LINE
  5
263
330
1F
100
AcDbEntity
  8
0
  6
Continuous
 62
     7
370
    25
100
AcDbLine
 10
101.757926612
 20
56.9563537366
 30
0.0
 11
89.0300045506
 21
44.2284316752
 31
0.0
  0
LINE
  5
264
330
1F
100
AcDbEntity
  8
0
  6
Continuous
 62
     7
370
    25
100
AcDbLine
 10
102.0496081592
 20
56.6646721894
 30
0.0
 11
101.757926612
 21
56.9563537366
 31
0.0
  0
LINE
  5
265
330
1F
100
AcDbEntity
  8
0
  6
Continuous
 62
     7
370
    25
100
AcDbLine
 10
109.120675971
 20
63.7357400013
 30
0.0
 11
102.0496081592
 21
56.6646721894
 31
0.0
  0
ARC
  5
266
330
1F
100
AcDbEntity
  8
0
  6
Continuous
 62
     7
370
    25
100
AcDbCircle
 10
110.2432079861
 20
62.6132079861
 30
0.0
 40
1.587500000095993
100
AcDbArc
 50
315.0
 51
134.9999999964
  0
LINE
  5
267
330
1F
100
AcDbEntity
  8
0
  6
Continuous
 62
     7
370
    25
100
AcDbLine
 10
104.2946721895
 20
54.4196081591
 30
0.0
 11
111.3657400013
 21
61.4906759709
 31
0.0
  0
LINE
  5
268
330
1F
100
AcDbEntity
  8
0
  6
Continuous
 62
     7
370
    25
100
AcDbLine
 10
104.5863537367
 20
54.1279266119
 30
0.0
 11
104.2946721895
 21
54.4196081591
 31
0.0
  0
LINE
  5
269
330
1F
100
AcDbEntity
  8
0
  6
Continuous
 62
     7
370
    25
100
AcDbLine
 10
91.8584316754
 20
41.4000045505
 30
0.0
 11
104.5863537367
 21
54.1279266119
 31
0.0
  0
LINE
  5
26A
330
1F
100
AcDbEntity
  8
0
  6
Continuous
 62
     7
370
    25
100
AcDbLine
 10
91.5667501281
 20
41.6916860977
 30
0.0
 11
91.8584316754
 21
41.4000045505
 31
0.0
  0
LINE
  5
26B
330
1F
100
AcDbEntity
  8
0
  6
Continuous
 62
     7
370
    25
100
AcDbLine
 10
36.8656823162
 20
177.5106182859
 30
0.0
 11
43.9367501282
 21
184.5816860977
 31
0.0
  0
ARC
  5
26C
330
1F
100
AcDbEntity
  8
0
  6
Continuous
 62
     7
370
    25
100
AcDbCircle
 10
35.743150301
 20
178.633150301
 30
0.0
 40
1.587500000000064
100
AcDbArc
 50
135.0
 51
315.0000000042
  0
LINE
  5
26D
330
1F
100
AcDbEntity
  8
0
  6
Continuous
 62
     7
370
    25
100
AcDbLine
 10
41.6916860979
 20
186.826750128
 30
0.0
 11
34.6206182859
 21
179.7556823161
 31
0.0
  0
LINE
  5
26E
330
1F
100
AcDbEntity
  8
0
  6
Continuous
 62
     7
370
    25
100
AcDbLine
 10
41.4000045507
 20
187.1184316752
 30
0.0
 11
41.6916860979
 21
186.826750128
 31
0.0
  0
LINE
  5
26F
330
1F
100
AcDbEntity
  8
0
  6
Continuous
 62
     7
370
    25
100
AcDbLine
 10
54.127926612
 20
199.8463537366
 30
0.0
 11
41.4000045507
 21
187.1184316752
 31
0.0
  0
LINE
  5
270
330
1F
100
AcDbEntity
  8
0
  6
Continuous
 62
     7
370
    25
100
AcDbLine
 10
54.4196081592
 20
199.5546721894
 30
0.0
 11
54.127926612
 21
199.8463537366
 31
0.0
  0
LINE
  5
271
330
1F
100
AcDbEntity
  8
0
  6
Continuous
 62
     7
370
    25
100
AcDbLine
 10
61.490675971
 20
206.6257400013
 30
0.0
 11
54.4196081592
 21
199.5546721894
 31
0.0
  0
ARC
  5
272
330
1F
100
AcDbEntity
  8
0
  6
Continuous
 62
     7
370
    25
100
AcDbCircle
 10
62.6132079861
 20
205.5032079861
 30
0.0
 40
1.587500000113055
100
AcDbArc
 50
315.0
 51
134.9999999958
  0
LINE
  5
273
330
1F
100
AcDbEntity
  8
0
  6
Continuous
 62
     7
370
    25
100
AcDbLine
 10
56.6646721895
 20
197.3096081591
 30
0.0
 11
63.7357400013
 21
204.3806759709
 31
0.0
  0
LINE
  5
274
330
1F
100
AcDbEntity
  8
0
  6
Continuous
 62
     7
370
    25
100
AcDbLine
 10
56.9563537368
 20
197.0179266119
 30
0.0
 11
56.6646721895
 21
197.3096081591
 31
0.0
  0
LINE
  5
275
330
1F
100
AcDbEntity
  8
0
  6
Continuous
 62
     7
370
    25
100
AcDbLine
 10
44.2284316754
 20
184.2900045505
 30
0.0
 11
56.9563537368
 21
197.0179266119
 31
0.0
  0
LINE
  5
276
330
1F
100
AcDbEntity
  8
0
  6
Continuous
 62
     7
370
    25
100
AcDbLine
 10
43.9367501282
 20
184.5816860977
 30
0.0
 11
44.2284316754
 21
184.2900045505
 31
0.0
  0
LINE
  5
277
330
1F
100
AcDbEntity
  8
0
  6
Continuous
 62
     7
370
    25
100
AcDbLine
 10
36.8656823162
 20
129.8806182859
 30
0.0
 11
43.9367501282
 21
136.9516860977
 31
0.0
  0
ARC
  5
278
330
1F
100
AcDbEntity
  8
0
  6
Continuous
 62
     7
370
    25
100
AcDbCircle
 10
35.743150301
 20
131.003150301
 30
0.0
 40
1.587500000000059
100
AcDbArc
 50
135.0
 51
315.0000000042
  0
LINE
  5
279
330
1F
100
AcDbEntity
  8
0
  6
Continuous
 62
     7
370
    25
100
AcDbLine
 10
41.6916860979
 20
139.196750128
 30
0.0
 11
34.6206182859
 21
132.1256823161
 31
0.0
  0
LINE
  5
27A
330
1F
100
AcDbEntity
  8
0
  6
Continuous
 62
     7
370
    25
100
AcDbLine
 10
41.4000045507
 20
139.4884316752
 30
0.0
 11
41.6916860979
 21
139.196750128
 31
0.0
  0
LINE
  5
27B
330
1F
100
AcDbEntity
  8
0
  6
Continuous
 62
     7
370
    25
100
AcDbLine
 10
54.127926612
 20
152.2163537366
 30
0.0
 11
41.4000045507
 21
139.4884316752
 31
0.0
  0
LINE
  5
27C
330
1F
100
AcDbEntity
  8
0
  6
Continuous
 62
     7
370
    25
100
AcDbLine
 10
54.4196081592
 20
151.9246721894
 30
0.0
 11
54.127926612
 21
152.2163537366
 31
0.0
  0
LINE
  5
27D
330
1F
100
AcDbEntity
  8
0
  6
Continuous
 62
     7
370
    25
100
AcDbLine
 10
61.490675971
 20
158.9957400013
 30
0.0
 11
54.4196081592
 21
151.9246721894
 31
0.0
  0
ARC
  5
27E
330
1F
100
AcDbEntity
  8
0
  6
Continuous
 62
     7
370
    25
100
AcDbCircle
 10
62.6132079861
 20
157.8732079861
 30
0.0
 40
1.587500000112834
100
AcDbArc
 50
315.0
 51
134.9999999958
  0
LINE
  5
27F
330
1F
100
AcDbEntity
  8
0
  6
Continuous
 62
     7
370
    25
100
AcDbLine
 10
56.6646721895
 20
149.6796081591
 30
0.0
 11
63.7357400013
 21
156.7506759709
 31
0.0
  0
LINE
  5
280
330
1F
100
AcDbEntity
  8
0
  6
Continuous
 62
     7
370
    25
100
AcDbLine
 10
56.9563537368
 20
149.3879266119
 30
0.0
 11
56.6646721895
 21
149.6796081591
 31
0.0
  0
LINE
  5
281
330
1F
100
AcDbEntity
  8
0
  6
Continuous
 62
     7
370
    25
100
AcDbLine
 10
44.2284316754
 20
136.6600045505
 30
0.0
 11
56.9563537368
 21
149.3879266119
 31
0.0
  0
LINE
  5
282
330
1F
100
AcDbEntity
  8
0
  6
Continuous
 62
     7
370
    25
100
AcDbLine
 10
43.9367501282
 20
136.9516860977
 30
0.0
 11
44.2284316754
 21
136.6600045505
 31
0.0
  0
LINE
  5
283
330
1F
100
AcDbEntity
  8
0
  6
Continuous
 62
     7
370
    25
100
AcDbLine
 10
36.8656823162
 20
82.2506182859
 30
0.0
 11
43.9367501282
 21
89.3216860977
 31
0.0
  0
ARC
  5
284
330
1F
100
AcDbEntity
  8
0
  6
Continuous
 62
     7
370
    25
100
AcDbCircle
 10
35.743150301
 20
83.373150301
 30
0.0
 40
1.587500000000049
100
AcDbArc
 50
135.0
 51
315.0000000042
  0
LINE
  5
285
330
1F
100
AcDbEntity
  8
0
  6
Continuous
 62
     7
370
    25
100
AcDbLine
 10
41.6916860979
 20
91.566750128
 30
0.0
 11
34.6206182859
 21
84.4956823161
 31
0.0
  0
LINE
  5
286
330
1F
100
AcDbEntity
  8
0
  6
Continuous
 62
     7
370
    25
100
AcDbLine
 10
41.4000045507
 20
91.8584316752
 30
0.0
 11
41.6916860979
 21
91.566750128
 31
0.0
  0
LINE
  5
287
330
1F
100
AcDbEntity
  8
0
  6
Continuous
 62
     7
370
    25
100
AcDbLine
 10
54.127926612
 20
104.5863537366
 30
0.0
 11
41.4000045507
 21
91.8584316752
 31
0.0
  0
LINE
  5
288
330
1F
100
AcDbEntity
  8
0
  6
Continuous
 62
     7
370
    25
100
AcDbLine
 10
54.4196081592
 20
104.2946721894
 30
0.0
 11
54.127926612
 21
104.5863537366
 31
0.0
  0
LINE
  5
289
330
1F
100
AcDbEntity
  8
0
  6
Continuous
 62
     7
370
    25
100
AcDbLine
 10
61.490675971
 20
111.3657400013
 30
0.0
 11
54.4196081592
 21
104.2946721894
 31
0.0
  0
ARC
  5
28A
330
1F
100
AcDbEntity
  8
0
  6
Continuous
 62
     7
370
    25
100
AcDbCircle
 10
62.6132079861
 20
110.2432079861
 30
0.0
 40
1.587500000112588
100
AcDbArc
 50
315.0
 51
134.9999999958
  0
LINE
  5
28B
330
1F
100
AcDbEntity
  8
0
  6
Continuous
 62
     7
370
    25
100
AcDbLine
 10
56.6646721895
 20
102.0496081591
 30
0.0
 11
63.7357400013
 21
109.1206759709
 31
0.0
  0
LINE
  5
28C
330
1F
100
AcDbEntity
  8
0
  6
Continuous
 62
     7
370
    25
100
AcDbLine
 10
56.9563537368
 20
101.7579266119
 30
0.0
 11
56.6646721895
 21
102.0496081591
 31
0.0
  0
LINE
  5
28D
330
1F
100
AcDbEntity
  8
0
  6
Continuous
 62
     7
370
    25
100
AcDbLine
 10
44.2284316754
 20
89.0300045505
 30
0.0
 11
56.9563537368
 21
101.7579266119
 31
0.0
  0
LINE
  5
28E
330
1F
100
AcDbEntity
  8
0
  6
Continuous
 62
     7
370
    25
100
AcDbLine
 10
43.9367501282
 20
89.3216860977
 30
0.0
 11
44.2284316754
 21
89.0300045505
 31
0.0
  0
LINE
  5
28F
330
1F
100
AcDbEntity
  8
0
  6
Continuous
 62
     7
370
    25
100
AcDbLine
 10
61.490675971
 20
63.7357400013
 30
0.0
 11
54.4196081592
 21
56.6646721894
 31
0.0
  0
ARC
  5
290
330
1F
100
AcDbEntity
  8
0
  6
Continuous
 62
     7
370
    25
100
AcDbCircle
 10
62.6132079861
 20
62.6132079861
 30
0.0
 40
1.587500000112317
100
AcDbArc
 50
315.0
 51
134.9999999958
  0
LINE
  5
291
330
1F
100
AcDbEntity
  8
0
  6
Continuous
 62
     7
370
    25
100
AcDbLine
 10
56.6646721895
 20
54.4196081591
 30
0.0
 11
63.7357400013
 21
61.4906759709
 31
0.0
  0
LINE
  5
292
330
1F
100
AcDbEntity
  8
0
  6
Continuous
 62
     7
370
    25
100
AcDbLine
 10
56.9563537368
 20
54.1279266119
 30
0.0
 11
56.6646721895
 21
54.4196081591
 31
0.0
  0
LINE
  5
293
330
1F
100
AcDbEntity
  8
0
  6
Continuous
 62
     7
370
    25
100
AcDbLine
 10
44.2284316754
 20
41.4000045505
 30
0.0
 11
56.9563537368
 21
54.1279266119
 31
0.0
  0
LINE
  5
294
330
1F
100
AcDbEntity
  8
0
  6
Continuous
 62
     7
370
    25
100
AcDbLine
 10
43.9367501282
 20
41.6916860977
 30
0.0
 11
44.2284316754
 21
41.4000045505
 31
0.0
  0
LINE
  5
295
330
1F
100
AcDbEntity
  8
0
  6
Continuous
 62
     7
370
    25
100
AcDbLine
 10
36.8656823162
 20
34.6206182859
 30
0.0
 11
43.9367501282
 21
41.6916860977
 31
0.0
  0
ARC
  5
296
330
1F
100
AcDbEntity
  8
0
  6
Continuous
 62
     7
370
    25
100
AcDbCircle
 10
35.743150301
 20
35.743150301
 30
0.0
 40
1.587500000000054
100
AcDbArc
 50
135.0
 51
315.0000000042
  0
LINE
  5
297
330
1F
100
AcDbEntity
  8
0
  6
Continuous
 62
     7
370
    25
100
AcDbLine
 10
41.6916860979
 20
43.936750128
 30
0.0
 11
34.6206182859
 21
36.8656823161
 31
0.0
  0
LINE
  5
298
330
1F
100
AcDbEntity
  8
0
  6
Continuous
 62
     7
370
    25
100
AcDbLine
 10
41.4000045507
 20
44.2284316752
 30
0.0
 11
41.6916860979
 21
43.936750128
 31
0.0
  0
LINE
  5
299
330
1F
100
AcDbEntity
  8
0
  6
Continuous
 62
     7
370
    25
100
AcDbLine
 10
54.127926612
 20
56.9563537366
 30
0.0
 11
41.4000045507
 21
44.2284316752
 31
0.0
  0
LINE
  5
29A
330
1F
100
AcDbEntity
  8
0
  6
Continuous
 62
     7
370
    25
100
AcDbLine
 10
54.4196081592
 20
56.6646721894
 30
0.0
 11
54.127926612
 21
56.9563537366
 31
0.0
  0
LINE
  5
29B
330
1F
100
AcDbEntity
  8
0
  6
Continuous
 62
     7
370
    25
100
AcDbLine
 10
156.750675971
 20
158.9957400013
 30
0.0
 11
149.6796081592
 21
151.9246721894
 31
0.0
  0
ARC
  5
29C
330
1F
100
AcDbEntity
  8
0
  6
Continuous
 62
     7
370
    25
100
AcDbCircle
 10
157.8732079861
 20
157.8732079861
 30
0.0
 40
1.587500000080207
100
AcDbArc
 50
315.0
 51
134.999999997
  0
LINE
  5
29D
330
1F
100
AcDbEntity
  8
0
  6
Continuous
 62
     7
370
    25
100
AcDbLine
 10
151.9246721895
 20
149.6796081591
 30
0.0
 11
158.9957400013
 21
156.7506759709
 31
0.0
  0
LINE
  5
29E
330
1F
100
AcDbEntity
  8
0
  6
Continuous
 62
     7
370
    25
100
AcDbLine
 10
152.2163537367
 20
149.3879266119
 30
0.0
 11
151.9246721895
 21
149.6796081591
 31
0.0
  0
LINE
  5
29F
330
1F
100
AcDbEntity
  8
0
  6
Continuous
 62
     7
370
    25
100
AcDbLine
 10
139.4884316754
 20
136.6600045505
 30
0.0
 11
152.2163537367
 21
149.3879266119
 31
0.0
  0
LINE
  5
2A0
330
1F
100
AcDbEntity
  8
0
  6
Continuous
 62
     7
370
    25
100
AcDbLine
 10
139.1967501281
 20
136.9516860977
 30
0.0
 11
139.4884316754
 21
136.6600045505
 31
0.0
  0
LINE
  5
2A1
330
1F
100
AcDbEntity
  8
0
  6
Continuous
 62
     7
370
    25
100
AcDbLine
 10
132.1256823162
 20
129.8806182859
 30
0.0
 11
139.1967501281
 21
136.9516860977
 31
0.0
  0
ARC
  5
2A2
330
1F
100
AcDbEntity
  8
0
  6
Continuous
 62
     7
370
    25
100
AcDbCircle
 10
131.003150301
 20
131.003150301
 30
0.0
 40
1.587500000000059
100
AcDbArc
 50
135.0
 51
315.000000003
  0
LINE
  5
2A3
330
1F
100
AcDbEntity
  8
0
  6
Continuous
 62
     7
370
    25
100
AcDbLine
 10
136.9516860978
 20
139.196750128
 30
0.0
 11
129.8806182859
 21
132.1256823161
 31
0.0
  0
LINE
  5
2A4
330
1F
100
AcDbEntity
  8
0
  6
Continuous
 62
     7
370
    25
100
AcDbLine
 10
136.6600045506
 20
139.4884316752
 30
0.0
 11
136.9516860978
 21
139.196750128
 31
0.0
  0
LINE
  5
2A5
330
1F
100
AcDbEntity
  8
0
  6
Continuous
 62
     7
370
    25
100
AcDbLine
 10
149.387926612
 20
152.2163537366
 30
0.0
 11
136.6600045506
 21
139.4884316752
 31
0.0
  0
LINE
  5
2A6
330
1F
100
AcDbEntity
  8
0
  6
Continuous
 62
     7
370
    25
100
AcDbLine
 10
149.6796081592
 20
151.9246721894
 30
0.0
 11
149.387926612
 21
152.2163537366
 31
0.0
  0
LINE
  5
2A7
330
1F
100
AcDbEntity
  8
0
  6
Continuous
 62
     7
370
    25
100
AcDbLine
 10
132.1256823162
 20
177.5106182859
 30
0.0
 11
139.1967501281
 21
184.5816860977
 31
0.0
  0
ARC
  5
2A8
330
1F
100
AcDbEntity
  8
0
  6
Continuous
 62
     7
370
    25
100
AcDbCircle
 10
131.003150301
 20
178.633150301
 30
0.0
 40
1.587500000000039
100
AcDbArc
 50
135.0
 51
315.000000003
  0
LINE
  5
2A9
330
1F
100
AcDbEntity
  8
0
  6
Continuous
 62
     7
370
    25
100
AcDbLine
 10
136.9516860978
 20
186.826750128
 30
0.0
 11
129.8806182859
 21
179.7556823161
 31
0.0
  0
LINE
  5
2AA
330
1F
100
AcDbEntity
  8
0
  6
Continuous
 62
     7
370
    25
100
AcDbLine
 10
136.6600045506
 20
187.1184316752
 30
0.0
 11
136.9516860978
 21
186.826750128
 31
0.0
  0
LINE
  5
2AB
330
1F
100
AcDbEntity
  8
0
  6
Continuous
 62
     7
370
    25
100
AcDbLine
 10
149.387926612
 20
199.8463537366
 30
0.0
 11
136.6600045506
 21
187.1184316752
 31
0.0
  0
LINE
  5
2AC
330
1F
100
AcDbEntity
  8
0
  6
Continuous
 62
     7
370
    25
100
AcDbLine
 10
149.6796081592
 20
199.5546721894
 30
0.0
 11
149.387926612
 21
199.8463537366
 31
0.0
  0
LINE
  5
2AD
330
1F
100
AcDbEntity
  8
0
  6
Continuous
 62
     7
370
    25
100
AcDbLine
 10
156.750675971
 20
206.6257400013
 30
0.0
 11
149.6796081592
 21
199.5546721894
 31
0.0
  0
ARC
  5
2AE
330
1F
100
AcDbEntity
  8
0
  6
Continuous
 62
     7
370
    25
100
AcDbCircle
 10
157.8732079861
 20
205.5032079861
 30
0.0
 40
1.587500000080468
100
AcDbArc
 50
315.0
 51
134.999999997
  0
LINE
  5
2AF
330
1F
100
AcDbEntity
  8
0
  6
Continuous
 62
     7
370
    25
100
AcDbLine
 10
151.9246721895
 20
197.3096081591
 30
0.0
 11
158.9957400013
 21
204.3806759709
 31
0.0
  0
LINE
  5
2B0
330
1F
100
AcDbEntity
  8
0
  6
Continuous
 62
     7
370
    25
100
AcDbLine
 10
152.2163537367
 20
197.0179266119
 30
0.0
 11
151.9246721895
 21
197.3096081591
 31
0.0
  0
LINE
  5
2B1
330
1F
100
AcDbEntity
  8
0
  6
Continuous
 62
     7
370
    25
100
AcDbLine
 10
139.4884316754
 20
184.2900045505
 30
0.0
 11
152.2163537367
 21
197.0179266119
 31
0.0
  0
LINE
  5
2B2
330
1F
100
AcDbEntity
  8
0
  6
Continuous
 62
     7
370
    25
100
AcDbLine
 10
139.1967501281
 20
184.5816860977
 30
0.0
 11
139.4884316754
 21
184.2900045505
 31
0.0
  0
LINE
  5
2B3
330
1F
100
AcDbEntity
  8
0
  6
Continuous
 62
     7
370
    25
100
AcDbLine
 10
132.1256823162
 20
225.1406182859
 30
0.0
 11
139.1967501281
 21
232.2116860977
 31
0.0
  0
ARC
  5
2B4
330
1F
100
AcDbEntity
  8
0
  6
Continuous
 62
     7
370
    25
100
AcDbCircle
 10
131.003150301
 20
226.263150301
 30
0.0
 40
1.587500000000019
100
AcDbArc
 50
135.0
 51
315.000000003
  0
LINE
  5
2B5
330
1F
100
AcDbEntity
  8
0
  6
Continuous
 62
     7
370
    25
100
AcDbLine
 10
136.9516860978
 20
234.456750128
 30
0.0
 11
129.8806182859
 21
227.3856823161
 31
0.0
  0
LINE
  5
2B6
330
1F
100
AcDbEntity
  8
0
  6
Continuous
 62
     7
370
    25
100
AcDbLine
 10
136.6600045506
 20
234.7484316752
 30
0.0
 11
136.9516860978
 21
234.456750128
 31
0.0
  0
LINE
  5
2B7
330
1F
100
AcDbEntity
  8
0
  6
Continuous
 62
     7
370
    25
100
AcDbLine
 10
149.387926612
 20
247.4763537366
 30
0.0
 11
136.6600045506
 21
234.7484316752
 31
0.0
  0
LINE
  5
2B8
330
1F
100
AcDbEntity
  8
0
  6
Continuous
 62
     7
370
    25
100
AcDbLine
 10
149.6796081592
 20
247.1846721894
 30
0.0
 11
149.387926612
 21
247.4763537366
 31
0.0
  0
LINE
  5
2B9
330
1F
100
AcDbEntity
  8
0
  6
Continuous
 62
     7
370
    25
100
AcDbLine
 10
156.750675971
 20
254.2557400013
 30
0.0
 11
149.6796081592
 21
247.1846721894
 31
0.0
  0
ARC
  5
2BA
330
1F
100
AcDbEntity
  8
0
  6
Continuous
 62
     7
370
    25
100
AcDbCircle
 10
157.8732079861
 20
253.1332079861
 30
0.0
 40
1.587500000080749
100
AcDbArc
 50
315.0
 51
134.999999997
  0
LINE
  5
2BB
330
1F
100
AcDbEntity
  8
0
  6
Continuous
 62
     7
370
    25
100
AcDbLine
 10
151.9246721895
 20
244.9396081591
 30
0.0
 11
158.9957400013
 21
252.0106759709
 31
0.0
  0
LINE
  5
2BC
330
1F
100
AcDbEntity
  8
0
  6
Continuous
 62
     7
370
    25
100
AcDbLine
 10
152.2163537367
 20
244.6479266118
 30
0.0
 11
151.9246721895
 21
244.9396081591
 31
0.0
  0
LINE
  5
2BD
330
1F
100
AcDbEntity
  8
0
  6
Continuous
 62
     7
370
    25
100
AcDbLine
 10
139.4884316754
 20
231.9200045505
 30
0.0
 11
152.2163537367
 21
244.6479266118
 31
0.0
  0
LINE
  5
2BE
330
1F
100
AcDbEntity
  8
0
  6
Continuous
 62
     7
370
    25
100
AcDbLine
 10
139.1967501281
 20
232.2116860977
 30
0.0
 11
139.4884316754
 21
231.9200045505
 31
0.0
  0
LINE
  5
2BF
330
1F
100
AcDbEntity
  8
0
  6
Continuous
 62
     7
370
    25
100
AcDbLine
 10
132.1256823162
 20
272.7706182859
 30
0.0
 11
139.1967501281
 21
279.8416860977
 31
0.0
  0
ARC
  5
2C0
330
1F
100
AcDbEntity
  8
0
  6
Continuous
 62
     7
370
    25
100
AcDbCircle
 10
131.003150301
 20
273.893150301
 30
0.0
 40
1.587500000000059
100
AcDbArc
 50
135.0
 51
315.000000003
  0
LINE
  5
2C1
330
1F
100
AcDbEntity
  8
0
  6
Continuous
 62
     7
370
    25
100
AcDbLine
 10
136.9516860978
 20
282.086750128
 30
0.0
 11
129.8806182859
 21
275.0156823161
 31
0.0
  0
LINE
  5
2C2
330
1F
100
AcDbEntity
  8
0
  6
Continuous
 62
     7
370
    25
100
AcDbLine
 10
136.6600045506
 20
282.3784316752
 30
0.0
 11
136.9516860978
 21
282.086750128
 31
0.0
  0
LINE
  5
2C3
330
1F
100
AcDbEntity
  8
0
  6
Continuous
 62
     7
370
    25
100
AcDbLine
 10
149.387926612
 20
295.1063537366
 30
0.0
 11
136.6600045506
 21
282.3784316752
 31
0.0
  0
LINE
  5
2C4
330
1F
100
AcDbEntity
  8
0
  6
Continuous
 62
     7
370
    25
100
AcDbLine
 10
149.6796081592
 20
294.8146721894
 30
0.0
 11
149.387926612
 21
295.1063537366
 31
0.0
  0
LINE
  5
2C5
330
1F
100
AcDbEntity
  8
0
  6
Continuous
 62
     7
370
    25
100
AcDbLine
 10
156.750675971
 20
301.8857400013
 30
0.0
 11
149.6796081592
 21
294.8146721894
 31
0.0
  0
ARC
  5
2C6
330
1F
100
AcDbEntity
  8
0
  6
Continuous
 62
     7
370
    25
100
AcDbCircle
 10
157.8732079861
 20
300.7632079861
 30
0.0
 40
1.58750000008101
100
AcDbArc
 50
315.0
 51
134.999999997
  0
LINE
  5
2C7
330
1F
100
AcDbEntity
  8
0
  6
Continuous
 62
     7
370
    25
100
AcDbLine
 10
151.9246721895
 20
292.5696081591
 30
0.0
 11
158.9957400013
 21
299.6406759709
 31
0.0
  0
LINE
  5
2C8
330
1F
100
AcDbEntity
  8
0
  6
Continuous
 62
     7
370
    25
100
AcDbLine
 10
152.2163537367
 20
292.2779266118
 30
0.0
 11
151.9246721895
 21
292.5696081591
 31
0.0
  0
LINE
  5
2C9
330
1F
100
AcDbEntity
  8
0
  6
Continuous
 62
     7
370
    25
100
AcDbLine
 10
139.4884316754
 20
279.5500045505
 30
0.0
 11
152.2163537367
 21
292.2779266118
 31
0.0
  0
LINE
  5
2CA
330
1F
100
AcDbEntity
  8
0
  6
Continuous
 62
     7
370
    25
100
AcDbLine
 10
139.1967501281
 20
279.8416860977
 30
0.0
 11
139.4884316754
 21
279.5500045505
 31
0.0
  0
LINE
  5
2CB
330
1F
100
AcDbEntity
  8
0
  6
Continuous
 62
     7
370
    25
100
AcDbLine
 10
204.380675971
 20
158.9957400013
 30
0.0
 11
197.3096081592
 21
151.9246721894
 31
0.0
  0
ARC
  5
2CC
330
1F
100
AcDbEntity
  8
0
  6
Continuous
 62
     7
370
    25
100
AcDbCircle
 10
205.5032079861
 20
157.8732079861
 30
0.0
 40
1.587500000063908
100
AcDbArc
 50
315.0
 51
134.9999999976
  0
LINE
  5
2CD
330
1F
100
AcDbEntity
  8
0
  6
Continuous
 62
     7
370
    25
100
AcDbLine
 10
199.5546721894
 20
149.6796081591
 30
0.0
 11
206.6257400013
 21
156.7506759709
 31
0.0
  0
LINE
  5
2CE
330
1F
100
AcDbEntity
  8
0
  6
Continuous
 62
     7
370
    25
100
AcDbLine
 10
199.8463537367
 20
149.3879266119
 30
0.0
 11
199.5546721894
 21
149.6796081591
 31
0.0
  0
LINE
  5
2CF
330
1F
100
AcDbEntity
  8
0
  6
Continuous
 62
     7
370
    25
100
AcDbLine
 10
187.1184316753
 20
136.6600045505
 30
0.0
 11
199.8463537367
 21
149.3879266119
 31
0.0
  0
LINE
  5
2D0
330
1F
100
AcDbEntity
  8
0
  6
Continuous
 62
     7
370
    25
100
AcDbLine
 10
186.8267501281
 20
136.9516860977
 30
0.0
 11
187.1184316753
 21
136.6600045505
 31
0.0
  0
LINE
  5
2D1
330
1F
100
AcDbEntity
  8
0
  6
Continuous
 62
     7
370
    25
100
AcDbLine
 10
179.7556823162
 20
129.8806182859
 30
0.0
 11
186.8267501281
 21
136.9516860977
 31
0.0
  0
ARC
  5
2D2
330
1F
100
AcDbEntity
  8
0
  6
Continuous
 62
     7
370
    25
100
AcDbCircle
 10
178.633150301
 20
131.003150301
 30
0.0
 40
1.587500000000059
100
AcDbArc
 50
135.0
 51
315.0000000024
  0
LINE
  5
2D3
330
1F
100
AcDbEntity
  8
0
  6
Continuous
 62
     7
370
    25
100
AcDbLine
 10
184.5816860978
 20
139.196750128
 30
0.0
 11
177.5106182859
 21
132.1256823161
 31
0.0
  0
LINE
  5
2D4
330
1F
100
AcDbEntity
  8
0
  6
Continuous
 62
     7
370
    25
100
AcDbLine
 10
184.2900045506
 20
139.4884316752
 30
0.0
 11
184.5816860978
 21
139.196750128
 31
0.0
  0
LINE
  5
2D5
330
1F
100
AcDbEntity
  8
0
  6
Continuous
 62
     7
370
    25
100
AcDbLine
 10
197.0179266119
 20
152.2163537366
 30
0.0
 11
184.2900045506
 21
139.4884316752
 31
0.0
  0
LINE
  5
2D6
330
1F
100
AcDbEntity
  8
0
  6
Continuous
 62
     7
370
    25
100
AcDbLine
 10
197.3096081592
 20
151.9246721894
 30
0.0
 11
197.0179266119
 21
152.2163537366
 31
0.0
  0
LINE
  5
2D7
330
1F
100
AcDbEntity
  8
0
  6
Continuous
 62
     7
370
    25
100
AcDbLine
 10
204.380675971
 20
111.3657400013
 30
0.0
 11
197.3096081592
 21
104.2946721894
 31
0.0
  0
ARC
  5
2D8
330
1F
100
AcDbEntity
  8
0
  6
Continuous
 62
     7
370
    25
100
AcDbCircle
 10
205.5032079861
 20
110.2432079861
 30
0.0
 40
1.587500000063657
100
AcDbArc
 50
315.0
 51
134.9999999976
  0
LINE
  5
2D9
330
1F
100
AcDbEntity
  8
0
  6
Continuous
 62
     7
370
    25
100
AcDbLine
 10
199.5546721894
 20
102.0496081591
 30
0.0
 11
206.6257400013
 21
109.1206759709
 31
0.0
  0
LINE
  5
2DA
330
1F
100
AcDbEntity
  8
0
  6
Continuous
 62
     7
370
    25
100
AcDbLine
 10
199.8463537367
 20
101.7579266119
 30
0.0
 11
199.5546721894
 21
102.0496081591
 31
0.0
  0
LINE
  5
2DB
330
1F
100
AcDbEntity
  8
0
  6
Continuous
 62
     7
370
    25
100
AcDbLine
 10
187.1184316753
 20
89.0300045505
 30
0.0
 11
199.8463537367
 21
101.7579266119
 31
0.0
  0
LINE
  5
2DC
330
1F
100
AcDbEntity
  8
0
  6
Continuous
 62
     7
370
    25
100
AcDbLine
 10
186.8267501281
 20
89.3216860977
 30
0.0
 11
187.1184316753
 21
89.0300045505
 31
0.0
  0
LINE
  5
2DD
330
1F
100
AcDbEntity
  8
0
  6
Continuous
 62
     7
370
    25
100
AcDbLine
 10
179.7556823162
 20
82.2506182859
 30
0.0
 11
186.8267501281
 21
89.3216860977
 31
0.0
  0
ARC
  5
2DE
330
1F
100
AcDbEntity
  8
0
  6
Continuous
 62
     7
370
    25
100
AcDbCircle
 10
178.633150301
 20
83.373150301
 30
0.0
 40
1.587500000000049
100
AcDbArc
 50
135.0
 51
315.0000000024
  0
LINE
  5
2DF
330
1F
100
AcDbEntity
  8
0
  6
Continuous
 62
     7
370
    25
100
AcDbLine
 10
184.5816860978
 20
91.566750128
 30
0.0
 11
177.5106182859
 21
84.4956823161
 31
0.0
  0
LINE
  5
2E0
330
1F
100
AcDbEntity
  8
0
  6
Continuous
 62
     7
370
    25
100
AcDbLine
 10
184.2900045506
 20
91.8584316752
 30
0.0
 11
184.5816860978
 21
91.566750128
 31
0.0
  0
LINE
  5
2E1
330
1F
100
AcDbEntity
  8
0
  6
Continuous
 62
     7
370
    25
100
AcDbLine
 10
197.0179266119
 20
104.5863537366
 30
0.0
 11
184.2900045506
 21
91.8584316752
 31
0.0
  0
LINE
  5
2E2
330
1F
100
AcDbEntity
  8
0
  6
Continuous
 62
     7
370
    25
100
AcDbLine
 10
197.3096081592
 20
104.2946721894
 30
0.0
 11
197.0179266119
 21
104.5863537366
 31
0.0
  0
LINE
  5
2E3
330
1F
100
AcDbEntity
  8
0
  6
Continuous
 62
     7
370
    25
100
AcDbLine
 10
179.7556823162
 20
34.6206182859
 30
0.0
 11
186.8267501281
 21
41.6916860977
 31
0.0
  0
ARC
  5
2E4
330
1F
100
AcDbEntity
  8
0
  6
Continuous
 62
     7
370
    25
100
AcDbCircle
 10
178.633150301
 20
35.743150301
 30
0.0
 40
1.587500000000054
100
AcDbArc
 50
135.0
 51
315.0000000024
  0
LINE
  5
2E5
330
1F
100
AcDbEntity
  8
0
  6
Continuous
 62
     7
370
    25
100
AcDbLine
 10
184.5816860978
 20
43.936750128
 30
0.0
 11
177.5106182859
 21
36.8656823161
 31
0.0
  0
LINE
  5
2E6
330
1F
100
AcDbEntity
  8
0
  6
Continuous
 62
     7
370
    25
100
AcDbLine
 10
184.2900045506
 20
44.2284316752
 30
0.0
 11
184.5816860978
 21
43.936750128
 31
0.0
  0
LINE
  5
2E7
330
1F
100
AcDbEntity
  8
0
  6
Continuous
 62
     7
370
    25
100
AcDbLine
 10
197.0179266119
 20
56.9563537366
 30
0.0
 11
184.2900045506
 21
44.2284316752
 31
0.0
  0
LINE
  5
2E8
330
1F
100
AcDbEntity
  8
0
  6
Continuous
 62
     7
370
    25
100
AcDbLine
 10
197.3096081592
 20
56.6646721894
 30
0.0
 11
197.0179266119
 21
56.9563537366
 31
0.0
  0
LINE
  5
2E9
330
1F
100
AcDbEntity
  8
0
  6
Continuous
 62
     7
370
    25
100
AcDbLine
 10
204.380675971
 20
63.7357400013
 30
0.0
 11
197.3096081592
 21
56.6646721894
 31
0.0
  0
ARC
  5
2EA
330
1F
100
AcDbEntity
  8
0
  6
Continuous
 62
     7
370
    25
100
AcDbCircle
 10
205.5032079861
 20
62.6132079861
 30
0.0
 40
1.587500000063466
100
AcDbArc
 50
315.0
 51
134.9999999976
  0
LINE
  5
2EB
330
1F
100
AcDbEntity
  8
0
  6
Continuous
 62
     7
370
    25
100
AcDbLine
 10
199.5546721894
 20
54.4196081591
 30
0.0
 11
206.6257400013
 21
61.4906759709
 31
0.0
  0
LINE
  5
2EC
330
1F
100
AcDbEntity
  8
0
  6
Continuous
 62
     7
370
    25
100
AcDbLine
 10
199.8463537367
 20
54.1279266119
 30
0.0
 11
199.5546721894
 21
54.4196081591
 31
0.0
  0
LINE
  5
2ED
330
1F
100
AcDbEntity
  8
0
  6
Continuous
 62
     7
370
    25
100
AcDbLine
 10
187.1184316753
 20
41.4000045505
 30
0.0
 11
199.8463537367
 21
54.1279266119
 31
0.0
  0
LINE
  5
2EE
330
1F
100
AcDbEntity
  8
0
  6
Continuous
 62
     7
370
    25
100
AcDbLine
 10
186.8267501281
 20
41.6916860977
 30
0.0
 11
187.1184316753
 21
41.4000045505
 31
0.0
  0
LINE
  5
2EF
330
1F
100
AcDbEntity
  8
0
  6
Continuous
 62
     7
370
    25
100
AcDbLine
 10
132.1256823162
 20
320.4006182859
 30
0.0
 11
139.1967501281
 21
327.4716860977
 31
0.0
  0
ARC
  5
2F0
330
1F
100
AcDbEntity
  8
0
  6
Continuous
 62
     7
370
    25
100
AcDbCircle
 10
131.003150301
 20
321.523150301
 30
0.0
 40
1.587500000000039
100
AcDbArc
 50
135.0
 51
315.000000003
  0
LINE
  5
2F1
330
1F
100
AcDbEntity
  8
0
  6
Continuous
 62
     7
370
    25
100
AcDbLine
 10
136.9516860978
 20
329.716750128
 30
0.0
 11
129.8806182859
 21
322.6456823161
 31
0.0
  0
LINE
  5
2F2
330
1F
100
AcDbEntity
  8
0
  6
Continuous
 62
     7
370
    25
100
AcDbLine
 10
136.6600045506
 20
330.0084316752
 30
0.0
 11
136.9516860978
 21
329.716750128
 31
0.0
  0
LINE
  5
2F3
330
1F
100
AcDbEntity
  8
0
  6
Continuous
 62
     7
370
    25
100
AcDbLine
 10
149.387926612
 20
342.7363537366
 30
0.0
 11
136.6600045506
 21
330.0084316752
 31
0.0
  0
LINE
  5
2F4
330
1F
100
AcDbEntity
  8
0
  6
Continuous
 62
     7
370
    25
100
AcDbLine
 10
149.6796081592
 20
342.4446721894
 30
0.0
 11
149.387926612
 21
342.7363537366
 31
0.0
  0
LINE
  5
2F5
330
1F
100
AcDbEntity
  8
0
  6
Continuous
 62
     7
370
    25
100
AcDbLine
 10
156.750675971
 20
349.5157400013
 30
0.0
 11
149.6796081592
 21
342.4446721894
 31
0.0
  0
ARC
  5
2F6
330
1F
100
AcDbEntity
  8
0
  6
Continuous
 62
     7
370
    25
100
AcDbCircle
 10
157.8732079861
 20
348.3932079861
 30
0.0
 40
1.587500000081332
100
AcDbArc
 50
315.0
 51
134.999999997
  0
LINE
  5
2F7
330
1F
100
AcDbEntity
  8
0
  6
Continuous
 62
     7
370
    25
100
AcDbLine
 10
151.9246721895
 20
340.1996081591
 30
0.0
 11
158.9957400013
 21
347.2706759709
 31
0.0
  0
LINE
  5
2F8
330
1F
100
AcDbEntity
  8
0
  6
Continuous
 62
     7
370
    25
100
AcDbLine
 10
152.2163537367
 20
339.9079266118
 30
0.0
 11
151.9246721895
 21
340.1996081591
 31
0.0
  0
LINE
  5
2F9
330
1F
100
AcDbEntity
  8
0
  6
Continuous
 62
     7
370
    25
100
AcDbLine
 10
139.4884316754
 20
327.1800045505
 30
0.0
 11
152.2163537367
 21
339.9079266118
 31
0.0
  0
LINE
  5
2FA
330
1F
100
AcDbEntity
  8
0
  6
Continuous
 62
     7
370
    25
100
AcDbLine
 10
139.1967501281
 20
327.4716860977
 30
0.0
 11
139.4884316754
 21
327.1800045505
 31
0.0
  0
LINE
  5
2FB
330
1F
100
AcDbEntity
  8
0
  6
Continuous
 62
     7
370
    25
100
AcDbLine
 10
84.4956823162
 20
82.2506182859
 30
0.0
 11
91.5667501281
 21
89.3216860977
 31
0.0
  0
ARC
  5
2FC
330
1F
100
AcDbEntity
  8
0
  6
Continuous
 62
     7
370
    25
100
AcDbCircle
 10
83.373150301
 20
83.373150301
 30
0.0
 40
1.587500000000059
100
AcDbArc
 50
135.0
 51
315.0000000036
  0
LINE
  5
2FD
330
1F
100
AcDbEntity
  8
0
  6
Continuous
 62
     7
370
    25
100
AcDbLine
 10
89.3216860979
 20
91.566750128
 30
0.0
 11
82.2506182859
 21
84.4956823161
 31
0.0
  0
LINE
  5
2FE
330
1F
100
AcDbEntity
  8
0
  6
Continuous
 62
     7
370
    25
100
AcDbLine
 10
89.0300045506
 20
91.8584316752
 30
0.0
 11
89.3216860979
 21
91.566750128
 31
0.0
  0
LINE
  5
2FF
330
1F
100
AcDbEntity
  8
0
  6
Continuous
 62
     7
370
    25
100
AcDbLine
 10
101.757926612
 20
104.5863537366
 30
0.0
 11
89.0300045506
 21
91.8584316752
 31
0.0
  0
LINE
  5
300
330
1F
100
AcDbEntity
  8
0
  6
Continuous
 62
     7
370
    25
100
AcDbLine
 10
102.0496081592
 20
104.2946721894
 30
0.0
 11
101.757926612
 21
104.5863537366
 31
0.0
  0
LINE
  5
301
330
1F
100
AcDbEntity
  8
0
  6
Continuous
 62
     7
370
    25
100
AcDbLine
 10
109.120675971
 20
111.3657400013
 30
0.0
 11
102.0496081592
 21
104.2946721894
 31
0.0
  0
ARC
  5
302
330
1F
100
AcDbEntity
  8
0
  6
Continuous
 62
     7
370
    25
100
AcDbCircle
 10
110.2432079861
 20
110.2432079861
 30
0.0
 40
1.587500000096254
100
AcDbArc
 50
315.0
 51
134.9999999964
  0
LINE
  5
303
330
1F
100
AcDbEntity
  8
0
  6
Continuous
 62
     7
370
    25
100
AcDbLine
 10
104.2946721895
 20
102.0496081591
 30
0.0
 11
111.3657400013
 21
109.1206759709
 31
0.0
  0
LINE
  5
304
330
1F
100
AcDbEntity
  8
0
  6
Continuous
 62
     7
370
    25
100
AcDbLine
 10
104.5863537367
 20
101.7579266119
 30
0.0
 11
104.2946721895
 21
102.0496081591
 31
0.0
  0
LINE
  5
305
330
1F
100
AcDbEntity
  8
0
  6
Continuous
 62
     7
370
    25
100
AcDbLine
 10
91.8584316754
 20
89.0300045505
 30
0.0
 11
104.5863537367
 21
101.7579266119
 31
0.0
  0
LINE
  5
306
330
1F
100
AcDbEntity
  8
0
  6
Continuous
 62
     7
370
    25
100
AcDbLine
 10
91.5667501281
 20
89.3216860977
 30
0.0
 11
91.8584316754
 21
89.0300045505
 31
0.0
  0
LINE
  5
307
330
1F
100
AcDbEntity
  8
0
  6
Continuous
 62
     7
370
    25
100
AcDbLine
 10
84.4956823162
 20
129.8806182859
 30
0.0
 11
91.5667501281
 21
136.9516860977
 31
0.0
  0
ARC
  5
308
330
1F
100
AcDbEntity
  8
0
  6
Continuous
 62
     7
370
    25
100
AcDbCircle
 10
83.373150301
 20
131.003150301
 30
0.0
 40
1.587500000000059
100
AcDbArc
 50
135.0
 51
315.0000000036
  0
LINE
  5
309
330
1F
100
AcDbEntity
  8
0
  6
Continuous
 62
     7
370
    25
100
AcDbLine
 10
89.3216860979
 20
139.196750128
 30
0.0
 11
82.2506182859
 21
132.1256823161
 31
0.0
  0
LINE
  5
30A
330
1F
100
AcDbEntity
  8
0
  6
Continuous
 62
     7
370
    25
100
AcDbLine
 10
89.0300045506
 20
139.4884316752
 30
0.0
 11
89.3216860979
 21
139.196750128
 31
0.0
  0
LINE
  5
30B
330
1F
100
AcDbEntity
  8
0
  6
Continuous
 62
     7
370
    25
100
AcDbLine
 10
101.757926612
 20
152.2163537366
 30
0.0
 11
89.0300045506
 21
139.4884316752
 31
0.0
  0
LINE
  5
30C
330
1F
100
AcDbEntity
  8
0
  6
Continuous
 62
     7
370
    25
100
AcDbLine
 10
102.0496081592
 20
151.9246721894
 30
0.0
 11
101.757926612
 21
152.2163537366
 31
0.0
  0
LINE
  5
30D
330
1F
100
AcDbEntity
  8
0
  6
Continuous
 62
     7
370
    25
100
AcDbLine
 10
109.120675971
 20
158.9957400013
 30
0.0
 11
102.0496081592
 21
151.9246721894
 31
0.0
  0
ARC
  5
30E
330
1F
100
AcDbEntity
  8
0
  6
Continuous
 62
     7
370
    25
100
AcDbCircle
 10
110.2432079861
 20
157.8732079861
 30
0.0
 40
1.587500000096516
100
AcDbArc
 50
315.0
 51
134.9999999964
  0
LINE
  5
30F
330
1F
100
AcDbEntity
  8
0
  6
Continuous
 62
     7
370
    25
100
AcDbLine
 10
104.2946721895
 20
149.6796081591
 30
0.0
 11
111.3657400013
 21
156.7506759709
 31
0.0
  0
LINE
  5
310
330
1F
100
AcDbEntity
  8
0
  6
Continuous
 62
     7
370
    25
100
AcDbLine
 10
104.5863537367
 20
149.3879266119
 30
0.0
 11
104.2946721895
 21
149.6796081591
 31
0.0
  0
LINE
  5
311
330
1F
100
AcDbEntity
  8
0
  6
Continuous
 62
     7
370
    25
100
AcDbLine
 10
91.8584316754
 20
136.6600045505
 30
0.0
 11
104.5863537367
 21
149.3879266119
 31
0.0
  0
LINE
  5
312
330
1F
100
AcDbEntity
  8
0
  6
Continuous
 62
     7
370
    25
100
AcDbLine
 10
91.5667501281
 20
136.9516860977
 30
0.0
 11
91.8584316754
 21
136.6600045505
 31
0.0
  0
LINE
  5
313
330
1F
100
AcDbEntity
  8
0
  6
Continuous
 62
     7
370
    25
100
AcDbLine
 10
84.4956823162
 20
177.5106182859
 30
0.0
 11
91.5667501281
 21
184.5816860977
 31
0.0
  0
ARC
  5
314
330
1F
100
AcDbEntity
  8
0
  6
Continuous
 62
     7
370
    25
100
AcDbCircle
 10
83.373150301
 20
178.633150301
 30
0.0
 40
1.587500000000059
100
AcDbArc
 50
135.0
 51
315.0000000036
  0
LINE
  5
315
330
1F
100
AcDbEntity
  8
0
  6
Continuous
 62
     7
370
    25
100
AcDbLine
 10
89.3216860979
 20
186.826750128
 30
0.0
 11
82.2506182859
 21
179.7556823161
 31
0.0
  0
LINE
  5
316
330
1F
100
AcDbEntity
  8
0
  6
Continuous
 62
     7
370
    25
100
AcDbLine
 10
89.0300045506
 20
187.1184316752
 30
0.0
 11
89.3216860979
 21
186.826750128
 31
0.0
  0
LINE
  5
317
330
1F
100
AcDbEntity
  8
0
  6
Continuous
 62
     7
370
    25
100
AcDbLine
 10
101.757926612
 20
199.8463537366
 30
0.0
 11
89.0300045506
 21
187.1184316752
 31
0.0
  0
LINE
  5
318
330
1F
100
AcDbEntity
  8
0
  6
Continuous
 62
     7
370
    25
100
AcDbLine
 10
102.0496081592
 20
199.5546721894
 30
0.0
 11
101.757926612
 21
199.8463537366
 31
0.0
  0
LINE
  5
319
330
1F
100
AcDbEntity
  8
0
  6
Continuous
 62
     7
370
    25
100
AcDbLine
 10
109.120675971
 20
206.6257400013
 30
0.0
 11
102.0496081592
 21
199.5546721894
 31
0.0
  0
ARC
  5
31A
330
1F
100
AcDbEntity
  8
0
  6
Continuous
 62
     7
370
    25
100
AcDbCircle
 10
110.2432079861
 20
205.5032079861
 30
0.0
 40
1.587500000096737
100
AcDbArc
 50
315.0
 51
134.9999999964
  0
LINE
  5
31B
330
1F
100
AcDbEntity
  8
0
  6
Continuous
 62
     7
370
    25
100
AcDbLine
 10
104.2946721895
 20
197.3096081591
 30
0.0
 11
111.3657400013
 21
204.3806759709
 31
0.0
  0
LINE
  5
31C
330
1F
100
AcDbEntity
  8
0
  6
Continuous
 62
     7
370
    25
100
AcDbLine
 10
104.5863537367
 20
197.0179266119
 30
0.0
 11
104.2946721895
 21
197.3096081591
 31
0.0
  0
LINE
  5
31D
330
1F
100
AcDbEntity
  8
0
  6
Continuous
 62
     7
370
    25
100
AcDbLine
 10
91.8584316754
 20
184.2900045505
 30
0.0
 11
104.5863537367
 21
197.0179266119
 31
0.0
  0
LINE
  5
31E
330
1F
100
AcDbEntity
  8
0
  6
Continuous
 62
     7
370
    25
100
AcDbLine
 10
91.5667501281
 20
184.5816860977
 30
0.0
 11
91.8584316754
 21
184.2900045505
 31
0.0
  0
LINE
  5
31F
330
1F
100
AcDbEntity
  8
0
  6
Continuous
 62
     7
370
    25
100
AcDbLine
 10
84.4956823162
 20
225.1406182859
 30
0.0
 11
91.5667501281
 21
232.2116860977
 31
0.0
  0
ARC
  5
320
330
1F
100
AcDbEntity
  8
0
  6
Continuous
 62
     7
370
    25
100
AcDbCircle
 10
83.373150301
 20
226.263150301
 30
0.0
 40
1.587499999999999
100
AcDbArc
 50
135.0
 51
315.0000000036
  0
LINE
  5
321
330
1F
100
AcDbEntity
  8
0
  6
Continuous
 62
     7
370
    25
100
AcDbLine
 10
89.3216860979
 20
234.456750128
 30
0.0
 11
82.2506182859
 21
227.3856823161
 31
0.0
  0
LINE
  5
322
330
1F
100
AcDbEntity
  8
0
  6
Continuous
 62
     7
370
    25
100
AcDbLine
 10
89.0300045506
 20
234.7484316752
 30
0.0
 11
89.3216860979
 21
234.456750128
 31
0.0
  0
LINE
  5
323
330
1F
100
AcDbEntity
  8
0
  6
Continuous
 62
     7
370
    25
100
AcDbLine
 10
101.757926612
 20
247.4763537366
 30
0.0
 11
89.0300045506
 21
234.7484316752
 31
0.0
  0
LINE
  5
324
330
1F
100
AcDbEntity
  8
0
  6
Continuous
 62
     7
370
    25
100
AcDbLine
 10
102.0496081592
 20
247.1846721894
 30
0.0
 11
101.757926612
 21
247.4763537366
 31
0.0
  0
LINE
  5
325
330
1F
100
AcDbEntity
  8
0
  6
Continuous
 62
     7
370
    25
100
AcDbLine
 10
109.120675971
 20
254.2557400013
 30
0.0
 11
102.0496081592
 21
247.1846721894
 31
0.0
  0
ARC
  5
326
330
1F
100
AcDbEntity
  8
0
  6
Continuous
 62
     7
370
    25
100
AcDbCircle
 10
110.2432079861
 20
253.1332079861
 30
0.0
 40
1.587500000097048
100
AcDbArc
 50
315.0
 51
134.9999999964
  0
LINE
  5
327
330
1F
100
AcDbEntity
  8
0
  6
Continuous
 62
     7
370
    25
100
AcDbLine
 10
104.2946721895
 20
244.9396081591
 30
0.0
 11
111.3657400013
 21
252.0106759709
 31
0.0
  0
LINE
  5
328
330
1F
100
AcDbEntity
  8
0
  6
Continuous
 62
     7
370
    25
100
AcDbLine
 10
104.5863537367
 20
244.6479266118
 30
0.0
 11
104.2946721895
 21
244.9396081591
 31
0.0
  0
LINE
  5
329
330
1F
100
AcDbEntity
  8
0
  6
Continuous
 62
     7
370
    25
100
AcDbLine
 10
91.8584316754
 20
231.9200045505
 30
0.0
 11
104.5863537367
 21
244.6479266118
 31
0.0
  0
LINE
  5
32A
330
1F
100
AcDbEntity
  8
0
  6
Continuous
 62
     7
370
    25
100
AcDbLine
 10
91.5667501281
 20
232.2116860977
 30
0.0
 11
91.8584316754
 21
231.9200045505
 31
0.0
  0
LINE
  5
32B
330
1F
100
AcDbEntity
  8
0
  6
Continuous
 62
     7
370
    25
100
AcDbLine
 10
84.4956823162
 20
272.7706182859
 30
0.0
 11
91.5667501281
 21
279.8416860977
 31
0.0
  0
ARC
  5
32C
330
1F
100
AcDbEntity
  8
0
  6
Continuous
 62
     7
370
    25
100
AcDbCircle
 10
83.373150301
 20
273.893150301
 30
0.0
 40
1.587500000000049
100
AcDbArc
 50
135.0
 51
315.0000000035
  0
LINE
  5
32D
330
1F
100
AcDbEntity
  8
0
  6
Continuous
 62
     7
370
    25
100
AcDbLine
 10
89.3216860979
 20
282.086750128
 30
0.0
 11
82.2506182859
 21
275.0156823161
 31
0.0
  0
LINE
  5
32E
330
1F
100
AcDbEntity
  8
0
  6
Continuous
 62
     7
370
    25
100
AcDbLine
 10
89.0300045506
 20
282.3784316752
 30
0.0
 11
89.3216860979
 21
282.086750128
 31
0.0
  0
LINE
  5
32F
330
1F
100
AcDbEntity
  8
0
  6
Continuous
 62
     7
370
    25
100
AcDbLine
 10
101.757926612
 20
295.1063537366
 30
0.0
 11
89.0300045506
 21
282.3784316752
 31
0.0
  0
LINE
  5
330
330
1F
100
AcDbEntity
  8
0
  6
Continuous
 62
     7
370
    25
100
AcDbLine
 10
102.0496081592
 20
294.8146721894
 30
0.0
 11
101.757926612
 21
295.1063537366
 31
0.0
  0
LINE
  5
331
330
1F
100
AcDbEntity
  8
0
  6
Continuous
 62
     7
370
    25
100
AcDbLine
 10
109.120675971
 20
301.8857400013
 30
0.0
 11
102.0496081592
 21
294.8146721894
 31
0.0
  0
ARC
  5
332
330
1F
100
AcDbEntity
  8
0
  6
Continuous
 62
     7
370
    25
100
AcDbCircle
 10
110.2432079861
 20
300.7632079861
 30
0.0
 40
1.587500000097289
100
AcDbArc
 50
315.0
 51
134.9999999965
  0
LINE
  5
333
330
1F
100
AcDbEntity
  8
0
  6
Continuous
 62
     7
370
    25
100
AcDbLine
 10
104.2946721895
 20
292.5696081591
 30
0.0
 11
111.3657400013
 21
299.6406759709
 31
0.0
  0
LINE
  5
334
330
1F
100
AcDbEntity
  8
0
  6
Continuous
 62
     7
370
    25
100
AcDbLine
 10
104.5863537367
 20
292.2779266118
 30
0.0
 11
104.2946721895
 21
292.5696081591
 31
0.0
  0
LINE
  5
335
330
1F
100
AcDbEntity
  8
0
  6
Continuous
 62
     7
370
    25
100
AcDbLine
 10
91.8584316754
 20
279.5500045505
 30
0.0
 11
104.5863537367
 21
292.2779266118
 31
0.0
  0
LINE
  5
336
330
1F
100
AcDbEntity
  8
0
  6
Continuous
 62
     7
370
    25
100
AcDbLine
 10
91.5667501281
 20
279.8416860977
 30
0.0
 11
91.8584316754
 21
279.5500045505
 31
0.0
  0
LINE
  5
337
330
1F
100
AcDbEntity
  8
0
  6
Continuous
 62
     7
370
    25
100
AcDbLine
 10
84.4956823162
 20
320.4006182859
 30
0.0
 11
91.5667501281
 21
327.4716860977
 31
0.0
  0
ARC
  5
338
330
1F
100
AcDbEntity
  8
0
  6
Continuous
 62
     7
370
    25
100
AcDbCircle
 10
83.373150301
 20
321.523150301
 30
0.0
 40
1.587500000000049
100
AcDbArc
 50
135.0
 51
315.0000000035
  0
LINE
  5
339
330
1F
100
AcDbEntity
  8
0
  6
Continuous
 62
     7
370
    25
100
AcDbLine
 10
89.3216860979
 20
329.716750128
 30
0.0
 11
82.2506182859
 21
322.6456823161
 31
0.0
  0
LINE
  5
33A
330
1F
100
AcDbEntity
  8
0
  6
Continuous
 62
     7
370
    25
100
AcDbLine
 10
89.0300045506
 20
330.0084316752
 30
0.0
 11
89.3216860979
 21
329.716750128
 31
0.0
  0
LINE
  5
33B
330
1F
100
AcDbEntity
  8
0
  6
Continuous
 62
     7
370
    25
100
AcDbLine
 10
101.757926612
 20
342.7363537366
 30
0.0
 11
89.0300045506
 21
330.0084316752
 31
0.0
  0
LINE
  5
33C
330
1F
100
AcDbEntity
  8
0
  6
Continuous
 62
     7
370
    25
100
AcDbLine
 10
102.0496081592
 20
342.4446721894
 30
0.0
 11
101.757926612
 21
342.7363537366
 31
0.0
  0
LINE
  5
33D
330
1F
100
AcDbEntity
  8
0
  6
Continuous
 62
     7
370
    25
100
AcDbLine
 10
109.120675971
 20
349.5157400013
 30
0.0
 11
102.0496081592
 21
342.4446721894
 31
0.0
  0
ARC
  5
33E
330
1F
100
AcDbEntity
  8
0
  6
Continuous
 62
     7
370
    25
100
AcDbCircle
 10
110.2432079861
 20
348.3932079861
 30
0.0
 40
1.587500000097571
100
AcDbArc
 50
315.0
 51
134.9999999965
  0
LINE
  5
33F
330
1F
100
AcDbEntity
  8
0
  6
Continuous
 62
     7
370
    25
100
AcDbLine
 10
104.2946721895
 20
340.1996081591
 30
0.0
 11
111.3657400013
 21
347.2706759709
 31
0.0
  0
LINE
  5
340
330
1F
100
AcDbEntity
  8
0
  6
Continuous
 62
     7
370
    25
100
AcDbLine
 10
104.5863537367
 20
339.9079266118
 30
0.0
 11
104.2946721895
 21
340.1996081591
 31
0.0
  0
LINE
  5
341
330
1F
100
AcDbEntity
  8
0
  6
Continuous
 62
     7
370
    25
100
AcDbLine
 10
91.8584316754
 20
327.1800045505
 30
0.0
 11
104.5863537367
 21
339.9079266118
 31
0.0
  0
LINE
  5
342
330
1F
100
AcDbEntity
  8
0
  6
Continuous
 62
     7
370
    25
100
AcDbLine
 10
91.5667501281
 20
327.4716860977
 30
0.0
 11
91.8584316754
 21
327.1800045505
 31
0.0
  0
LINE
  5
343
330
1F
100
AcDbEntity
  8
0
  6
Continuous
 62
     7
370
    25
100
AcDbLine
 10
156.750675971
 20
63.7357400013
 30
0.0
 11
149.6796081592
 21
56.6646721894
 31
0.0
  0
ARC
  5
344
330
1F
100
AcDbEntity
  8
0
  6
Continuous
 62
     7
370
    25
100
AcDbCircle
 10
157.8732079861
 20
62.6132079861
 30
0.0
 40
1.587500000079729
100
AcDbArc
 50
315.0
 51
134.999999997
  0
LINE
  5
345
330
1F
100
AcDbEntity
  8
0
  6
Continuous
 62
     7
370
    25
100
AcDbLine
 10
151.9246721895
 20
54.4196081591
 30
0.0
 11
158.9957400013
 21
61.4906759709
 31
0.0
  0
LINE
  5
346
330
1F
100
AcDbEntity
  8
0
  6
Continuous
 62
     7
370
    25
100
AcDbLine
 10
152.2163537367
 20
54.1279266119
 30
0.0
 11
151.9246721895
 21
54.4196081591
 31
0.0
  0
LINE
  5
347
330
1F
100
AcDbEntity
  8
0
  6
Continuous
 62
     7
370
    25
100
AcDbLine
 10
139.4884316754
 20
41.4000045505
 30
0.0
 11
152.2163537367
 21
54.1279266119
 31
0.0
  0
LINE
  5
348
330
1F
100
AcDbEntity
  8
0
  6
Continuous
 62
     7
370
    25
100
AcDbLine
 10
139.1967501281
 20
41.6916860977
 30
0.0
 11
139.4884316754
 21
41.4000045505
 31
0.0
  0
LINE
  5
349
330
1F
100
AcDbEntity
  8
0
  6
Continuous
 62
     7
370
    25
100
AcDbLine
 10
132.1256823162
 20
34.6206182859
 30
0.0
 11
139.1967501281
 21
41.6916860977
 31
0.0
  0
ARC
  5
34A
330
1F
100
AcDbEntity
  8
0
  6
Continuous
 62
     7
370
    25
100
AcDbCircle
 10
131.003150301
 20
35.743150301
 30
0.0
 40
1.587500000000049
100
AcDbArc
 50
135.0
 51
315.000000003
  0
LINE
  5
34B
330
1F
100
AcDbEntity
  8
0
  6
Continuous
 62
     7
370
    25
100
AcDbLine
 10
136.9516860978
 20
43.936750128
 30
0.0
 11
129.8806182859
 21
36.8656823161
 31
0.0
  0
LINE
  5
34C
330
1F
100
AcDbEntity
  8
0
  6
Continuous
 62
     7
370
    25
100
AcDbLine
 10
136.6600045506
 20
44.2284316752
 30
0.0
 11
136.9516860978
 21
43.936750128
 31
0.0
  0
LINE
  5
34D
330
1F
100
AcDbEntity
  8
0
  6
Continuous
 62
     7
370
    25
100
AcDbLine
 10
149.387926612
 20
56.9563537366
 30
0.0
 11
136.6600045506
 21
44.2284316752
 31
0.0
  0
LINE
  5
34E
330
1F
100
AcDbEntity
  8
0
  6
Continuous
 62
     7
370
    25
100
AcDbLine
 10
149.6796081592
 20
56.6646721894
 30
0.0
 11
149.387926612
 21
56.9563537366
 31
0.0
  0
LINE
  5
34F
330
1F
100
AcDbEntity
  8
0
  6
Continuous
 62
     7
370
    25
100
AcDbLine
 10
156.750675971
 20
111.3657400013
 30
0.0
 11
149.6796081592
 21
104.2946721894
 31
0.0
  0
ARC
  5
350
330
1F
100
AcDbEntity
  8
0
  6
Continuous
 62
     7
370
    25
100
AcDbCircle
 10
157.8732079861
 20
110.2432079861
 30
0.0
 40
1.587500000079966
100
AcDbArc
 50
315.0
 51
134.999999997
  0
LINE
  5
351
330
1F
100
AcDbEntity
  8
0
  6
Continuous
 62
     7
370
    25
100
AcDbLine
 10
151.9246721895
 20
102.0496081591
 30
0.0
 11
158.9957400013
 21
109.1206759709
 31
0.0
  0
LINE
  5
352
330
1F
100
AcDbEntity
  8
0
  6
Continuous
 62
     7
370
    25
100
AcDbLine
 10
152.2163537367
 20
101.7579266119
 30
0.0
 11
151.9246721895
 21
102.0496081591
 31
0.0
  0
LINE
  5
353
330
1F
100
AcDbEntity
  8
0
  6
Continuous
 62
     7
370
    25
100
AcDbLine
 10
139.4884316754
 20
89.0300045505
 30
0.0
 11
152.2163537367
 21
101.7579266119
 31
0.0
  0
LINE
  5
354
330
1F
100
AcDbEntity
  8
0
  6
Continuous
 62
     7
370
    25
100
AcDbLine
 10
139.1967501281
 20
89.3216860977
 30
0.0
 11
139.4884316754
 21
89.0300045505
 31
0.0
  0
LINE
  5
355
330
1F
100
AcDbEntity
  8
0
  6
Continuous
 62
     7
370
    25
100
AcDbLine
 10
132.1256823162
 20
82.2506182859
 30
0.0
 11
139.1967501281
 21
89.3216860977
 31
0.0
  0
ARC
  5
356
330
1F
100
AcDbEntity
  8
0
  6
Continuous
 62
     7
370
    25
100
AcDbCircle
 10
131.003150301
 20
83.373150301
 30
0.0
 40
1.587500000000039
100
AcDbArc
 50
135.0
 51
315.000000003
  0
LINE
  5
357
330
1F
100
AcDbEntity
  8
0
  6
Continuous
 62
     7
370
    25
100
AcDbLine
 10
136.9516860978
 20
91.566750128
 30
0.0
 11
129.8806182859
 21
84.4956823161
 31
0.0
  0
LINE
  5
358
330
1F
100
AcDbEntity
  8
0
  6
Continuous
 62
     7
370
    25
100
AcDbLine
 10
136.6600045506
 20
91.8584316752
 30
0.0
 11
136.9516860978
 21
91.566750128
 31
0.0
  0
LINE
  5
359
330
1F
100
AcDbEntity
  8
0
  6
Continuous
 62
     7
370
    25
100
AcDbLine
 10
149.387926612
 20
104.5863537366
 30
0.0
 11
136.6600045506
 21
91.8584316752
 31
0.0
  0
LINE
  5
35A
330
1F
100
AcDbEntity
  8
0
  6
Continuous
 62
     7
370
    25
100
AcDbLine
 10
149.6796081592
 20
104.2946721894
 30
0.0
 11
149.387926612
 21
104.5863537366
 31
0.0
  0
LINE
  5
35B
330
1F
100
AcDbEntity
  8
0
  6
Continuous
 62
     7
370
    25
100
AcDbLine
 10
370.2756823161
 20
368.0306182859
 30
0.0
 11
377.346750128
 21
375.1016860977
 31
0.0
  0
ARC
  5
35C
330
1F
100
AcDbEntity
  8
0
  6
Continuous
 62
     7
370
    25
100
AcDbCircle
 10
369.153150301
 20
369.153150301
 30
0.0
 40
1.587500000000059
100
AcDbArc
 50
135.0
 51
315.0
  0
LINE
  5
35D
330
1F
100
AcDbEntity
  8
0
  6
Continuous
 62
     7
370
    25
100
AcDbLine
 10
375.1016860977
 20
377.346750128
 30
0.0
 11
368.0306182859
 21
370.2756823161
 31
0.0
  0
LINE
  5
35E
330
1F
100
AcDbEntity
  8
0
  6
Continuous
 62
     7
370
    25
100
AcDbLine
 10
374.8100045505
 20
377.6384316752
 30
0.0
 11
375.1016860977
 21
377.346750128
 31
0.0
  0
LINE
  5
35F
330
1F
100
AcDbEntity
  8
0
  6
Continuous
 62
     7
370
    25
100
AcDbLine
 10
387.5379266118
 20
390.3663537366
 30
0.0
 11
374.8100045505
 21
377.6384316752
 31
0.0
  0
LINE
  5
360
330
1F
100
AcDbEntity
  8
0
  6
Continuous
 62
     7
370
    25
100
AcDbLine
 10
387.8296081591
 20
390.0746721894
 30
0.0
 11
387.5379266118
 21
390.3663537366
 31
0.0
  0
LINE
  5
361
330
1F
100
AcDbEntity
  8
0
  6
Continuous
 62
     7
370
    25
100
AcDbLine
 10
394.900675971
 20
397.1457400012
 30
0.0
 11
387.8296081591
 21
390.0746721894
 31
0.0
  0
ARC
  5
362
330
1F
100
AcDbEntity
  8
0
  6
Continuous
 62
     7
370
    25
100
AcDbCircle
 10
396.0232079861
 20
396.0232079861
 30
0.0
 40
1.587500000000019
100
AcDbArc
 50
315.0
 51
135.0
  0
LINE
  5
363
330
1F
100
AcDbEntity
  8
0
  6
Continuous
 62
     7
370
    25
100
AcDbLine
 10
390.0746721894
 20
387.8296081591
 30
0.0
 11
397.1457400012
 21
394.900675971
 31
0.0
  0
LINE
  5
364
330
1F
100
AcDbEntity
  8
0
  6
Continuous
 62
     7
370
    25
100
AcDbLine
 10
390.3663537366
 20
387.5379266118
 30
0.0
 11
390.0746721894
 21
387.8296081591
 31
0.0
  0
LINE
  5
365
330
1F
100
AcDbEntity
  8
0
  6
Continuous
 62
     7
370
    25
100
AcDbLine
 10
377.6384316752
 20
374.8100045505
 30
0.0
 11
390.3663537366
 21
387.5379266118
 31
0.0
  0
LINE
  5
366
330
1F
100
AcDbEntity
  8
0
  6
Continuous
 62
     7
370
    25
100
AcDbLine
 10
377.346750128
 20
375.1016860977
 30
0.0
 11
377.6384316752
 21
374.8100045505
 31
0.0
  0
LINE
  5
367
330
1F
100
AcDbEntity
  8
0
  6
Continuous
 62
     7
370
    25
100
AcDbLine
 10
431.8
 20
0.0
 30
0.0
 11
431.8
 21
431.8
 31
0.0
  0
LINE
  5
368
330
1F
100
AcDbEntity
  8
0
  6
Continuous
 62
     7
370
    25
100
AcDbLine
 10
431.8
 20
431.8
 30
0.0
 11
0.0
 21
431.8
 31
0.0
  0
LINE
  5
369
330
1F
100
AcDbEntity
  8
0
  6
Continuous
 62
     7
370
    25
100
AcDbLine
 10
0.0
 20
431.8
 30
0.0
 11
0.0
 21
0.0
 31
0.0
  0
LINE
  5
36A
330
1F
100
AcDbEntity
  8
0
  6
Continuous
 62
     7
370
    25
100
AcDbLine
 10
0.0
 20
0.0
 30
0.0
 11
431.8
 21
0.0
 31
0.0
  0
MTEXT
  5
36C
330
1F
100
AcDbEntity
  8
0
  6
Continuous
 62
     7
100
AcDbMText
 10
0.0
 20
-1.0195663917
 30
0.0
 40
4.83362
 41
0.0
 71
     1
 72
     1
  1
SOLIDWORKS Educational Product.
  7
SLDTEXTSTYLE0
 73
     1
 44
1.0
  0
MTEXT
  5
36D
330
1F
100
AcDbEntity
  8
0
  6
Continuous
 62
     7
100
AcDbMText
 10
0.0
 20
-8.2699963917
 30
0.0
 40
4.83362
 41
0.0
 71
     1
 72
     1
  1
For Instructional Use Only.
  7
SLDTEXTSTYLE0
 73
     1
 44
1.0
  0
ENDSEC
  0
SECTION
  2
OBJECTS
  0
DICTIONARY
  5
C
330
0
100
AcDbDictionary
281
     1
  3
ACAD_GROUP
350
D
  3
ACAD_LAYOUT
350
1A
  3
ACAD_MLINESTYLE
350
17
  3
ACAD_PLOTSETTINGS
350
19
  3
ACAD_PLOTSTYLENAME
350
E
  3
ACAD_SCALELIST
350
47
  3
DWGPROPS
350
36E
  0
DICTIONARY
  5
D
102
{ACAD_REACTORS
330
C
102
}
330
C
100
AcDbDictionary
281
     1
  0
DICTIONARY
  5
1A
102
{ACAD_REACTORS
330
C
102
}
330
C
100
AcDbDictionary
281
     1
  3
Layout1
350
1E
  3
Layout2
350
26
  3
Model
350
22
  0
DICTIONARY
  5
17
102
{ACAD_REACTORS
330
C
102
}
330
C
100
AcDbDictionary
281
     1
  3
Standard
350
18
  0
DICTIONARY
  5
19
102
{ACAD_REACTORS
330
C
102
}
330
C
100
AcDbDictionary
281
     1
  0
ACDBDICTIONARYWDFLT
  5
E
102
{ACAD_REACTORS
330
C
102
}
330
C
100
AcDbDictionary
281
     1
  3
Normal
350
F
100
AcDbDictionaryWithDefault
340
F
  0
DICTIONARY
  5
47
102
{ACAD_REACTORS
330
C
102
}
330
C
100
AcDbDictionary
281
     1
  3
A0
350
48
  3
A1
350
49
  3
A2
350
4A
  3
A3
350
4B
  3
A4
350
4C
  3
A5
350
4D
  3
A6
350
4E
  3
A7
350
4F
  3
A8
350
50
  3
A9
350
51
  3
B0
350
52
  3
B1
350
53
  3
B2
350
54
  3
B3
350
55
  3
B4
350
56
  3
B5
350
57
  3
B6
350
58
  0
XRECORD
  5
36E
102
{ACAD_REACTORS
330
C
102
}
330
C
100
AcDbXrecord
280
     1
  1
DWGPROPS COOKIE
  2

  3

  4

  6

  7

  8
erido
  9

300
=
301
=
302
=
303
=
304
=
305
=
306
=
307
=
308
=
309
=
 40
0.0
 41
2459888.67502419
 42
2459888.675123368
  1

 90
        0
  0
LAYOUT
  5
1E
102
{ACAD_REACTORS
330
1A
102
}
330
1A
100
AcDbPlotSettings
  1

  2
none_device
  4

  6

 40
0.0
 41
0.0
 42
0.0
 43
0.0
 44
0.0
 45
0.0
 46
0.0
 47
0.0
 48
0.0
 49
0.0
140
0.0
141
0.0
142
1.0
143
1.0
 70
   688
 72
     1
 73
     0
 74
     5
  7

 75
    16
147
1.0
148
0.0
149
0.0
100
AcDbLayout
  1
Layout1
 70
     1
 71
     1
 10
0.0
 20
0.0
 11
420.0
 21
297.0
 12
0.0
 22
0.0
 32
0.0
 14
1.0000000000E+20
 24
1.0000000000E+20
 34
1.0000000000E+20
 15
-1.0000000000E+20
 25
-1.0000000000E+20
 35
-1.0000000000E+20
146
0.0
 13
0.0
 23
0.0
 33
0.0
 16
1.0
 26
0.0
 36
0.0
 17
0.0
 27
1.0
 37
0.0
 76
     0
330
1B
  0
LAYOUT
  5
26
102
{ACAD_REACTORS
330
1A
102
}
330
1A
100
AcDbPlotSettings
  1

  2
none_device
  4

  6

 40
0.0
 41
0.0
 42
0.0
 43
0.0
 44
0.0
 45
0.0
 46
0.0
 47
0.0
 48
0.0
 49
0.0
140
0.0
141
0.0
142
1.0
143
1.0
 70
   688
 72
     1
 73
     0
 74
     5
  7

 75
    16
147
1.0
148
0.0
149
0.0
100
AcDbLayout
  1
Layout2
 70
     1
 71
     2
 10
0.0
 20
0.0
 11
0.0
 21
0.0
 12
0.0
 22
0.0
 32
0.0
 14
0.0
 24
0.0
 34
0.0
 15
0.0
 25
0.0
 35
0.0
146
0.0
 13
0.0
 23
0.0
 33
0.0
 16
1.0
 26
0.0
 36
0.0
 17
0.0
 27
1.0
 37
0.0
 76
     0
330
23
  0
LAYOUT
  5
22
102
{ACAD_REACTORS
330
1A
102
}
330
1A
100
AcDbPlotSettings
  1

  2
none_device
  4
ANSI_A_(11.00_x_8.50_Inches)
  6

 40
6.35
 41
19.05
 42
6.35000508
 43
19.05000254
 44
279.4
 45
215.9
 46
26.47949746
 47
-17.97050127
 48
0.0
 49
0.0
140
0.0
141
0.0
142
0.019488189
143
1.0
 70
  1696
 72
     0
 73
     0
 74
     0
  7

 75
     0
147
0.0179189148
148
-1300.4909072572
149
0.0
100
AcDbLayout
  1
Model
 70
     1
 71
     0
 10
0.0
 20
0.0
 11
420.0
 21
297.0
 12
0.0
 22
0.0
 32
0.0
 14
0.0
 24
0.0
 34
0.0
 15
431.8
 25
431.8
 35
0.0
146
0.0
 13
0.0
 23
0.0
 33
0.0
 16
1.0
 26
0.0
 36
0.0
 17
0.0
 27
1.0
 37
0.0
 76
     0
330
1F
331
29
  0
MLINESTYLE
  5
18
102
{ACAD_REACTORS
330
17
102
}
330
17
100
AcDbMlineStyle
  2
Standard
 70
     0
  3

 62
   256
 51
90.0
 52
90.0
 71
     2
 49
0.5
 62
   256
  6
BYLAYER
 49
-0.5
 62
   256
  6
BYLAYER
  0
ACDBPLACEHOLDER
  5
F
102
{ACAD_REACTORS
330
E
102
}
330
E
  0
SCALE
  5
48
102
{ACAD_REACTORS
330
47
102
}
330
47
100
AcDbScale
 70
     0
300
1:1
140
1.0
141
1.0
290
     1
  0
SCALE
  5
49
102
{ACAD_REACTORS
330
47
102
}
330
47
100
AcDbScale
 70
     0
300
1:2
140
1.0
141
2.0
290
     0
  0
SCALE
  5
4A
102
{ACAD_REACTORS
330
47
102
}
330
47
100
AcDbScale
 70
     0
300
1:4
140
1.0
141
4.0
290
     0
  0
SCALE
  5
4B
102
{ACAD_REACTORS
330
47
102
}
330
47
100
AcDbScale
 70
     0
300
1:5
140
1.0
141
5.0
290
     0
  0
SCALE
  5
4C
102
{ACAD_REACTORS
330
47
102
}
330
47
100
AcDbScale
 70
     0
300
1:8
140
1.0
141
8.0
290
     0
  0
SCALE
  5
4D
102
{ACAD_REACTORS
330
47
102
}
330
47
100
AcDbScale
 70
     0
300
1:10
140
1.0
141
10.0
290
     0
  0
SCALE
  5
4E
102
{ACAD_REACTORS
330
47
102
}
330
47
100
AcDbScale
 70
     0
300
1:16
140
1.0
141
16.0
290
     0
  0
SCALE
  5
4F
102
{ACAD_REACTORS
330
47
102
}
330
47
100
AcDbScale
 70
     0
300
1:20
140
1.0
141
20.0
290
     0
  0
SCALE
  5
50
102
{ACAD_REACTORS
330
47
102
}
330
47
100
AcDbScale
 70
     0
300
1:30
140
1.0
141
30.0
290
     0
  0
SCALE
  5
51
102
{ACAD_REACTORS
330
47
102
}
330
47
100
AcDbScale
 70
     0
300
1:40
140
1.0
141
40.0
290
     0
  0
SCALE
  5
52
102
{ACAD_REACTORS
330
47
102
}
330
47
100
AcDbScale
 70
     0
300
1:50
140
1.0
141
50.0
290
     0
  0
SCALE
  5
53
102
{ACAD_REACTORS
330
47
102
}
330
47
100
AcDbScale
 70
     0
300
1:100
140
1.0
141
100.0
290
     0
  0
SCALE
  5
54
102
{ACAD_REACTORS
330
47
102
}
330
47
100
AcDbScale
 70
     0
300
2:1
140
2.0
141
1.0
290
     0
  0
SCALE
  5
55
102
{ACAD_REACTORS
330
47
102
}
330
47
100
AcDbScale
 70
     0
300
4:1
140
4.0
141
1.0
290
     0
  0
SCALE
  5
56
102
{ACAD_REACTORS
330
47
102
}
330
47
100
AcDbScale
 70
     0
300
8:1
140
8.0
141
1.0
290
     0
  0
SCALE
  5
57
102
{ACAD_REACTORS
330
47
102
}
330
47
100
AcDbScale
 70
     0
300
10:1
140
10.0
141
1.0
290
     0
  0
SCALE
  5
58
102
{ACAD_REACTORS
330
47
102
}
330
47
100
AcDbScale
 70
     0
300
100:1
140
100.0
141
1.0
290
     0
  0
ENDSEC
  0
EOF
